{
.appVersion = "965";
copyright = "Copyright 2017 Google Inc. All Rights Reserved.";
customParameters = (
{
name = licenseURL;
value = "http://scripts.sil.org/OFL";
},
{
name = vendorID;
value = GOOG;
},
{
name = unicodeRanges;
value = (
0,
1,
25,
31,
33,
45
);
},
{
name = codePageRanges;
value = (
"1252"
);
},
{
name = glyphOrder;
value = (
.notdef,
NULL,
CR,
space,
"koKai-lao",
"khoKhai-lao",
"khoKhuay-lao",
"ngoNgu-lao",
"coCok-lao",
"soSang-lao",
"nyoNyung-lao",
"doDek-lao",
"toTa-lao",
"thoThong-lao",
"thoThung-lao",
"noNok-lao",
"boBae-lao",
"poPa-lao",
"phoPhueng-lao",
"foFon-lao",
"phoPhu-lao",
"foFai-lao",
"moMa-lao",
"yoYa-lao",
"roRot-lao",
"loLing-lao",
"woWi-lao",
"soSeua-lao",
"hoHaan-lao",
"oO-lao",
"hoHeuan-lao",
"khmuGo-lao",
"khmuNyo-lao",
"aVowel-lao",
"aaVowel-lao",
"amVowel-lao",
"nyoVowel-lao",
"eVowel-lao",
"aeVowel-lao",
"oVowel-lao",
"ayMaiMuanVowel-lao",
"aiMaiMayVowel-lao",
"amVowel-lao.narrow",
"hoNo-lao",
"hoMo-lao",
"zero-lao",
"one-lao",
"two-lao",
"three-lao",
"four-lao",
"five-lao",
"six-lao",
"seven-lao",
"eight-lao",
"nine-lao",
"koLa-lao",
"ellipsis-lao",
kip,
"maiKanVowel-lao",
"iVowel-lao",
"iiVowel-lao",
"euVowel-lao",
"euuVowel-lao",
"maiKonVowel-lao",
"uVowel-lao",
"uuVowel-lao",
"loVowel-lao",
"maiEk-lao",
"maiTho-lao",
"maiTi-lao",
"maiCatawa-lao",
"karan-lao",
"niggahita-lao",
"niggahita_maiEk-lao",
"niggahita_maiTho-lao",
"niggahita_maiTi-lao",
"niggahita_maiCatawa-lao",
"maiEk-lao.small",
"maiTho-lao.small",
"maiTi-lao.small",
"maiCatawa-lao.small",
"karan-lao.small",
"maiKanVowel-lao.narrow",
"iVowel-lao.narrow",
"iiVowel-lao.narrow",
"euVowel-lao.narrow",
"euuVowel-lao.narrow",
"maiKonVowel-lao.narrow",
"maiEk-lao.narrow",
"maiTho-lao.narrow",
"maiTi-lao.narrow",
"maiCatawa-lao.narrow",
"karan-lao.narrow",
"niggahita-lao.narrow",
"niggahita_maiEk-lao.narrow",
"niggahita_maiTho-lao.narrow",
"niggahita_maiTi-lao.narrow",
"niggahita_maiCatawa-lao.narrow",
"niggahita_maiEk-lao.right",
"niggahita_maiTho-lao.right",

glyphs = (
{
glyphname = .notdef;
lastChange = "2017-01-26 21:57:21 +0000";
layers = (
{
layerId = "64BC062E-13E4-450B-B24E-D8A474022433";
paths = (
{
closed = 1;
nodes = (
"451 0 LINE",
"451 714 LINE",
"51 714 LINE",
"51 0 LINE"
);
},
{
closed = 1;
nodes = (
"99 666 LINE",
"403 666 LINE",
"403 48 LINE",
"99 48 LINE"
);
}
);
width = 503;
},
{
layerId = "6449CA81-A7C3-4005-93E5-765657812F1B";
paths = (
{
closed = 1;
nodes = (
"451 0 LINE",
"451 714 LINE",
"51 714 LINE",
"51 0 LINE"
);
},
{
closed = 1;
nodes = (
"99 666 LINE",
"403 666 LINE",
"403 48 LINE",
"99 48 LINE"
);
}
);
width = 503;
},
{
layerId = "E5D3352E-10FF-4C03-AD9F-F95B1FD01257";
paths = (
{
closed = 1;
nodes = (
"451 0 LINE",
"451 714 LINE",
"51 714 LINE",
"51 0 LINE"
);
},
{
closed = 1;
nodes = (
"99 666 LINE",
"403 666 LINE",
"403 48 LINE",
"99 48 LINE"
);
}
);
width = 503;
}
);
note = .notdef;
},
{
glyphname = "koKai-lao";
lastChange = "2017-01-30 15:29:27 +0000";
layers = (
{
anchors = (
{
name = bottom;
position = "{546, 0}";
},
{
name = top;
position = "{536, 536}";
}
);
layerId = "64BC062E-13E4-450B-B24E-D8A474022433";
paths = (
{
closed = 1;
nodes = (
"159 -10 OFFCURVE",
"187 19 OFFCURVE",
"187 89 CURVE SMOOTH",
"187 359 LINE SMOOTH",
"187 425 OFFCURVE",
"260 531 OFFCURVE",
"388 531 CURVE SMOOTH",
"500 531 OFFCURVE",
"520 455 OFFCURVE",
"520 366 CURVE SMOOTH",
"520 0 LINE",
"546 0 LINE",
"546 365 LINE SMOOTH",
"546 494 OFFCURVE",
"499 556 OFFCURVE",
"385 556 CURVE SMOOTH",
"279 556 OFFCURVE",
"215 492 OFFCURVE",
"183 427 CURVE",
"182 427 LINE",
"172 480 OFFCURVE",
"158 519 OFFCURVE",
"133 556 CURVE",
"113 543 LINE",
"139 505 OFFCURVE",
"161 449 OFFCURVE",
"161 391 CURVE SMOOTH",
"161 85 LINE SMOOTH",
"161 30 OFFCURVE",
"143 15 OFFCURVE",
"108 15 CURVE SMOOTH",
"93 15 OFFCURVE",
"83 18 OFFCURVE",
"70 22 CURVE",
"65 -2 LINE",
"78 -7 OFFCURVE",
"94 -10 OFFCURVE",
"110 -10 CURVE SMOOTH"
);
}
);
width = 631;
},
{
anchors = (
{
name = bottom;
position = "{532, 0}";
},
{
name = top;
position = "{522, 536}";
}
);
layerId = "6449CA81-A7C3-4005-93E5-765657812F1B";
paths = (
{
closed = 1;
nodes = (
"157 -6 OFFCURVE",
"195 37 OFFCURVE",
"195 110 CURVE SMOOTH",
"195 357 LINE SMOOTH",
"195 459 OFFCURVE",
"265 485 OFFCURVE",
"326 485 CURVE SMOOTH",
"411 485 OFFCURVE",
"444 434 OFFCURVE",
"444 347 CURVE SMOOTH",
"444 0 LINE",
"532 0 LINE",
"532 353 LINE SMOOTH",
"532 489 OFFCURVE",
"464 558 OFFCURVE",
"343 558 CURVE SMOOTH",
"278 558 OFFCURVE",
"218 538 OFFCURVE",
"172 477 CURVE",
"169 477 LINE",
"157 508 OFFCURVE",
"134 542 OFFCURVE",
"116 558 CURVE",
"52 509 LINE",
"80 482 OFFCURVE",
"107 439 OFFCURVE",
"107 366 CURVE SMOOTH",
"107 106 LINE SMOOTH",
"107 75 OFFCURVE",
"90 64 OFFCURVE",
"67 64 CURVE SMOOTH",
"57 64 OFFCURVE",
"45 66 OFFCURVE",
"33 70 CURVE",
"20 8 LINE",
"44 -1 OFFCURVE",
"70 -6 OFFCURVE",
"92 -6 CURVE SMOOTH"
);
}
);
width = 614;
},
{
anchors = (
{
name = bottom;
position = "{601, 0}";
},
{
name = top;
position = "{591, 536}";
}
);
layerId = "E5D3352E-10FF-4C03-AD9F-F95B1FD01257";
paths = (
{
closed = 1;
nodes = (
"249 -10 OFFCURVE",
"305 43 OFFCURVE",
"305 139 CURVE SMOOTH",
"305 343 LINE SMOOTH",
"305 391 OFFCURVE",
"327 411 OFFCURVE",
"360 411 CURVE SMOOTH",
"395 411 OFFCURVE",
"409 387 OFFCURVE",
"409 341 CURVE SMOOTH",
"409 0 LINE",
"601 0 LINE",
"601 371 LINE SMOOTH",
"601 479 OFFCURVE",
"547 563 OFFCURVE",
"415 563 CURVE SMOOTH",
"336 563 OFFCURVE",
"279 533 OFFCURVE",
"241 488 CURVE",
"238 488 LINE",
"228 515 OFFCURVE",
"208 540 OFFCURVE",
"183 563 CURVE",
"44 459 LINE",
"97 414 OFFCURVE",
"113 379 OFFCURVE",
"113 309 CURVE SMOOTH",
"113 160 LINE SMOOTH",
"113 142 OFFCURVE",
"106 134 OFFCURVE",
"87 134 CURVE SMOOTH",
"74 134 OFFCURVE",
"62 138 OFFCURVE",
"52 142 CURVE",
"25 20 LINE",
"63 0 OFFCURVE",
"120 -10 OFFCURVE",
"159 -10 CURVE SMOOTH"
);
}
);
width = 646;
}
);
note = uni0E81;
unicode = 0E81;
},
{
glyphname = "khoKhai-lao";
lastChange = "2017-01-26 21:57:21 +0000";
layers = (
{
anchors = (
{
name = bottom;
position = "{484, 0}";
},
{
name = top;
position = "{471, 536}";
}
);
layerId = "64BC062E-13E4-450B-B24E-D8A474022433";
paths = (
{
closed = 1;
nodes = (
"275 -10 OFFCURVE",
"318 69 OFFCURVE",
"399 69 CURVE SMOOTH",
"439 69 OFFCURVE",
"459 48 OFFCURVE",
"459 7 CURVE SMOOTH",
"459 0 LINE",
"485 0 LINE",
"485 8 LINE SMOOTH",
"485 71 OFFCURVE",
"442 92 OFFCURVE",
"398 92 CURVE SMOOTH",
"313 92 OFFCURVE",
"263 15 OFFCURVE",
"174 15 CURVE SMOOTH",
"122 15 OFFCURVE",
"93 42 OFFCURVE",
"93 97 CURVE SMOOTH",
"93 179 OFFCURVE",
"158 200 OFFCURVE",
"272 234 CURVE SMOOTH",
"390 269 OFFCURVE",
"478 298 OFFCURVE",
"478 402 CURVE SMOOTH",
"478 487 OFFCURVE",
"418 556 OFFCURVE",
"271 556 CURVE SMOOTH",
"120 556 OFFCURVE",
"65 483 OFFCURVE",
"65 410 CURVE SMOOTH",
"65 393 OFFCURVE",
"68 368 OFFCURVE",
"75 355 CURVE",
"100 365 LINE",
"95 377 OFFCURVE",
"93 396 OFFCURVE",
"93 410 CURVE SMOOTH",
"93 493 OFFCURVE",
"168 531 OFFCURVE",
"272 531 CURVE SMOOTH",
"378 531 OFFCURVE",
"450 491 OFFCURVE",
"450 401 CURVE SMOOTH",
"450 317 OFFCURVE",
"388 297 OFFCURVE",
"265 258 CURVE SMOOTH",
"140 218 OFFCURVE",
"65 194 OFFCURVE",
"65 99 CURVE SMOOTH",
"65 20 OFFCURVE",
"116 -10 OFFCURVE",
"176 -10 CURVE SMOOTH"
);
}
);
width = 544;
},
{
anchors = (
{
name = bottom;
position = "{542, 0}";
},
{
name = top;
position = "{532, 536}";
}
);
layerId = "6449CA81-A7C3-4005-93E5-765657812F1B";
paths = (
{
closed = 1;
nodes = (
"302 -10 OFFCURVE",
"369 59 OFFCURVE",
"421 59 CURVE SMOOTH",
"442 59 OFFCURVE",
"455 48 OFFCURVE",
"455 22 CURVE SMOOTH",
"455 0 LINE",
"542 0 LINE",
"542 24 LINE SMOOTH",
"542 105 OFFCURVE",
"492 132 OFFCURVE",
"440 132 CURVE SMOOTH",
"354 132 OFFCURVE",
"273 60 OFFCURVE",
"209 60 CURVE SMOOTH",
"173 60 OFFCURVE",
"153 83 OFFCURVE",
"153 111 CURVE SMOOTH",
"153 168 OFFCURVE",
"236 189 OFFCURVE",
"315 213 CURVE SMOOTH",
"422 245 OFFCURVE",
"541 281 OFFCURVE",
"541 392 CURVE SMOOTH",
"541 480 OFFCURVE",
"467 558 OFFCURVE",
"306 558 CURVE SMOOTH",
"142 558 OFFCURVE",
"73 477 OFFCURVE",
"73 393 CURVE SMOOTH",
"73 362 OFFCURVE",
"82 331 OFFCURVE",
"104 312 CURVE",
"174 347 LINE",
"164 359 OFFCURVE",
"157 371 OFFCURVE",
"157 392 CURVE SMOOTH",
"157 456 OFFCURVE",
"225 485 OFFCURVE",
"307 485 CURVE SMOOTH",
"388 485 OFFCURVE",
"456 457 OFFCURVE",
"456 393 CURVE SMOOTH",
"456 329 OFFCURVE",
"386 311 OFFCURVE",
"292 284 CURVE SMOOTH",
"186 253 OFFCURVE",
"68 219 OFFCURVE",
"68 109 CURVE SMOOTH",
"68 27 OFFCURVE",
"134 -10 OFFCURVE",
"205 -10 CURVE SMOOTH"
);
}
);
width = 615;
},
{
anchors = (
{
name = bottom;
position = "{555, 0}";
},
{
name = top;
position = "{545, 536}";
}
);
layerId = "E5D3352E-10FF-4C03-AD9F-F95B1FD01257";
paths = (
{
closed = 1;
nodes = (
"277 -10 OFFCURVE",
"336 35 OFFCURVE",
"377 35 CURVE SMOOTH",
"393 35 OFFCURVE",
"398 28 OFFCURVE",
"398 14 CURVE SMOOTH",
"398 0 LINE",
"555 0 LINE",
"555 57 LINE SMOOTH",
"555 139 OFFCURVE",
"528 191 OFFCURVE",
"439 191 CURVE SMOOTH",
"347 191 OFFCURVE",
"266 136 OFFCURVE",
"224 136 CURVE SMOOTH",
"219 136 OFFCURVE",
"213 136 OFFCURVE",
"213 142 CURVE SMOOTH",
"213 158 OFFCURVE",
"267 180 OFFCURVE",
"348 214 CURVE SMOOTH",
"495 276 OFFCURVE",
"555 313 OFFCURVE",
"555 401 CURVE SMOOTH",
"555 494 OFFCURVE",
"488 563 OFFCURVE",
"303 563 CURVE SMOOTH",
"124 563 OFFCURVE",
"35 498 OFFCURVE",
"35 403 CURVE SMOOTH",
"35 349 OFFCURVE",
"64 304 OFFCURVE",
"97 285 CURVE",
"235 355 LINE",
"226 365 OFFCURVE",
"221 375 OFFCURVE",
"221 387 CURVE SMOOTH",
"221 415 OFFCURVE",
"247 431 OFFCURVE",
"299 431 CURVE SMOOTH",
"349 431 OFFCURVE",
"367 416 OFFCURVE",
"367 395 CURVE SMOOTH",
"367 365 OFFCURVE",
"339 360 OFFCURVE",
"220 306 CURVE SMOOTH",
"95 249 OFFCURVE",
"25 210 OFFCURVE",
"25 117 CURVE SMOOTH",
"25 24 OFFCURVE",
"95 -10 OFFCURVE",
"180 -10 CURVE SMOOTH"
);
}
);
width = 595;
}
);
note = uni0E82;
unicode = 0E82;
},
{
glyphname = "khoKhuay-lao";
lastChange = "2017-01-26 21:57:21 +0000";
layers = (
{
anchors = (
{
name = bottom;
position = "{484, 0}";
},
{
name = top;
position = "{474, 536}";
}
);
layerId = "64BC062E-13E4-450B-B24E-D8A474022433";
paths = (
{
closed = 1;
nodes = (
"233 -10 OFFCURVE",
"264 -5 OFFCURVE",
"284 2 CURVE",
"279 27 LINE",
"265 22 OFFCURVE",
"235 15 OFFCURVE",
"209 15 CURVE SMOOTH",
"140 15 OFFCURVE",
"92 52 OFFCURVE",
"92 128 CURVE SMOOTH",
"92 223 OFFCURVE",
"168 253 OFFCURVE",
"228 253 CURVE SMOOTH",
"267 253 LINE",
"267 275 LINE",
"228 275 LINE SMOOTH",
"145 275 OFFCURVE",
"95 322 OFFCURVE",
"95 399 CURVE SMOOTH",
"95 499 OFFCURVE",
"184 531 OFFCURVE",
"273 531 CURVE SMOOTH",
"373 531 OFFCURVE",
"458 494 OFFCURVE",
"458 377 CURVE SMOOTH",
"458 0 LINE",
"484 0 LINE",
"484 371 LINE SMOOTH",
"484 501 OFFCURVE",
"399 556 OFFCURVE",
"272 556 CURVE SMOOTH",
"151 556 OFFCURVE",
"68 502 OFFCURVE",
"68 398 CURVE SMOOTH",
"68 312 OFFCURVE",
"122 281 OFFCURVE",
"156 267 CURVE",
"156 263 LINE",
"124 251 OFFCURVE",
"65 219 OFFCURVE",
"65 129 CURVE SMOOTH",
"65 39 OFFCURVE",
"123 -10 OFFCURVE",
"206 -10 CURVE SMOOTH"
);
}
);
width = 569;
},
{
anchors = (
{
name = bottom;
position = "{532, 0}";
},
{
name = top;
position = "{522, 536}";
}
);
layerId = "6449CA81-A7C3-4005-93E5-765657812F1B";
paths = (
{
closed = 1;
nodes = (
"265 -10 OFFCURVE",
"302 -3 OFFCURVE",
"321 5 CURVE",
"306 74 LINE",
"291 69 OFFCURVE",
"268 63 OFFCURVE",
"244 63 CURVE SMOOTH",
"187 63 OFFCURVE",
"156 97 OFFCURVE",
"156 150 CURVE SMOOTH",
"156 216 OFFCURVE",
"203 240 OFFCURVE",
"275 240 CURVE SMOOTH",
"295 240 LINE",
"295 305 LINE",
"275 305 LINE SMOOTH",
"205 305 OFFCURVE",
"156 335 OFFCURVE",
"156 394 CURVE SMOOTH",
"156 453 OFFCURVE",
"205 485 OFFCURVE",
"299 485 CURVE SMOOTH",
"405 485 OFFCURVE",
"444 444 OFFCURVE",
"444 369 CURVE SMOOTH",
"444 0 LINE",
"532 0 LINE",
"532 361 LINE SMOOTH",
"532 500 OFFCURVE",
"454 558 OFFCURVE",
"305 558 CURVE SMOOTH",
"151 558 OFFCURVE",
"68 496 OFFCURVE",
"68 397 CURVE SMOOTH",
"68 332 OFFCURVE",
"104 292 OFFCURVE",
"162 273 CURVE",
"162 270 LINE",
"98 253 OFFCURVE",
"68 204 OFFCURVE",
"68 142 CURVE SMOOTH",
"68 66 OFFCURVE",
"113 -10 OFFCURVE",
"230 -10 CURVE SMOOTH"
);
}
);
width = 614;
},
{
anchors = (
{
name = bottom;
position = "{560, 0}";
},
{
name = top;
position = "{550, 536}";
}
);
layerId = "E5D3352E-10FF-4C03-AD9F-F95B1FD01257";
paths = (
{
closed = 1;
nodes = (
"254 -10 OFFCURVE",
"297 -3 OFFCURVE",
"332 9 CURVE",
"301 149 LINE",
"289 145 OFFCURVE",
"268 142 OFFCURVE",
"256 142 CURVE SMOOTH",
"231 142 OFFCURVE",
"218 155 OFFCURVE",
"218 177 CURVE SMOOTH",
"218 204 OFFCURVE",
"237 214 OFFCURVE",
"266 214 CURVE SMOOTH",
"308 214 LINE",
"308 333 LINE",
"262 333 LINE SMOOTH",
"234 333 OFFCURVE",
"218 348 OFFCURVE",
"218 369 CURVE SMOOTH",
"218 396 OFFCURVE",
"246 411 OFFCURVE",
"291 411 CURVE SMOOTH",
"344 411 OFFCURVE",
"368 390 OFFCURVE",
"368 354 CURVE SMOOTH",
"368 0 LINE",
"560 0 LINE",
"560 347 LINE SMOOTH",
"560 500 OFFCURVE",
"465 563 OFFCURVE",
"296 563 CURVE SMOOTH",
"122 563 OFFCURVE",
"30 496 OFFCURVE",
"30 397 CURVE SMOOTH",
"30 337 OFFCURVE",
"63 295 OFFCURVE",
"117 275 CURVE",
"117 273 LINE",
"54 246 OFFCURVE",
"30 194 OFFCURVE",
"30 141 CURVE SMOOTH",
"30 64 OFFCURVE",
"81 -10 OFFCURVE",
"213 -10 CURVE SMOOTH"
);
}
);
width = 605;
}
);
note = uni0E84;
unicode = 0E84;
},
{
glyphname = "ngoNgu-lao";
lastChange = "2017-01-26 21:57:21 +0000";
layers = (
{
anchors = (
{
name = bottom;
position = "{283, -147}";
},
{
name = top;
position = "{293, 536}";
}
);
layerId = "64BC062E-13E4-450B-B24E-D8A474022433";
paths = (
{
closed = 1;
nodes = (
"236 -147 OFFCURVE",
"293 -99 OFFCURVE",
"293 8 CURVE SMOOTH",
"293 455 LINE SMOOTH",
"293 523 OFFCURVE",
"259 556 OFFCURVE",
"201 556 CURVE SMOOTH",
"167 556 OFFCURVE",
"135 545 OFFCURVE",
"116 535 CURVE",
"126 512 LINE",
"147 524 OFFCURVE",
"170 531 OFFCURVE",
"199 531 CURVE SMOOTH",
"249 531 OFFCURVE",
"267 506 OFFCURVE",
"267 456 CURVE SMOOTH",
"267 15 LINE SMOOTH",
"267 -76 OFFCURVE",
"235 -122 OFFCURVE",
"139 -122 CURVE SMOOTH",
"104 -122 OFFCURVE",
"60 -116 OFFCURVE",
"25 -102 CURVE",
"25 -128 LINE",
"53 -139 OFFCURVE",
"104 -147 OFFCURVE",
"142 -147 CURVE SMOOTH"
);
}
);
width = 378;
},
{
anchors = (
{
name = bottom;
position = "{277, -174}";
},
{
name = top;
position = "{277, 536}";
}
);
layerId = "6449CA81-A7C3-4005-93E5-765657812F1B";
paths = (
{
closed = 1;
nodes = (
"223 -174 OFFCURVE",
"287 -121 OFFCURVE",
"287 -7 CURVE SMOOTH",
"287 449 LINE SMOOTH",
"287 533 OFFCURVE",
"222 558 OFFCURVE",
"164 558 CURVE SMOOTH",
"127 558 OFFCURVE",
"84 548 OFFCURVE",
"58 534 CURVE",
"77 467 LINE",
"92 476 OFFCURVE",
"122 485 OFFCURVE",
"149 485 CURVE SMOOTH",
"185 485 OFFCURVE",
"199 469 OFFCURVE",
"199 424 CURVE SMOOTH",
"199 0 LINE SMOOTH",
"199 -66 OFFCURVE",
"171 -101 OFFCURVE",
"99 -101 CURVE SMOOTH",
"53 -101 OFFCURVE",
"11 -87 OFFCURVE",
"-28 -66 CURVE",
"-28 -144 LINE",
"0 -157 OFFCURVE",
"51 -174 OFFCURVE",
"113 -174 CURVE SMOOTH"
);
}
);
width = 369;
},
{
anchors = (
{
name = bottom;
position = "{359, -191}";
},
{
name = top;
position = "{359, 536}";
}
);
layerId = "E5D3352E-10FF-4C03-AD9F-F95B1FD01257";
paths = (
{
closed = 1;
nodes = (
"290 -191 OFFCURVE",
"369 -136 OFFCURVE",
"369 -6 CURVE SMOOTH",
"369 411 LINE SMOOTH",
"369 514 OFFCURVE",
"321 563 OFFCURVE",
"222 563 CURVE SMOOTH",
"158 563 OFFCURVE",
"96 542 OFFCURVE",
"48 518 CURVE",
"81 392 LINE",
"101 403 OFFCURVE",
"125 411 OFFCURVE",
"145 411 CURVE SMOOTH",
"170 411 OFFCURVE",
"177 399 OFFCURVE",
"177 385 CURVE SMOOTH",
"177 -3 LINE SMOOTH",
"177 -33 OFFCURVE",
"163 -48 OFFCURVE",
"118 -48 CURVE SMOOTH",
"78 -48 OFFCURVE",
"34 -36 OFFCURVE",
"-15 -16 CURVE",
"-15 -156 LINE",
"39 -179 OFFCURVE",
"99 -191 OFFCURVE",
"160 -191 CURVE SMOOTH"
);
}
);
width = 414;
}
);
note = uni0E87;
unicode = 0E87;
},
{
glyphname = "coCok-lao";
lastChange = "2017-01-26 21:57:21 +0000";
layers = (
{
anchors = (
{
name = bottom;
position = "{450, 0}";
},
{
name = top;
position = "{450, 536}";
}
);
layerId = "64BC062E-13E4-450B-B24E-D8A474022433";
paths = (
{
closed = 1;
nodes = (
"259 0 LINE SMOOTH",
"425 4 OFFCURVE",
"480 91 OFFCURVE",
"480 267 CURVE SMOOTH",
"480 465 OFFCURVE",
"411 556 OFFCURVE",
"238 556 CURVE SMOOTH",
"168 556 OFFCURVE",
"105 541 OFFCURVE",
"65 523 CURVE",
"65 497 LINE",
"114 518 OFFCURVE",
"171 531 OFFCURVE",
"237 531 CURVE SMOOTH",
"397 531 OFFCURVE",
"453 453 OFFCURVE",
"453 272 CURVE SMOOTH",
"453 91 OFFCURVE",
"397 22 OFFCURVE",
"249 22 CURVE",
"216 229 LINE SMOOTH",
"208 280 OFFCURVE",
"182 304 OFFCURVE",
"139 304 CURVE SMOOTH",
"119 304 OFFCURVE",
"100 299 OFFCURVE",
"89 294 CURVE",
"93 272 LINE",
"103 276 OFFCURVE",
"120 279 OFFCURVE",
"137 279 CURVE SMOOTH",
"174 279 OFFCURVE",
"185 261 OFFCURVE",
"192 219 CURVE SMOOTH",
"227 -1 LINE"
);
}
);
width = 545;
},
{
anchors = (
{
name = bottom;
position = "{471, 0}";
},
{
name = top;
position = "{471, 536}";
}
);
layerId = "6449CA81-A7C3-4005-93E5-765657812F1B";
paths = (
{
closed = 1;
nodes = (
"254 0 LINE SMOOTH",
"429 0 OFFCURVE",
"491 103 OFFCURVE",
"491 273 CURVE SMOOTH",
"491 458 OFFCURVE",
"418 558 OFFCURVE",
"238 558 CURVE SMOOTH",
"155 558 OFFCURVE",
"85 537 OFFCURVE",
"47 517 CURVE",
"47 439 LINE",
"102 471 OFFCURVE",
"164 485 OFFCURVE",
"226 485 CURVE SMOOTH",
"352 485 OFFCURVE",
"403 427 OFFCURVE",
"403 275 CURVE SMOOTH",
"403 131 OFFCURVE",
"357 73 OFFCURVE",
"269 73 CURVE",
"246 220 LINE SMOOTH",
"233 304 OFFCURVE",
"195 325 OFFCURVE",
"141 325 CURVE SMOOTH",
"118 325 OFFCURVE",
"92 321 OFFCURVE",
"68 311 CURVE",
"82 247 LINE",
"92 250 OFFCURVE",
"106 252 OFFCURVE",
"118 252 CURVE SMOOTH",
"145 252 OFFCURVE",
"160 242 OFFCURVE",
"165 210 CURVE SMOOTH",
"198 0 LINE"
);
}
);
width = 563;
},
{
anchors = (
{
name = bottom;
position = "{522, 0}";
},
{
name = top;
position = "{522, 536}";
}
);
layerId = "E5D3352E-10FF-4C03-AD9F-F95B1FD01257";
paths = (
{
closed = 1;
nodes = (
"263 0 LINE SMOOTH",
"444 0 OFFCURVE",
"538 94 OFFCURVE",
"538 279 CURVE SMOOTH",
"538 465 OFFCURVE",
"443 563 OFFCURVE",
"250 563 CURVE SMOOTH",
"174 563 OFFCURVE",
"89 548 OFFCURVE",
"25 513 CURVE",
"25 360 LINE",
"90 394 OFFCURVE",
"163 411 OFFCURVE",
"218 411 CURVE SMOOTH",
"304 411 OFFCURVE",
"346 369 OFFCURVE",
"346 278 CURVE SMOOTH",
"346 229 OFFCURVE",
"334 184 OFFCURVE",
"311 151 CURVE",
"299 210 LINE SMOOTH",
"282 293 OFFCURVE",
"239 337 OFFCURVE",
"162 337 CURVE SMOOTH",
"124 337 OFFCURVE",
"77 326 OFFCURVE",
"39 302 CURVE",
"65 179 LINE",
"77 184 OFFCURVE",
"91 186 OFFCURVE",
"100 186 CURVE SMOOTH",
"119 186 OFFCURVE",
"132 177 OFFCURVE",
"137 150 CURVE SMOOTH",
"164 0 LINE"
);
}
);
width = 577;
}
);
note = uni0E88;
unicode = 0E88;
},
{
glyphname = "soSang-lao";
lastChange = "2017-01-26 21:57:21 +0000";
layers = (
{
anchors = (
{
name = bottom;
position = "{479, -147}";
},
{
name = top;
position = "{471, 536}";
}
);
layerId = "64BC062E-13E4-450B-B24E-D8A474022433";
paths = (
{
closed = 1;
nodes = (
"479 -147 LINE",
"479 22 LINE SMOOTH",
"479 72 OFFCURVE",
"452 92 OFFCURVE",
"411 92 CURVE SMOOTH",
"331 92 OFFCURVE",
"262 15 OFFCURVE",
"174 15 CURVE SMOOTH",
"122 15 OFFCURVE",
"93 42 OFFCURVE",
"93 97 CURVE SMOOTH",
"93 179 OFFCURVE",
"158 199 OFFCURVE",
"272 233 CURVE SMOOTH",
"390 268 OFFCURVE",
"478 298 OFFCURVE",
"478 402 CURVE SMOOTH",
"478 487 OFFCURVE",
"418 556 OFFCURVE",
"271 556 CURVE SMOOTH",
"120 556 OFFCURVE",
"65 483 OFFCURVE",
"65 410 CURVE SMOOTH",
"65 393 OFFCURVE",
"68 368 OFFCURVE",
"75 355 CURVE",
"100 365 LINE",
"95 377 OFFCURVE",
"93 396 OFFCURVE",
"93 410 CURVE SMOOTH",
"93 493 OFFCURVE",
"168 531 OFFCURVE",
"272 531 CURVE SMOOTH",
"378 531 OFFCURVE",
"450 491 OFFCURVE",
"450 401 CURVE SMOOTH",
"450 317 OFFCURVE",
"388 296 OFFCURVE",
"265 257 CURVE SMOOTH",
"140 217 OFFCURVE",
"65 194 OFFCURVE",
"65 99 CURVE SMOOTH",
"65 20 OFFCURVE",
"116 -10 OFFCURVE",
"176 -10 CURVE SMOOTH",
"271 -10 OFFCURVE",
"337 67 OFFCURVE",
"411 67 CURVE SMOOTH",
"443 67 OFFCURVE",
"453 53 OFFCURVE",
"453 21 CURVE SMOOTH",
"453 -147 LINE"
);
}
);
width = 544;
},
{
anchors = (
{
name = bottom;
position = "{542, -174}";
},
{
name = top;
position = "{523, 536}";
}
);
layerId = "6449CA81-A7C3-4005-93E5-765657812F1B";
paths = (
{
closed = 1;
nodes = (
"542 -174 LINE",
"542 24 LINE SMOOTH",
"542 105 OFFCURVE",
"492 132 OFFCURVE",
"440 132 CURVE SMOOTH",
"354 132 OFFCURVE",
"273 60 OFFCURVE",
"209 60 CURVE SMOOTH",
"173 60 OFFCURVE",
"153 83 OFFCURVE",
"153 111 CURVE SMOOTH",
"153 168 OFFCURVE",
"236 189 OFFCURVE",
"315 213 CURVE SMOOTH",
"422 245 OFFCURVE",
"541 281 OFFCURVE",
"541 392 CURVE SMOOTH",
"541 480 OFFCURVE",
"467 558 OFFCURVE",
"306 558 CURVE SMOOTH",
"142 558 OFFCURVE",
"73 477 OFFCURVE",
"73 393 CURVE SMOOTH",
"73 362 OFFCURVE",
"82 331 OFFCURVE",
"104 312 CURVE",
"174 347 LINE",
"164 359 OFFCURVE",
"157 371 OFFCURVE",
"157 392 CURVE SMOOTH",
"157 456 OFFCURVE",
"225 485 OFFCURVE",
"307 485 CURVE SMOOTH",
"388 485 OFFCURVE",
"456 457 OFFCURVE",
"456 393 CURVE SMOOTH",
"456 329 OFFCURVE",
"386 311 OFFCURVE",
"292 284 CURVE SMOOTH",
"186 253 OFFCURVE",
"68 219 OFFCURVE",
"68 109 CURVE SMOOTH",
"68 27 OFFCURVE",
"134 -10 OFFCURVE",
"205 -10 CURVE SMOOTH",
"302 -10 OFFCURVE",
"369 59 OFFCURVE",
"421 59 CURVE SMOOTH",
"442 59 OFFCURVE",
"455 48 OFFCURVE",
"455 22 CURVE SMOOTH",
"455 -174 LINE"
);
}
);
width = 615;
},
{
anchors = (
{
name = bottom;
position = "{555, -191}";
},
{
name = top;
position = "{545, 536}";
}
);
layerId = "E5D3352E-10FF-4C03-AD9F-F95B1FD01257";
paths = (
{
closed = 1;
nodes = (
"555 -191 LINE",
"555 57 LINE SMOOTH",
"555 139 OFFCURVE",
"528 191 OFFCURVE",
"439 191 CURVE SMOOTH",
"347 191 OFFCURVE",
"266 136 OFFCURVE",
"224 136 CURVE SMOOTH",
"219 136 OFFCURVE",
"213 136 OFFCURVE",
"213 142 CURVE SMOOTH",
"213 158 OFFCURVE",
"267 179 OFFCURVE",
"348 213 CURVE SMOOTH",
"495 275 OFFCURVE",
"555 313 OFFCURVE",
"555 401 CURVE SMOOTH",
"555 494 OFFCURVE",
"488 563 OFFCURVE",
"303 563 CURVE SMOOTH",
"124 563 OFFCURVE",
"35 498 OFFCURVE",
"35 403 CURVE SMOOTH",
"35 349 OFFCURVE",
"64 304 OFFCURVE",
"97 285 CURVE",
"235 355 LINE",
"226 365 OFFCURVE",
"221 375 OFFCURVE",
"221 387 CURVE SMOOTH",
"221 415 OFFCURVE",
"247 431 OFFCURVE",
"299 431 CURVE SMOOTH",
"349 431 OFFCURVE",
"367 416 OFFCURVE",
"367 395 CURVE SMOOTH",
"367 369 OFFCURVE",
"339 361 OFFCURVE",
"220 307 CURVE SMOOTH",
"95 250 OFFCURVE",
"25 210 OFFCURVE",
"25 117 CURVE SMOOTH",
"25 24 OFFCURVE",
"95 -10 OFFCURVE",
"180 -10 CURVE SMOOTH",
"276 -10 OFFCURVE",
"338 33 OFFCURVE",
"376 33 CURVE SMOOTH",
"391 33 OFFCURVE",
"398 26 OFFCURVE",
"398 12 CURVE SMOOTH",
"398 -191 LINE"
);
}
);
width = 595;
}
);
note = uni0E8A;
unicode = 0E8A;
},
{
glyphname = "nyoNyung-lao";
lastChange = "2017-01-26 21:57:21 +0000";
layers = (
{
anchors = (
{
name = bottom;
position = "{466, 0}";
},
{
name = top;
position = "{476, 536}";
}
);
layerId = "64BC062E-13E4-450B-B24E-D8A474022433";
paths = (
{
closed = 1;
nodes = (
"390 -10 OFFCURVE",
"476 45 OFFCURVE",
"476 175 CURVE SMOOTH",
"476 548 LINE",
"450 548 LINE",
"450 169 LINE SMOOTH",
"450 52 OFFCURVE",
"364 15 OFFCURVE",
"272 15 CURVE SMOOTH",
"178 15 OFFCURVE",
"95 53 OFFCURVE",
"95 154 CURVE SMOOTH",
"95 234 OFFCURVE",
"146 279 OFFCURVE",
"228 279 CURVE SMOOTH",
"267 279 LINE",
"267 301 LINE",
"228 301 LINE SMOOTH",
"167 301 OFFCURVE",
"92 332 OFFCURVE",
"92 423 CURVE SMOOTH",
"92 495 OFFCURVE",
"140 531 OFFCURVE",
"209 531 CURVE SMOOTH",
"235 531 OFFCURVE",
"265 523 OFFCURVE",
"279 520 CURVE",
"284 544 LINE",
"264 551 OFFCURVE",
"233 556 OFFCURVE",
"206 556 CURVE SMOOTH",
"123 556 OFFCURVE",
"65 508 OFFCURVE",
"65 422 CURVE SMOOTH",
"65 338 OFFCURVE",
"120 305 OFFCURVE",
"156 291 CURVE",
"156 287 LINE",
"122 273 OFFCURVE",
"68 243 OFFCURVE",
"68 155 CURVE SMOOTH",
"68 50 OFFCURVE",
"145 -10 OFFCURVE",
"270 -10 CURVE SMOOTH"
);
}
);
width = 561;
},
{
anchors = (
{
name = bottom;
position = "{522, 0}";
},
{
name = top;
position = "{532, 536}";
}
);
layerId = "6449CA81-A7C3-4005-93E5-765657812F1B";
paths = (
{
closed = 1;
nodes = (
"452 -10 OFFCURVE",
"532 50 OFFCURVE",
"532 189 CURVE SMOOTH",
"532 548 LINE",
"444 548 LINE",
"444 179 LINE SMOOTH",
"444 97 OFFCURVE",
"401 63 OFFCURVE",
"303 63 CURVE SMOOTH",
"199 63 OFFCURVE",
"156 102 OFFCURVE",
"156 169 CURVE SMOOTH",
"156 234 OFFCURVE",
"197 263 OFFCURVE",
"275 263 CURVE SMOOTH",
"324 263 LINE",
"324 328 LINE",
"275 328 LINE SMOOTH",
"217 328 OFFCURVE",
"156 344 OFFCURVE",
"156 411 CURVE SMOOTH",
"156 458 OFFCURVE",
"185 485 OFFCURVE",
"240 485 CURVE SMOOTH",
"266 485 OFFCURVE",
"291 479 OFFCURVE",
"306 474 CURVE",
"321 542 LINE",
"301 551 OFFCURVE",
"265 558 OFFCURVE",
"228 558 CURVE SMOOTH",
"113 558 OFFCURVE",
"68 490 OFFCURVE",
"68 420 CURVE SMOOTH",
"68 344 OFFCURVE",
"121 308 OFFCURVE",
"162 296 CURVE",
"162 292 LINE",
"116 285 OFFCURVE",
"68 248 OFFCURVE",
"68 163 CURVE SMOOTH",
"68 54 OFFCURVE",
"147 -10 OFFCURVE",
"302 -10 CURVE SMOOTH"
);
}
);
width = 614;
},
{
anchors = (
{
name = bottom;
position = "{545, 0}";
},
{
name = top;
position = "{555, 536}";
}
);
layerId = "E5D3352E-10FF-4C03-AD9F-F95B1FD01257";
paths = (
{
closed = 1;
nodes = (
"461 -10 OFFCURVE",
"555 57 OFFCURVE",
"555 206 CURVE SMOOTH",
"555 553 LINE",
"363 553 LINE",
"363 199 LINE SMOOTH",
"363 163 OFFCURVE",
"339 142 OFFCURVE",
"286 142 CURVE SMOOTH",
"241 142 OFFCURVE",
"215 157 OFFCURVE",
"215 184 CURVE SMOOTH",
"215 205 OFFCURVE",
"231 220 OFFCURVE",
"259 220 CURVE SMOOTH",
"326 220 LINE",
"326 339 LINE",
"263 339 LINE SMOOTH",
"234 339 OFFCURVE",
"215 349 OFFCURVE",
"215 376 CURVE SMOOTH",
"215 398 OFFCURVE",
"227 411 OFFCURVE",
"251 411 CURVE SMOOTH",
"263 411 OFFCURVE",
"279 408 OFFCURVE",
"291 404 CURVE",
"322 544 LINE",
"287 556 OFFCURVE",
"250 563 OFFCURVE",
"209 563 CURVE SMOOTH",
"76 563 OFFCURVE",
"25 490 OFFCURVE",
"25 411 CURVE SMOOTH",
"25 351 OFFCURVE",
"55 304 OFFCURVE",
"112 280 CURVE",
"112 278 LINE",
"57 258 OFFCURVE",
"25 213 OFFCURVE",
"25 153 CURVE SMOOTH",
"25 52 OFFCURVE",
"116 -10 OFFCURVE",
"285 -10 CURVE SMOOTH"
);
}
);
width = 600;
}
);
note = uni0E8D;
unicode = 0E8D;
},
{
glyphname = "doDek-lao";
lastChange = "2017-01-26 21:57:21 +0000";
layers = (
{
anchors = (
{
name = bottom;
position = "{507, 0}";
},
{
name = top;
position = "{497, 536}";
}
);
layerId = "64BC062E-13E4-450B-B24E-D8A474022433";
paths = (
{
closed = 1;
nodes = (
"282 -10 OFFCURVE",
"301 -7 OFFCURVE",
"316 -1 CURVE",
"310 22 LINE",
"300 18 OFFCURVE",
"282 15 OFFCURVE",
"260 15 CURVE SMOOTH",
"125 15 OFFCURVE",
"93 127 OFFCURVE",
"93 268 CURVE SMOOTH",
"93 457 OFFCURVE",
"150 531 OFFCURVE",
"296 531 CURVE SMOOTH",
"426 531 OFFCURVE",
"481 472 OFFCURVE",
"481 379 CURVE SMOOTH",
"481 0 LINE",
"507 0 LINE",
"507 382 LINE SMOOTH",
"507 498 OFFCURVE",
"428 556 OFFCURVE",
"296 556 CURVE SMOOTH",
"135 556 OFFCURVE",
"65 470 OFFCURVE",
"65 267 CURVE SMOOTH",
"65 92 OFFCURVE",
"117 -10 OFFCURVE",
"258 -10 CURVE SMOOTH"
);
}
);
width = 592;
},
{
anchors = (
{
name = bottom;
position = "{557, 0}";
},
{
name = top;
position = "{547, 536}";
}
);
layerId = "6449CA81-A7C3-4005-93E5-765657812F1B";
paths = (
{
closed = 1;
nodes = (
"300 -10 OFFCURVE",
"327 -6 OFFCURVE",
"348 2 CURVE",
"337 68 LINE",
"321 63 OFFCURVE",
"304 60 OFFCURVE",
"285 60 CURVE SMOOTH",
"193 60 OFFCURVE",
"151 128 OFFCURVE",
"151 263 CURVE SMOOTH",
"151 411 OFFCURVE",
"201 485 OFFCURVE",
"322 485 CURVE SMOOTH",
"422 485 OFFCURVE",
"469 434 OFFCURVE",
"469 347 CURVE SMOOTH",
"469 0 LINE",
"557 0 LINE",
"557 349 LINE SMOOTH",
"557 485 OFFCURVE",
"465 558 OFFCURVE",
"322 558 CURVE SMOOTH",
"164 558 OFFCURVE",
"63 468 OFFCURVE",
"63 262 CURVE SMOOTH",
"63 100 OFFCURVE",
"125 -10 OFFCURVE",
"272 -10 CURVE SMOOTH"
);
}
);
width = 639;
},
{
anchors = (
{
name = bottom;
position = "{573, 0}";
},
{
name = top;
position = "{563, 536}";
}
);
layerId = "E5D3352E-10FF-4C03-AD9F-F95B1FD01257";
paths = (
{
closed = 1;
nodes = (
"280 -10 OFFCURVE",
"314 -4 OFFCURVE",
"347 9 CURVE",
"324 146 LINE",
"310 141 OFFCURVE",
"292 139 OFFCURVE",
"282 139 CURVE SMOOTH",
"240 139 OFFCURVE",
"217 174 OFFCURVE",
"217 265 CURVE SMOOTH",
"217 388 OFFCURVE",
"259 411 OFFCURVE",
"306 411 CURVE SMOOTH",
"359 411 OFFCURVE",
"381 382 OFFCURVE",
"381 334 CURVE SMOOTH",
"381 0 LINE",
"573 0 LINE",
"573 335 LINE SMOOTH",
"573 484 OFFCURVE",
"480 563 OFFCURVE",
"309 563 CURVE SMOOTH",
"145 563 OFFCURVE",
"25 489 OFFCURVE",
"25 262 CURVE SMOOTH",
"25 108 OFFCURVE",
"80 -10 OFFCURVE",
"243 -10 CURVE SMOOTH"
);
}
);
width = 618;
}
);
note = uni0E94;
unicode = 0E94;
},
{
glyphname = "toTa-lao";
lastChange = "2017-01-26 21:57:21 +0000";
layers = (
{
anchors = (
{
name = bottom;
position = "{521, 0}";
},
{
name = top;
position = "{511, 536}";
}
);
layerId = "64BC062E-13E4-450B-B24E-D8A474022433";
paths = (
{
closed = 1;
nodes = (
"289 -10 OFFCURVE",
"313 -5 OFFCURVE",
"326 1 CURVE",
"322 23 LINE",
"307 19 OFFCURVE",
"289 15 OFFCURVE",
"262 15 CURVE SMOOTH",
"130 15 OFFCURVE",
"91 107 OFFCURVE",
"91 282 CURVE SMOOTH",
"91 461 OFFCURVE",
"132 533 OFFCURVE",
"208 533 CURVE SMOOTH",
"253 533 OFFCURVE",
"285 508 OFFCURVE",
"293 460 CURVE",
"315 460 LINE",
"326 504 OFFCURVE",
"347 533 OFFCURVE",
"404 533 CURVE SMOOTH",
"464 533 OFFCURVE",
"495 501 OFFCURVE",
"495 429 CURVE SMOOTH",
"495 0 LINE",
"521 0 LINE",
"521 427 LINE SMOOTH",
"521 511 OFFCURVE",
"483 556 OFFCURVE",
"409 556 CURVE SMOOTH",
"348 556 OFFCURVE",
"318 526 OFFCURVE",
"305 492 CURVE",
"303 492 LINE",
"292 528 OFFCURVE",
"261 556 OFFCURVE",
"206 556 CURVE SMOOTH",
"124 556 OFFCURVE",
"65 492 OFFCURVE",
"65 282 CURVE SMOOTH",
"65 96 OFFCURVE",
"111 -10 OFFCURVE",
"257 -10 CURVE SMOOTH"
);
}
);
width = 606;
},
{
anchors = (
{
name = bottom;
position = "{567, 0}";
},
{
name = top;
position = "{557, 536}";
}
);
layerId = "6449CA81-A7C3-4005-93E5-765657812F1B";
paths = (
{
closed = 1;
nodes = (
"300 -10 OFFCURVE",
"327 -6 OFFCURVE",
"348 2 CURVE",
"337 68 LINE",
"321 63 OFFCURVE",
"304 60 OFFCURVE",
"285 60 CURVE SMOOTH",
"191 60 OFFCURVE",
"151 133 OFFCURVE",
"151 275 CURVE SMOOTH",
"151 421 OFFCURVE",
"193 485 OFFCURVE",
"243 485 CURVE SMOOTH",
"278 485 OFFCURVE",
"295 453 OFFCURVE",
"300 407 CURVE",
"358 407 LINE",
"363 450 OFFCURVE",
"382 485 OFFCURVE",
"421 485 CURVE SMOOTH",
"462 485 OFFCURVE",
"479 446 OFFCURVE",
"479 383 CURVE SMOOTH",
"479 0 LINE",
"567 0 LINE",
"567 390 LINE SMOOTH",
"567 494 OFFCURVE",
"523 558 OFFCURVE",
"438 558 CURVE SMOOTH",
"381 558 OFFCURVE",
"346 530 OFFCURVE",
"331 491 CURVE",
"327 491 LINE",
"313 528 OFFCURVE",
"286 558 OFFCURVE",
"230 558 CURVE SMOOTH",
"137 558 OFFCURVE",
"63 476 OFFCURVE",
"63 279 CURVE SMOOTH",
"63 99 OFFCURVE",
"125 -10 OFFCURVE",
"272 -10 CURVE SMOOTH"
);
}
);
width = 650;
},
{
anchors = (
{
name = bottom;
position = "{592, 0}";
},
{
name = top;
position = "{582, 536}";
}
);
layerId = "E5D3352E-10FF-4C03-AD9F-F95B1FD01257";
paths = (
{
closed = 1;
nodes = (
"281 -10 OFFCURVE",
"314 -4 OFFCURVE",
"347 9 CURVE",
"324 146 LINE",
"310 141 OFFCURVE",
"293 139 OFFCURVE",
"281 139 CURVE SMOOTH",
"235 139 OFFCURVE",
"217 166 OFFCURVE",
"217 282 CURVE SMOOTH",
"217 373 OFFCURVE",
"228 411 OFFCURVE",
"256 411 CURVE SMOOTH",
"271 411 OFFCURVE",
"282 399 OFFCURVE",
"284 373 CURVE",
"349 373 LINE",
"352 399 OFFCURVE",
"361 411 OFFCURVE",
"377 411 CURVE SMOOTH",
"393 411 OFFCURVE",
"400 400 OFFCURVE",
"400 372 CURVE SMOOTH",
"400 0 LINE",
"592 0 LINE",
"592 382 LINE SMOOTH",
"592 494 OFFCURVE",
"553 563 OFFCURVE",
"447 563 CURVE SMOOTH",
"395 563 OFFCURVE",
"345 546 OFFCURVE",
"318 510 CURVE",
"316 510 LINE",
"298 546 OFFCURVE",
"252 563 OFFCURVE",
"207 563 CURVE SMOOTH",
"100 563 OFFCURVE",
"25 467 OFFCURVE",
"25 267 CURVE SMOOTH",
"25 98 OFFCURVE",
"79 -10 OFFCURVE",
"243 -10 CURVE SMOOTH"
);
}
);
width = 637;
}
);
note = uni0E95;
unicode = 0E95;
},
{
glyphname = "thoThong-lao";
lastChange = "2017-01-26 21:57:21 +0000";
layers = (
{
anchors = (
{
name = bottom;
position = "{502, -147}";
},
{
name = top;
position = "{492, 536}";
}
);
layerId = "64BC062E-13E4-450B-B24E-D8A474022433";
paths = (
{
closed = 1;
nodes = (
"502 -147 LINE",
"502 365 LINE SMOOTH",
"502 498 OFFCURVE",
"440 556 OFFCURVE",
"339 556 CURVE SMOOTH",
"233 556 OFFCURVE",
"167 492 OFFCURVE",
"135 427 CURVE",
"134 427 LINE",
"124 480 OFFCURVE",
"110 519 OFFCURVE",
"85 556 CURVE",
"65 543 LINE",
"91 505 OFFCURVE",
"113 449 OFFCURVE",
"113 391 CURVE SMOOTH",
"113 89 LINE SMOOTH",
"113 19 OFFCURVE",
"141 -10 OFFCURVE",
"190 -10 CURVE SMOOTH",
"206 -10 OFFCURVE",
"222 -7 OFFCURVE",
"235 -2 CURVE",
"230 22 LINE",
"217 18 OFFCURVE",
"207 15 OFFCURVE",
"192 15 CURVE SMOOTH",
"157 15 OFFCURVE",
"139 30 OFFCURVE",
"139 85 CURVE SMOOTH",
"139 359 LINE SMOOTH",
"139 425 OFFCURVE",
"213 531 OFFCURVE",
"342 531 CURVE SMOOTH",
"450 531 OFFCURVE",
"476 456 OFFCURVE",
"476 366 CURVE SMOOTH",
"476 -147 LINE"
);
}
);
width = 587;
},
{
anchors = (
{
name = bottom;
position = "{537, -174}";
},
{
name = top;
position = "{527, 536}";
}
);
layerId = "6449CA81-A7C3-4005-93E5-765657812F1B";
paths = (
{
closed = 1;
nodes = (
"537 -174 LINE",
"537 353 LINE SMOOTH",
"537 489 OFFCURVE",
"461 558 OFFCURVE",
"341 558 CURVE SMOOTH",
"281 558 OFFCURVE",
"220 541 OFFCURVE",
"172 477 CURVE",
"169 477 LINE",
"157 508 OFFCURVE",
"134 542 OFFCURVE",
"116 558 CURVE",
"52 509 LINE",
"80 482 OFFCURVE",
"107 439 OFFCURVE",
"107 366 CURVE SMOOTH",
"107 106 LINE SMOOTH",
"107 32 OFFCURVE",
"146 -10 OFFCURVE",
"212 -10 CURVE SMOOTH",
"235 -10 OFFCURVE",
"260 -5 OFFCURVE",
"283 4 CURVE",
"270 66 LINE",
"258 62 OFFCURVE",
"246 60 OFFCURVE",
"235 60 CURVE SMOOTH",
"207 60 OFFCURVE",
"195 73 OFFCURVE",
"195 102 CURVE SMOOTH",
"195 357 LINE SMOOTH",
"195 459 OFFCURVE",
"262 485 OFFCURVE",
"322 485 CURVE SMOOTH",
"407 485 OFFCURVE",
"449 434 OFFCURVE",
"449 347 CURVE SMOOTH",
"449 -174 LINE"
);
}
);
width = 619;
},
{
anchors = (
{
name = bottom;
position = "{580, -191}";
},
{
name = top;
position = "{570, 536}";
}
);
layerId = "E5D3352E-10FF-4C03-AD9F-F95B1FD01257";
paths = (
{
closed = 1;
nodes = (
"580 -191 LINE",
"580 371 LINE SMOOTH",
"580 478 OFFCURVE",
"517 563 OFFCURVE",
"385 563 CURVE SMOOTH",
"306 563 OFFCURVE",
"240 533 OFFCURVE",
"202 488 CURVE",
"199 488 LINE",
"189 515 OFFCURVE",
"169 540 OFFCURVE",
"144 563 CURVE",
"5 459 LINE",
"58 414 OFFCURVE",
"74 379 OFFCURVE",
"74 309 CURVE SMOOTH",
"74 139 LINE SMOOTH",
"74 43 OFFCURVE",
"125 -10 OFFCURVE",
"216 -10 CURVE SMOOTH",
"259 -10 OFFCURVE",
"317 2 OFFCURVE",
"355 19 CURVE",
"328 141 LINE",
"318 137 OFFCURVE",
"307 134 OFFCURVE",
"296 134 CURVE SMOOTH",
"274 134 OFFCURVE",
"266 145 OFFCURVE",
"266 164 CURVE SMOOTH",
"266 343 LINE SMOOTH",
"266 391 OFFCURVE",
"297 411 OFFCURVE",
"330 411 CURVE SMOOTH",
"365 411 OFFCURVE",
"388 389 OFFCURVE",
"388 343 CURVE SMOOTH",
"388 -191 LINE"
);
}
);
width = 625;
}
);
note = uni0E96;
unicode = 0E96;
},
{
glyphname = "thoThung-lao";
lastChange = "2017-01-26 21:57:21 +0000";
layers = (
{
anchors = (
{
name = bottom;
position = "{589, 0}";
},
{
name = top;
position = "{579, 536}";
}
);
layerId = "64BC062E-13E4-450B-B24E-D8A474022433";
paths = (
{
closed = 1;
nodes = (
"310 -10 OFFCURVE",
"350 53 OFFCURVE",
"350 142 CURVE SMOOTH",
"350 402 LINE SMOOTH",
"350 489 OFFCURVE",
"384 534 OFFCURVE",
"457 534 CURVE SMOOTH",
"530 534 OFFCURVE",
"563 489 OFFCURVE",
"563 403 CURVE SMOOTH",
"563 0 LINE",
"589 0 LINE",
"589 404 LINE SMOOTH",
"589 493 OFFCURVE",
"550 556 OFFCURVE",
"457 556 CURVE SMOOTH",
"364 556 OFFCURVE",
"324 493 OFFCURVE",
"324 404 CURVE SMOOTH",
"324 143 LINE SMOOTH",
"324 57 OFFCURVE",
"290 12 OFFCURVE",
"217 12 CURVE SMOOTH",
"144 12 OFFCURVE",
"111 57 OFFCURVE",
"111 143 CURVE SMOOTH",
"111 548 LINE",
"85 548 LINE",
"85 142 LINE SMOOTH",
"85 53 OFFCURVE",
"124 -10 OFFCURVE",
"217 -10 CURVE SMOOTH"
);
}
);
width = 674;
},
{
anchors = (
{
name = bottom;
position = "{644, 0}";
},
{
name = top;
position = "{634, 536}";
}
);
layerId = "6449CA81-A7C3-4005-93E5-765657812F1B";
paths = (
{
closed = 1;
nodes = (
"360 -10 OFFCURVE",
"404 63 OFFCURVE",
"404 168 CURVE SMOOTH",
"404 383 LINE SMOOTH",
"404 447 OFFCURVE",
"422 485 OFFCURVE",
"480 485 CURVE SMOOTH",
"537 485 OFFCURVE",
"556 447 OFFCURVE",
"556 383 CURVE SMOOTH",
"556 0 LINE",
"644 0 LINE",
"644 380 LINE SMOOTH",
"644 485 OFFCURVE",
"599 558 OFFCURVE",
"480 558 CURVE SMOOTH",
"361 558 OFFCURVE",
"318 485 OFFCURVE",
"318 380 CURVE SMOOTH",
"318 165 LINE SMOOTH",
"318 101 OFFCURVE",
"299 63 OFFCURVE",
"242 63 CURVE SMOOTH",
"184 63 OFFCURVE",
"166 101 OFFCURVE",
"166 165 CURVE SMOOTH",
"166 548 LINE",
"78 548 LINE",
"78 168 LINE SMOOTH",
"78 63 OFFCURVE",
"123 -10 OFFCURVE",
"242 -10 CURVE SMOOTH"
);
}
);
width = 726;
},
{
anchors = (
{
name = bottom;
position = "{678, 0}";
},
{
name = top;
position = "{668, 536}";
}
);
layerId = "E5D3352E-10FF-4C03-AD9F-F95B1FD01257";
paths = (
{
closed = 1;
nodes = (
"397 -10 OFFCURVE",
"444 67 OFFCURVE",
"444 181 CURVE SMOOTH",
"444 387 LINE SMOOTH",
"444 407 OFFCURVE",
"457 416 OFFCURVE",
"469 416 CURVE SMOOTH",
"481 416 OFFCURVE",
"494 407 OFFCURVE",
"494 387 CURVE SMOOTH",
"494 0 LINE",
"678 0 LINE",
"678 372 LINE SMOOTH",
"678 486 OFFCURVE",
"617 563 OFFCURVE",
"471 563 CURVE SMOOTH",
"325 563 OFFCURVE",
"279 486 OFFCURVE",
"279 372 CURVE SMOOTH",
"279 166 LINE SMOOTH",
"279 146 OFFCURVE",
"266 137 OFFCURVE",
"254 137 CURVE SMOOTH",
"242 137 OFFCURVE",
"229 146 OFFCURVE",
"229 166 CURVE SMOOTH",
"229 553 LINE",
"45 553 LINE",
"45 181 LINE SMOOTH",
"45 67 OFFCURVE",
"106 -10 OFFCURVE",
"251 -10 CURVE SMOOTH"
);
}
);
width = 723;
}
);
note = uni0E97;
unicode = 0E97;
},
{
glyphname = "noNok-lao";
lastChange = "2017-01-26 21:57:21 +0000";
layers = (
{
anchors = (
{
name = bottom;
position = "{499, 0}";
},
{
name = top;
position = "{509, 536}";
}
);
layerId = "64BC062E-13E4-450B-B24E-D8A474022433";
paths = (
{
closed = 1;
nodes = (
"132 27 OFFCURVE",
"147 61 OFFCURVE",
"154 111 CURVE",
"156 111 LINE",
"187 37 OFFCURVE",
"243 -10 OFFCURVE",
"342 -10 CURVE SMOOTH",
"444 -10 OFFCURVE",
"509 50 OFFCURVE",
"509 169 CURVE SMOOTH",
"509 548 LINE",
"483 548 LINE",
"483 170 LINE SMOOTH",
"483 70 OFFCURVE",
"437 12 OFFCURVE",
"343 12 CURVE SMOOTH",
"223 12 OFFCURVE",
"161 98 OFFCURVE",
"161 206 CURVE SMOOTH",
"161 485 LINE SMOOTH",
"161 534 OFFCURVE",
"142 556 OFFCURVE",
"100 556 CURVE SMOOTH",
"78 556 OFFCURVE",
"57 550 OFFCURVE",
"40 542 CURVE",
"45 518 LINE",
"61 525 OFFCURVE",
"78 531 OFFCURVE",
"97 531 CURVE SMOOTH",
"125 531 OFFCURVE",
"135 519 OFFCURVE",
"135 485 CURVE SMOOTH",
"135 155 LINE SMOOTH",
"135 97 OFFCURVE",
"113 41 OFFCURVE",
"87 3 CURVE",
"107 -10 LINE"
);
}
);
width = 594;
},
{
anchors = (
{
name = bottom;
position = "{522, 0}";
},
{
name = top;
position = "{532, 536}";
}
);
layerId = "6449CA81-A7C3-4005-93E5-765657812F1B";
paths = (
{
closed = 1;
nodes = (
"134 5 OFFCURVE",
"157 40 OFFCURVE",
"169 71 CURVE",
"172 71 LINE",
"213 14 OFFCURVE",
"267 -10 OFFCURVE",
"336 -10 CURVE SMOOTH",
"460 -10 OFFCURVE",
"532 67 OFFCURVE",
"532 200 CURVE SMOOTH",
"532 548 LINE",
"444 548 LINE",
"444 201 LINE SMOOTH",
"444 115 OFFCURVE",
"409 63 OFFCURVE",
"322 63 CURVE SMOOTH",
"261 63 OFFCURVE",
"195 89 OFFCURVE",
"195 191 CURVE SMOOTH",
"195 438 LINE SMOOTH",
"195 512 OFFCURVE",
"163 554 OFFCURVE",
"96 554 CURVE SMOOTH",
"72 554 OFFCURVE",
"44 549 OFFCURVE",
"20 540 CURVE",
"33 478 LINE",
"44 481 OFFCURVE",
"56 484 OFFCURVE",
"68 484 CURVE SMOOTH",
"95 484 OFFCURVE",
"107 471 OFFCURVE",
"107 441 CURVE SMOOTH",
"107 182 LINE SMOOTH",
"107 109 OFFCURVE",
"80 65 OFFCURVE",
"52 39 CURVE",
"116 -10 LINE"
);
}
);
width = 614;
},
{
anchors = (
{
name = bottom;
position = "{571, 0}";
},
{
name = top;
position = "{581, 536}";
}
);
layerId = "E5D3352E-10FF-4C03-AD9F-F95B1FD01257";
paths = (
{
closed = 1;
nodes = (
"188 13 OFFCURVE",
"208 38 OFFCURVE",
"218 65 CURVE",
"221 65 LINE",
"259 20 OFFCURVE",
"311 -10 OFFCURVE",
"388 -10 CURVE SMOOTH",
"522 -10 OFFCURVE",
"581 80 OFFCURVE",
"581 189 CURVE SMOOTH",
"581 553 LINE",
"389 553 LINE",
"389 212 LINE SMOOTH",
"389 166 OFFCURVE",
"372 142 OFFCURVE",
"335 142 CURVE SMOOTH",
"301 142 OFFCURVE",
"285 162 OFFCURVE",
"285 210 CURVE SMOOTH",
"285 420 LINE SMOOTH",
"285 517 OFFCURVE",
"242 563 OFFCURVE",
"149 563 CURVE SMOOTH",
"106 563 OFFCURVE",
"43 553 OFFCURVE",
"5 533 CURVE",
"32 411 LINE",
"42 415 OFFCURVE",
"54 419 OFFCURVE",
"67 419 CURVE SMOOTH",
"86 419 OFFCURVE",
"93 411 OFFCURVE",
"93 393 CURVE SMOOTH",
"93 244 LINE SMOOTH",
"93 174 OFFCURVE",
"77 139 OFFCURVE",
"24 94 CURVE",
"163 -10 LINE"
);
}
);
width = 626;
}
);
note = uni0E99;
unicode = 0E99;
},
{
glyphname = "boBae-lao";
lastChange = "2017-01-26 21:57:21 +0000";
layers = (
{
anchors = (
{
name = bottom;
position = "{483, 0}";
},
{
name = top;
position = "{493, 536}";
}
);
layerId = "64BC062E-13E4-450B-B24E-D8A474022433";
paths = (
{
closed = 1;
nodes = (
"429 -10 OFFCURVE",
"493 67 OFFCURVE",
"493 174 CURVE SMOOTH",
"493 548 LINE",
"467 548 LINE",
"467 174 LINE SMOOTH",
"467 73 OFFCURVE",
"407 15 OFFCURVE",
"289 15 CURVE SMOOTH",
"171 15 OFFCURVE",
"111 73 OFFCURVE",
"111 174 CURVE SMOOTH",
"111 548 LINE",
"85 548 LINE",
"85 174 LINE SMOOTH",
"85 67 OFFCURVE",
"149 -10 OFFCURVE",
"289 -10 CURVE SMOOTH"
);
}
);
width = 578;
},
{
anchors = (
{
name = bottom;
position = "{522, 0}";
},
{
name = top;
position = "{532, 536}";
}
);
layerId = "6449CA81-A7C3-4005-93E5-765657812F1B";
paths = (
{
closed = 1;
nodes = (
"466 -10 OFFCURVE",
"532 72 OFFCURVE",
"532 208 CURVE SMOOTH",
"532 548 LINE",
"444 548 LINE",
"444 201 LINE SMOOTH",
"444 114 OFFCURVE",
"404 63 OFFCURVE",
"305 63 CURVE SMOOTH",
"207 63 OFFCURVE",
"166 114 OFFCURVE",
"166 201 CURVE SMOOTH",
"166 548 LINE",
"78 548 LINE",
"78 208 LINE SMOOTH",
"78 72 OFFCURVE",
"144 -10 OFFCURVE",
"305 -10 CURVE SMOOTH"
);
}
);
width = 614;
},
{
anchors = (
{
name = bottom;
position = "{549, 0}";
},
{
name = top;
position = "{559, 536}";
}
);
layerId = "E5D3352E-10FF-4C03-AD9F-F95B1FD01257";
paths = (
{
closed = 1;
nodes = (
"471 -10 OFFCURVE",
"559 73 OFFCURVE",
"559 233 CURVE SMOOTH",
"559 553 LINE",
"367 553 LINE",
"367 220 LINE SMOOTH",
"367 169 OFFCURVE",
"345 142 OFFCURVE",
"302 142 CURVE SMOOTH",
"259 142 OFFCURVE",
"237 169 OFFCURVE",
"237 220 CURVE SMOOTH",
"237 553 LINE",
"45 553 LINE",
"45 233 LINE SMOOTH",
"45 73 OFFCURVE",
"133 -10 OFFCURVE",
"302 -10 CURVE SMOOTH"
);
}
);
width = 604;
}
);
note = uni0E9A;
unicode = 0E9A;
},
{
glyphname = "poPa-lao";
lastChange = "2017-01-26 21:57:21 +0000";
layers = (
{
anchors = (
{
name = bottom;
position = "{483, 0}";
},
{
name = top;
position = "{384, 536}";
}
);
layerId = "64BC062E-13E4-450B-B24E-D8A474022433";
paths = (
{
closed = 1;
nodes = (
"429 -10 OFFCURVE",
"493 67 OFFCURVE",
"493 174 CURVE SMOOTH",
"493 745 LINE",
"467 745 LINE",
"467 174 LINE SMOOTH",
"467 73 OFFCURVE",
"407 15 OFFCURVE",
"289 15 CURVE SMOOTH",
"171 15 OFFCURVE",
"111 73 OFFCURVE",
"111 174 CURVE SMOOTH",
"111 548 LINE",
"85 548 LINE",
"85 174 LINE SMOOTH",
"85 67 OFFCURVE",
"149 -10 OFFCURVE",
"289 -10 CURVE SMOOTH"
);
}
);
width = 578;
},
{
anchors = (
{
name = bottom;
position = "{522, 0}";
},
{
name = top;
position = "{420, 536}";
}
);
layerId = "6449CA81-A7C3-4005-93E5-765657812F1B";
paths = (
{
closed = 1;
nodes = (
"466 -10 OFFCURVE",
"532 72 OFFCURVE",
"532 208 CURVE SMOOTH",
"532 714 LINE",
"444 714 LINE",
"444 201 LINE SMOOTH",
"444 114 OFFCURVE",
"404 63 OFFCURVE",
"305 63 CURVE SMOOTH",
"207 63 OFFCURVE",
"166 114 OFFCURVE",
"166 201 CURVE SMOOTH",
"166 548 LINE",
"78 548 LINE",
"78 208 LINE SMOOTH",
"78 72 OFFCURVE",
"144 -10 OFFCURVE",
"305 -10 CURVE SMOOTH"
);
}
);
width = 614;
},
{
anchors = (
{
name = bottom;
position = "{559, 0}";
},
{
name = top;
position = "{355, 536}";
}
);
layerId = "E5D3352E-10FF-4C03-AD9F-F95B1FD01257";
paths = (
{
closed = 1;
nodes = (
"480 -10 OFFCURVE",
"569 73 OFFCURVE",
"569 233 CURVE SMOOTH",
"569 714 LINE",
"377 714 LINE",
"377 220 LINE SMOOTH",
"377 169 OFFCURVE",
"354 142 OFFCURVE",
"309 142 CURVE SMOOTH",
"263 142 OFFCURVE",
"237 169 OFFCURVE",
"237 220 CURVE SMOOTH",
"237 553 LINE",
"45 553 LINE",
"45 233 LINE SMOOTH",
"45 73 OFFCURVE",
"137 -10 OFFCURVE",
"309 -10 CURVE SMOOTH"
);
}
);
width = 619;
}
);
note = uni0E9B;
unicode = 0E9B;
},
{
glyphname = "phoPhueng-lao";
lastChange = "2017-01-26 21:57:21 +0000";
layers = (
{
anchors = (
{
name = bottom;
position = "{589, 0}";
},
{
name = top;
position = "{602, 574}";
}
);
layerId = "64BC062E-13E4-450B-B24E-D8A474022433";
paths = (
{
closed = 1;
nodes = (
"275 -10 OFFCURVE",
"319 10 OFFCURVE",
"341 70 CURVE",
"343 70 LINE",
"365 10 OFFCURVE",
"409 -10 OFFCURVE",
"464 -10 CURVE SMOOTH",
"561 -10 OFFCURVE",
"599 53 OFFCURVE",
"599 156 CURVE SMOOTH",
"599 329 LINE SMOOTH",
"599 389 OFFCURVE",
"592 431 OFFCURVE",
"547 452 CURVE",
"547 453 LINE",
"591 468 OFFCURVE",
"602 516 OFFCURVE",
"602 572 CURVE SMOOTH",
"602 592 LINE",
"575 592 LINE",
"575 572 LINE SMOOTH",
"575 507 OFFCURVE",
"562 464 OFFCURVE",
"509 464 CURVE SMOOTH",
"485 464 LINE",
"485 442 LINE",
"508 442 LINE SMOOTH",
"559 442 OFFCURVE",
"573 402 OFFCURVE",
"573 327 CURVE SMOOTH",
"573 152 LINE SMOOTH",
"573 65 OFFCURVE",
"544 12 OFFCURVE",
"465 12 CURVE SMOOTH",
"385 12 OFFCURVE",
"354 65 OFFCURVE",
"354 137 CURVE SMOOTH",
"354 307 LINE",
"330 307 LINE",
"330 137 LINE SMOOTH",
"330 65 OFFCURVE",
"299 12 OFFCURVE",
"220 12 CURVE SMOOTH",
"140 12 OFFCURVE",
"111 65 OFFCURVE",
"111 152 CURVE SMOOTH",
"111 456 LINE SMOOTH",
"111 506 OFFCURVE",
"129 534 OFFCURVE",
"176 534 CURVE SMOOTH",
"205 534 OFFCURVE",
"230 524 OFFCURVE",
"247 514 CURVE",
"257 535 LINE",
"238 545 OFFCURVE",
"205 556 OFFCURVE",
"173 556 CURVE SMOOTH",
"118 556 OFFCURVE",
"85 523 OFFCURVE",
"85 455 CURVE SMOOTH",
"85 156 LINE SMOOTH",
"85 53 OFFCURVE",
"123 -10 OFFCURVE",
"220 -10 CURVE SMOOTH"
);
}
);
width = 684;
},
{
anchors = (
{
name = bottom;
position = "{634, 0}";
},
{
name = top;
position = "{644, 536}";
}
);
layerId = "6449CA81-A7C3-4005-93E5-765657812F1B";
paths = (
{
closed = 1;
nodes = (
"292 -10 OFFCURVE",
"331 16 OFFCURVE",
"359 58 CURVE",
"363 58 LINE",
"391 16 OFFCURVE",
"430 -10 OFFCURVE",
"495 -10 CURVE SMOOTH",
"597 -10 OFFCURVE",
"644 54 OFFCURVE",
"644 157 CURVE SMOOTH",
"644 345 LINE SMOOTH",
"644 401 OFFCURVE",
"628 436 OFFCURVE",
"583 457 CURVE",
"583 461 LINE",
"628 487 OFFCURVE",
"644 524 OFFCURVE",
"644 578 CURVE SMOOTH",
"644 587 LINE",
"556 587 LINE",
"556 578 LINE SMOOTH",
"556 526 OFFCURVE",
"542 491 OFFCURVE",
"494 491 CURVE SMOOTH",
"480 491 LINE",
"480 430 LINE",
"493 430 LINE SMOOTH",
"534 430 OFFCURVE",
"556 400 OFFCURVE",
"556 344 CURVE SMOOTH",
"556 146 LINE SMOOTH",
"556 88 OFFCURVE",
"532 63 OFFCURVE",
"482 63 CURVE SMOOTH",
"422 63 OFFCURVE",
"404 98 OFFCURVE",
"404 162 CURVE SMOOTH",
"404 329 LINE",
"318 329 LINE",
"318 162 LINE SMOOTH",
"318 98 OFFCURVE",
"300 63 OFFCURVE",
"240 63 CURVE SMOOTH",
"190 63 OFFCURVE",
"166 88 OFFCURVE",
"166 146 CURVE SMOOTH",
"166 441 LINE SMOOTH",
"166 473 OFFCURVE",
"183 484 OFFCURVE",
"205 484 CURVE SMOOTH",
"216 484 OFFCURVE",
"229 481 OFFCURVE",
"241 478 CURVE",
"254 540 LINE",
"229 549 OFFCURVE",
"204 554 OFFCURVE",
"182 554 CURVE SMOOTH",
"117 554 OFFCURVE",
"78 512 OFFCURVE",
"78 438 CURVE SMOOTH",
"78 157 LINE SMOOTH",
"78 54 OFFCURVE",
"125 -10 OFFCURVE",
"227 -10 CURVE SMOOTH"
);
}
);
width = 726;
},
{
anchors = (
{
name = bottom;
position = "{639, 0}";
},
{
name = top;
position = "{651, 536}";
}
);
layerId = "E5D3352E-10FF-4C03-AD9F-F95B1FD01257";
paths = (
{
closed = 1;
nodes = (
"271 -10 OFFCURVE",
"323 12 OFFCURVE",
"346 44 CURVE",
"348 44 LINE",
"374 11 OFFCURVE",
"428 -10 OFFCURVE",
"489 -10 CURVE SMOOTH",
"604 -10 OFFCURVE",
"651 66 OFFCURVE",
"651 171 CURVE SMOOTH",
"651 339 LINE SMOOTH",
"651 399 OFFCURVE",
"633 435 OFFCURVE",
"584 460 CURVE",
"584 464 LINE",
"635 491 OFFCURVE",
"653 530 OFFCURVE",
"653 586 CURVE SMOOTH",
"653 595 LINE",
"469 595 LINE",
"469 586 LINE SMOOTH",
"469 535 OFFCURVE",
"456 509 OFFCURVE",
"403 509 CURVE SMOOTH",
"389 509 LINE",
"389 404 LINE",
"402 404 LINE SMOOTH",
"451 404 OFFCURVE",
"469 383 OFFCURVE",
"469 330 CURVE SMOOTH",
"469 164 LINE SMOOTH",
"469 146 OFFCURVE",
"460 137 OFFCURVE",
"444 137 CURVE SMOOTH",
"428 137 OFFCURVE",
"419 146 OFFCURVE",
"419 164 CURVE SMOOTH",
"419 329 LINE",
"277 329 LINE",
"277 164 LINE SMOOTH",
"277 146 OFFCURVE",
"268 137 OFFCURVE",
"251 137 CURVE SMOOTH",
"235 137 OFFCURVE",
"227 146 OFFCURVE",
"227 164 CURVE SMOOTH",
"227 382 LINE SMOOTH",
"227 406 OFFCURVE",
"243 419 OFFCURVE",
"265 419 CURVE SMOOTH",
"277 419 OFFCURVE",
"290 415 OFFCURVE",
"300 411 CURVE",
"327 533 LINE",
"289 550 OFFCURVE",
"241 563 OFFCURVE",
"198 563 CURVE SMOOTH",
"102 563 OFFCURVE",
"45 500 OFFCURVE",
"45 401 CURVE SMOOTH",
"45 178 LINE SMOOTH",
"45 64 OFFCURVE",
"103 -10 OFFCURVE",
"212 -10 CURVE SMOOTH"
);
}
);
width = 700;
}
);
note = uni0E9C;
unicode = 0E9C;
},
{
glyphname = "foFon-lao";
lastChange = "2017-01-26 21:57:21 +0000";
layers = (
{
anchors = (
{
name = bottom;
position = "{589, 0}";
},
{
name = top;
position = "{490, 536}";
}
);
layerId = "64BC062E-13E4-450B-B24E-D8A474022433";
paths = (
{
closed = 1;
nodes = (
"275 -10 OFFCURVE",
"319 10 OFFCURVE",
"341 70 CURVE",
"343 70 LINE",
"365 10 OFFCURVE",
"409 -10 OFFCURVE",
"464 -10 CURVE SMOOTH",
"561 -10 OFFCURVE",
"599 53 OFFCURVE",
"599 156 CURVE SMOOTH",
"599 745 LINE",
"573 745 LINE",
"573 152 LINE SMOOTH",
"573 65 OFFCURVE",
"544 12 OFFCURVE",
"465 12 CURVE SMOOTH",
"385 12 OFFCURVE",
"354 65 OFFCURVE",
"354 137 CURVE SMOOTH",
"354 307 LINE",
"330 307 LINE",
"330 137 LINE SMOOTH",
"330 65 OFFCURVE",
"299 12 OFFCURVE",
"220 12 CURVE SMOOTH",
"140 12 OFFCURVE",
"111 65 OFFCURVE",
"111 152 CURVE SMOOTH",
"111 456 LINE SMOOTH",
"111 506 OFFCURVE",
"129 534 OFFCURVE",
"176 534 CURVE SMOOTH",
"205 534 OFFCURVE",
"230 524 OFFCURVE",
"247 514 CURVE",
"257 535 LINE",
"238 545 OFFCURVE",
"205 556 OFFCURVE",
"173 556 CURVE SMOOTH",
"118 556 OFFCURVE",
"85 523 OFFCURVE",
"85 455 CURVE SMOOTH",
"85 156 LINE SMOOTH",
"85 53 OFFCURVE",
"123 -10 OFFCURVE",
"220 -10 CURVE SMOOTH"
);
}
);
width = 684;
},
{
anchors = (
{
name = bottom;
position = "{634, 0}";
},
{
name = top;
position = "{532, 536}";
}
);
layerId = "6449CA81-A7C3-4005-93E5-765657812F1B";
paths = (
{
closed = 1;
nodes = (
"292 -10 OFFCURVE",
"331 16 OFFCURVE",
"359 58 CURVE",
"363 58 LINE",
"391 16 OFFCURVE",
"430 -10 OFFCURVE",
"495 -10 CURVE SMOOTH",
"597 -10 OFFCURVE",
"644 54 OFFCURVE",
"644 157 CURVE SMOOTH",
"644 714 LINE",
"556 714 LINE",
"556 146 LINE SMOOTH",
"556 88 OFFCURVE",
"532 63 OFFCURVE",
"482 63 CURVE SMOOTH",
"422 63 OFFCURVE",
"404 98 OFFCURVE",
"404 162 CURVE SMOOTH",
"404 329 LINE",
"318 329 LINE",
"318 162 LINE SMOOTH",
"318 98 OFFCURVE",
"300 63 OFFCURVE",
"240 63 CURVE SMOOTH",
"190 63 OFFCURVE",
"166 88 OFFCURVE",
"166 146 CURVE SMOOTH",
"166 441 LINE SMOOTH",
"166 473 OFFCURVE",
"183 484 OFFCURVE",
"205 484 CURVE SMOOTH",
"216 484 OFFCURVE",
"229 481 OFFCURVE",
"241 478 CURVE",
"254 540 LINE",
"229 549 OFFCURVE",
"204 554 OFFCURVE",
"182 554 CURVE SMOOTH",
"117 554 OFFCURVE",
"78 512 OFFCURVE",
"78 438 CURVE SMOOTH",
"78 157 LINE SMOOTH",
"78 54 OFFCURVE",
"125 -10 OFFCURVE",
"227 -10 CURVE SMOOTH"
);
}
);
width = 726;
},
{
anchors = (
{
name = bottom;
position = "{641, 0}";
},
{
name = top;
position = "{437, 536}";
}
);
layerId = "E5D3352E-10FF-4C03-AD9F-F95B1FD01257";
paths = (
{
closed = 1;
nodes = (
"271 -10 OFFCURVE",
"323 12 OFFCURVE",
"346 44 CURVE",
"348 44 LINE",
"374 11 OFFCURVE",
"428 -10 OFFCURVE",
"489 -10 CURVE SMOOTH",
"604 -10 OFFCURVE",
"651 66 OFFCURVE",
"651 171 CURVE SMOOTH",
"651 714 LINE",
"469 714 LINE",
"469 164 LINE SMOOTH",
"469 146 OFFCURVE",
"460 137 OFFCURVE",
"444 137 CURVE SMOOTH",
"428 137 OFFCURVE",
"419 146 OFFCURVE",
"419 164 CURVE SMOOTH",
"419 329 LINE",
"277 329 LINE",
"277 164 LINE SMOOTH",
"277 146 OFFCURVE",
"268 137 OFFCURVE",
"251 137 CURVE SMOOTH",
"235 137 OFFCURVE",
"227 146 OFFCURVE",
"227 164 CURVE SMOOTH",
"227 382 LINE SMOOTH",
"227 406 OFFCURVE",
"243 419 OFFCURVE",
"265 419 CURVE SMOOTH",
"277 419 OFFCURVE",
"290 415 OFFCURVE",
"300 411 CURVE",
"327 533 LINE",
"289 550 OFFCURVE",
"241 563 OFFCURVE",
"198 563 CURVE SMOOTH",
"102 563 OFFCURVE",
"45 500 OFFCURVE",
"45 401 CURVE SMOOTH",
"45 178 LINE SMOOTH",
"45 64 OFFCURVE",
"103 -10 OFFCURVE",
"212 -10 CURVE SMOOTH"
);
}
);
width = 701;
}
);
note = uni0E9D;
unicode = 0E9D;
},
{
glyphname = "phoPhu-lao";
lastChange = "2017-01-26 21:57:21 +0000";
layers = (
{
anchors = (
{
name = bottom;
position = "{599, 0}";
},
{
name = top;
position = "{609, 536}";
}
);
layerId = "64BC062E-13E4-450B-B24E-D8A474022433";
paths = (
{
closed = 1;
nodes = (
"289 -10 OFFCURVE",
"325 30 OFFCURVE",
"346 83 CURVE",
"348 83 LINE",
"369 30 OFFCURVE",
"405 -10 OFFCURVE",
"478 -10 CURVE SMOOTH",
"560 -10 OFFCURVE",
"609 41 OFFCURVE",
"609 147 CURVE SMOOTH",
"609 548 LINE",
"583 548 LINE",
"583 143 LINE SMOOTH",
"583 52 OFFCURVE",
"543 12 OFFCURVE",
"478 12 CURVE SMOOTH",
"399 12 OFFCURVE",
"360 69 OFFCURVE",
"360 149 CURVE SMOOTH",
"360 548 LINE",
"334 548 LINE",
"334 149 LINE SMOOTH",
"334 69 OFFCURVE",
"295 12 OFFCURVE",
"216 12 CURVE SMOOTH",
"151 12 OFFCURVE",
"111 52 OFFCURVE",
"111 143 CURVE SMOOTH",
"111 548 LINE",
"85 548 LINE",
"85 147 LINE SMOOTH",
"85 41 OFFCURVE",
"134 -10 OFFCURVE",
"216 -10 CURVE SMOOTH"
);
}
);
width = 694;
},
{
anchors = (
{
name = bottom;
position = "{640, 0}";
},
{
name = top;
position = "{650, 536}";
}
);
layerId = "6449CA81-A7C3-4005-93E5-765657812F1B";
paths = (
{
closed = 1;
nodes = (
"291 -10 OFFCURVE",
"340 21 OFFCURVE",
"361 62 CURVE",
"367 62 LINE",
"388 21 OFFCURVE",
"437 -10 OFFCURVE",
"504 -10 CURVE SMOOTH",
"594 -10 OFFCURVE",
"650 45 OFFCURVE",
"650 158 CURVE SMOOTH",
"650 548 LINE",
"562 548 LINE",
"562 157 LINE SMOOTH",
"562 91 OFFCURVE",
"536 63 OFFCURVE",
"487 63 CURVE SMOOTH",
"434 63 OFFCURVE",
"407 95 OFFCURVE",
"407 160 CURVE SMOOTH",
"407 548 LINE",
"321 548 LINE",
"321 160 LINE SMOOTH",
"321 95 OFFCURVE",
"294 63 OFFCURVE",
"241 63 CURVE SMOOTH",
"192 63 OFFCURVE",
"166 91 OFFCURVE",
"166 157 CURVE SMOOTH",
"166 548 LINE",
"78 548 LINE",
"78 158 LINE SMOOTH",
"78 45 OFFCURVE",
"134 -10 OFFCURVE",
"224 -10 CURVE SMOOTH"
);
}
);
width = 732;
},
{
anchors = (
{
name = bottom;
position = "{661, 0}";
},
{
name = top;
position = "{671, 536}";
}
);
layerId = "E5D3352E-10FF-4C03-AD9F-F95B1FD01257";
paths = (
{
closed = 1;
nodes = (
"288 -10 OFFCURVE",
"332 23 OFFCURVE",
"355 55 CURVE",
"361 55 LINE",
"384 23 OFFCURVE",
"428 -10 OFFCURVE",
"499 -10 CURVE SMOOTH",
"597 -10 OFFCURVE",
"671 54 OFFCURVE",
"671 182 CURVE SMOOTH",
"671 553 LINE",
"489 553 LINE",
"489 168 LINE SMOOTH",
"489 154 OFFCURVE",
"478 143 OFFCURVE",
"460 143 CURVE SMOOTH",
"441 143 OFFCURVE",
"430 154 OFFCURVE",
"430 168 CURVE SMOOTH",
"430 553 LINE",
"286 553 LINE",
"286 168 LINE SMOOTH",
"286 154 OFFCURVE",
"275 143 OFFCURVE",
"257 143 CURVE SMOOTH",
"239 143 OFFCURVE",
"227 154 OFFCURVE",
"227 168 CURVE SMOOTH",
"227 553 LINE",
"45 553 LINE",
"45 182 LINE SMOOTH",
"45 54 OFFCURVE",
"119 -10 OFFCURVE",
"217 -10 CURVE SMOOTH"
);
}
);
width = 716;
}
);
note = uni0E9E;
unicode = 0E9E;
},
{
glyphname = "foFai-lao";
lastChange = "2017-01-26 21:57:21 +0000";
layers = (
{
anchors = (
{
name = bottom;
position = "{599, 0}";
},
{
name = top;
position = "{500, 536}";
}
);
layerId = "64BC062E-13E4-450B-B24E-D8A474022433";
paths = (
{
closed = 1;
nodes = (
"289 -10 OFFCURVE",
"325 30 OFFCURVE",
"346 83 CURVE",
"348 83 LINE",
"369 30 OFFCURVE",
"405 -10 OFFCURVE",
"478 -10 CURVE SMOOTH",
"560 -10 OFFCURVE",
"609 41 OFFCURVE",
"609 147 CURVE SMOOTH",
"609 745 LINE",
"583 745 LINE",
"583 143 LINE SMOOTH",
"583 52 OFFCURVE",
"543 12 OFFCURVE",
"478 12 CURVE SMOOTH",
"399 12 OFFCURVE",
"360 69 OFFCURVE",
"360 149 CURVE SMOOTH",
"360 548 LINE",
"334 548 LINE",
"334 149 LINE SMOOTH",
"334 69 OFFCURVE",
"295 12 OFFCURVE",
"216 12 CURVE SMOOTH",
"151 12 OFFCURVE",
"111 52 OFFCURVE",
"111 143 CURVE SMOOTH",
"111 548 LINE",
"85 548 LINE",
"85 147 LINE SMOOTH",
"85 41 OFFCURVE",
"134 -10 OFFCURVE",
"216 -10 CURVE SMOOTH"
);
}
);
width = 694;
},
{
anchors = (
{
name = bottom;
position = "{640, 0}";
},
{
name = top;
position = "{537, 536}";
}
);
layerId = "6449CA81-A7C3-4005-93E5-765657812F1B";
paths = (
{
closed = 1;
nodes = (
"291 -10 OFFCURVE",
"340 21 OFFCURVE",
"361 62 CURVE",
"367 62 LINE",
"388 21 OFFCURVE",
"437 -10 OFFCURVE",
"504 -10 CURVE SMOOTH",
"594 -10 OFFCURVE",
"650 45 OFFCURVE",
"650 158 CURVE SMOOTH",
"650 714 LINE",
"562 714 LINE",
"562 157 LINE SMOOTH",
"562 91 OFFCURVE",
"536 63 OFFCURVE",
"487 63 CURVE SMOOTH",
"434 63 OFFCURVE",
"407 95 OFFCURVE",
"407 160 CURVE SMOOTH",
"407 548 LINE",
"321 548 LINE",
"321 160 LINE SMOOTH",
"321 95 OFFCURVE",
"294 63 OFFCURVE",
"241 63 CURVE SMOOTH",
"192 63 OFFCURVE",
"166 91 OFFCURVE",
"166 157 CURVE SMOOTH",
"166 548 LINE",
"78 548 LINE",
"78 158 LINE SMOOTH",
"78 45 OFFCURVE",
"134 -10 OFFCURVE",
"224 -10 CURVE SMOOTH"
);
}
);
width = 731;
},
{
anchors = (
{
name = bottom;
position = "{661, 0}";
},
{
name = top;
position = "{457, 536}";
}
);
layerId = "E5D3352E-10FF-4C03-AD9F-F95B1FD01257";
paths = (
{
closed = 1;
nodes = (
"288 -10 OFFCURVE",
"332 23 OFFCURVE",
"355 55 CURVE",
"361 55 LINE",
"384 23 OFFCURVE",
"428 -10 OFFCURVE",
"499 -10 CURVE SMOOTH",
"597 -10 OFFCURVE",
"671 54 OFFCURVE",
"671 182 CURVE SMOOTH",
"671 714 LINE",
"489 714 LINE",
"489 168 LINE SMOOTH",
"489 154 OFFCURVE",
"478 143 OFFCURVE",
"460 143 CURVE SMOOTH",
"441 143 OFFCURVE",
"430 154 OFFCURVE",
"430 168 CURVE SMOOTH",
"430 553 LINE",
"286 553 LINE",
"286 168 LINE SMOOTH",
"286 154 OFFCURVE",
"275 143 OFFCURVE",
"257 143 CURVE SMOOTH",
"239 143 OFFCURVE",
"227 154 OFFCURVE",
"227 168 CURVE SMOOTH",
"227 553 LINE",
"45 553 LINE",
"45 182 LINE SMOOTH",
"45 54 OFFCURVE",
"119 -10 OFFCURVE",
"217 -10 CURVE SMOOTH"
);
}
);
width = 721;
}
);
note = uni0E9F;
unicode = 0E9F;
},
{
glyphname = "moMa-lao";
lastChange = "2017-01-26 21:57:21 +0000";
layers = (
{
anchors = (
{
name = bottom;
position = "{504, 0}";
},
{
name = top;
position = "{514, 536}";
}
);
layerId = "64BC062E-13E4-450B-B24E-D8A474022433";
paths = (
{
closed = 1;
nodes = (
"138 -10 OFFCURVE",
"160 22 OFFCURVE",
"160 92 CURVE SMOOTH",
"160 127 LINE",
"142 107 LINE",
"161 107 LINE",
"190 36 OFFCURVE",
"262 -10 OFFCURVE",
"345 -10 CURVE SMOOTH",
"439 -10 OFFCURVE",
"514 50 OFFCURVE",
"514 169 CURVE SMOOTH",
"514 548 LINE",
"488 548 LINE",
"488 170 LINE SMOOTH",
"488 70 OFFCURVE",
"432 12 OFFCURVE",
"344 12 CURVE SMOOTH",
"234 12 OFFCURVE",
"160 96 OFFCURVE",
"160 196 CURVE SMOOTH",
"160 548 LINE",
"134 548 LINE",
"134 85 LINE SMOOTH",
"134 30 OFFCURVE",
"116 14 OFFCURVE",
"81 14 CURVE SMOOTH",
"66 14 OFFCURVE",
"56 17 OFFCURVE",
"43 21 CURVE",
"38 -2 LINE",
"51 -7 OFFCURVE",
"67 -10 OFFCURVE",
"83 -10 CURVE SMOOTH"
);
}
);
width = 599;
},
{
anchors = (
{
name = bottom;
position = "{522, 0}";
},
{
name = top;
position = "{532, 536}";
}
);
layerId = "6449CA81-A7C3-4005-93E5-765657812F1B";
paths = (
{
closed = 1;
nodes = (
"151 -11 OFFCURVE",
"184 14 OFFCURVE",
"184 61 CURVE SMOOTH",
"184 81 LINE",
"149 49 LINE",
"186 49 LINE",
"231 2 OFFCURVE",
"280 -10 OFFCURVE",
"339 -10 CURVE SMOOTH",
"459 -10 OFFCURVE",
"532 59 OFFCURVE",
"532 195 CURVE SMOOTH",
"532 548 LINE",
"444 548 LINE",
"444 201 LINE SMOOTH",
"444 114 OFFCURVE",
"405 63 OFFCURVE",
"320 63 CURVE SMOOTH",
"260 63 OFFCURVE",
"195 89 OFFCURVE",
"195 191 CURVE SMOOTH",
"195 548 LINE",
"107 548 LINE",
"107 101 LINE SMOOTH",
"107 70 OFFCURVE",
"90 59 OFFCURVE",
"67 59 CURVE SMOOTH",
"57 59 OFFCURVE",
"45 61 OFFCURVE",
"33 65 CURVE",
"20 3 LINE",
"42 -5 OFFCURVE",
"68 -11 OFFCURVE",
"95 -11 CURVE SMOOTH"
);
}
);
width = 614;
},
{
anchors = (
{
name = bottom;
position = "{591, 0}";
},
{
name = top;
position = "{601, 536}";
}
);
layerId = "E5D3352E-10FF-4C03-AD9F-F95B1FD01257";
paths = (
{
closed = 1;
nodes = (
"200 -10 OFFCURVE",
"245 22 OFFCURVE",
"245 77 CURVE SMOOTH",
"245 96 LINE",
"210 65 LINE",
"246 65 LINE",
"282 16 OFFCURVE",
"327 -10 OFFCURVE",
"399 -10 CURVE SMOOTH",
"532 -10 OFFCURVE",
"591 80 OFFCURVE",
"591 189 CURVE SMOOTH",
"591 553 LINE",
"399 553 LINE",
"399 212 LINE SMOOTH",
"399 164 OFFCURVE",
"382 142 OFFCURVE",
"346 142 CURVE SMOOTH",
"311 142 OFFCURVE",
"295 163 OFFCURVE",
"295 210 CURVE SMOOTH",
"295 553 LINE",
"103 553 LINE",
"103 160 LINE SMOOTH",
"103 142 OFFCURVE",
"96 134 OFFCURVE",
"77 134 CURVE SMOOTH",
"64 134 OFFCURVE",
"52 138 OFFCURVE",
"42 142 CURVE",
"15 20 LINE",
"47 1 OFFCURVE",
"87 -10 OFFCURVE",
"129 -10 CURVE SMOOTH"
);
}
);
width = 636;
}
);
note = uni0EA1;
unicode = 0EA1;
},
{
glyphname = "yoYa-lao";
lastChange = "2017-01-26 21:57:21 +0000";
layers = (
{
anchors = (
{
name = bottom;
position = "{472, 0}";
},
{
name = top;
position = "{373, 536}";
}
);
layerId = "64BC062E-13E4-450B-B24E-D8A474022433";
paths = (
{
closed = 1;
nodes = (
"393 -10 OFFCURVE",
"482 45 OFFCURVE",
"482 175 CURVE SMOOTH",
"482 745 LINE",
"456 745 LINE",
"456 169 LINE SMOOTH",
"456 52 OFFCURVE",
"367 12 OFFCURVE",
"275 12 CURVE SMOOTH",
"182 12 OFFCURVE",
"95 52 OFFCURVE",
"95 155 CURVE SMOOTH",
"95 234 OFFCURVE",
"146 279 OFFCURVE",
"228 279 CURVE SMOOTH",
"267 279 LINE",
"267 301 LINE",
"228 301 LINE SMOOTH",
"167 301 OFFCURVE",
"92 332 OFFCURVE",
"92 423 CURVE SMOOTH",
"92 495 OFFCURVE",
"140 534 OFFCURVE",
"209 534 CURVE SMOOTH",
"235 534 OFFCURVE",
"265 528 OFFCURVE",
"279 523 CURVE",
"284 544 LINE",
"264 551 OFFCURVE",
"233 556 OFFCURVE",
"206 556 CURVE SMOOTH",
"123 556 OFFCURVE",
"65 508 OFFCURVE",
"65 422 CURVE SMOOTH",
"65 338 OFFCURVE",
"120 305 OFFCURVE",
"156 291 CURVE",
"156 287 LINE",
"124 274 OFFCURVE",
"68 244 OFFCURVE",
"68 156 CURVE SMOOTH",
"68 50 OFFCURVE",
"148 -10 OFFCURVE",
"273 -10 CURVE SMOOTH"
);
}
);
width = 567;
},
{
anchors = (
{
name = bottom;
position = "{527, 0}";
},
{
name = top;
position = "{425, 536}";
}
);
layerId = "6449CA81-A7C3-4005-93E5-765657812F1B";
paths = (
{
closed = 1;
nodes = (
"454 -10 OFFCURVE",
"537 50 OFFCURVE",
"537 189 CURVE SMOOTH",
"537 715 LINE",
"449 715 LINE",
"449 179 LINE SMOOTH",
"449 97 OFFCURVE",
"403 63 OFFCURVE",
"305 63 CURVE SMOOTH",
"198 63 OFFCURVE",
"156 104 OFFCURVE",
"156 169 CURVE SMOOTH",
"156 234 OFFCURVE",
"197 263 OFFCURVE",
"275 263 CURVE SMOOTH",
"324 263 LINE",
"324 328 LINE",
"275 328 LINE SMOOTH",
"217 328 OFFCURVE",
"156 344 OFFCURVE",
"156 411 CURVE SMOOTH",
"156 458 OFFCURVE",
"185 485 OFFCURVE",
"240 485 CURVE SMOOTH",
"266 485 OFFCURVE",
"291 479 OFFCURVE",
"306 474 CURVE",
"321 542 LINE",
"301 551 OFFCURVE",
"265 558 OFFCURVE",
"228 558 CURVE SMOOTH",
"113 558 OFFCURVE",
"68 490 OFFCURVE",
"68 420 CURVE SMOOTH",
"68 344 OFFCURVE",
"121 308 OFFCURVE",
"162 296 CURVE",
"162 292 LINE",
"119 286 OFFCURVE",
"68 250 OFFCURVE",
"68 163 CURVE SMOOTH",
"68 54 OFFCURVE",
"149 -10 OFFCURVE",
"304 -10 CURVE SMOOTH"
);
}
);
width = 619;
},
{
anchors = (
{
name = bottom;
position = "{545, 0}";
},
{
name = top;
position = "{341, 536}";
}
);
layerId = "E5D3352E-10FF-4C03-AD9F-F95B1FD01257";
paths = (
{
closed = 1;
nodes = (
"461 -10 OFFCURVE",
"555 57 OFFCURVE",
"555 206 CURVE SMOOTH",
"555 714 LINE",
"363 714 LINE",
"363 199 LINE SMOOTH",
"363 163 OFFCURVE",
"339 142 OFFCURVE",
"286 142 CURVE SMOOTH",
"241 142 OFFCURVE",
"215 157 OFFCURVE",
"215 184 CURVE SMOOTH",
"215 205 OFFCURVE",
"231 220 OFFCURVE",
"259 220 CURVE SMOOTH",
"326 220 LINE",
"326 339 LINE",
"263 339 LINE SMOOTH",
"234 339 OFFCURVE",
"215 349 OFFCURVE",
"215 376 CURVE SMOOTH",
"215 398 OFFCURVE",
"227 411 OFFCURVE",
"251 411 CURVE SMOOTH",
"263 411 OFFCURVE",
"279 408 OFFCURVE",
"291 404 CURVE",
"322 544 LINE",
"287 556 OFFCURVE",
"250 563 OFFCURVE",
"209 563 CURVE SMOOTH",
"76 563 OFFCURVE",
"25 490 OFFCURVE",
"25 411 CURVE SMOOTH",
"25 351 OFFCURVE",
"55 304 OFFCURVE",
"112 280 CURVE",
"112 278 LINE",
"57 258 OFFCURVE",
"25 213 OFFCURVE",
"25 153 CURVE SMOOTH",
"25 52 OFFCURVE",
"116 -10 OFFCURVE",
"285 -10 CURVE SMOOTH"
);
}
);
width = 605;
}
);
note = uni0EA2;
unicode = 0EA2;
},
{
glyphname = "roRot-lao";
lastChange = "2017-01-26 21:57:21 +0000";
layers = (
{
anchors = (
{
name = bottom;
position = "{429, 0}";
},
{
name = top;
position = "{429, 536}";
}
);
layerId = "64BC062E-13E4-450B-B24E-D8A474022433";
paths = (
{
closed = 1;
nodes = (
"419 -10 OFFCURVE",
"479 56 OFFCURVE",
"479 152 CURVE SMOOTH",
"479 279 OFFCURVE",
"374 303 OFFCURVE",
"258 329 CURVE SMOOTH",
"156 352 OFFCURVE",
"93 369 OFFCURVE",
"93 441 CURVE SMOOTH",
"93 507 OFFCURVE",
"145 534 OFFCURVE",
"245 534 CURVE SMOOTH",
"319 534 OFFCURVE",
"384 518 OFFCURVE",
"456 496 CURVE",
"456 522 LINE",
"388 544 OFFCURVE",
"317 556 OFFCURVE",
"246 556 CURVE SMOOTH",
"126 556 OFFCURVE",
"65 521 OFFCURVE",
"65 441 CURVE SMOOTH",
"65 347 OFFCURVE",
"150 328 OFFCURVE",
"247 306 CURVE SMOOTH",
"377 277 OFFCURVE",
"451 256 OFFCURVE",
"451 152 CURVE SMOOTH",
"451 44 OFFCURVE",
"370 12 OFFCURVE",
"274 12 CURVE SMOOTH",
"192 12 OFFCURVE",
"93 36 OFFCURVE",
"93 137 CURVE SMOOTH",
"93 157 OFFCURVE",
"97 172 OFFCURVE",
"102 183 CURVE",
"77 193 LINE",
"69 178 OFFCURVE",
"65 158 OFFCURVE",
"65 137 CURVE SMOOTH",
"65 58 OFFCURVE",
"122 -10 OFFCURVE",
"272 -10 CURVE SMOOTH"
);
}
);
width = 544;
},
{
anchors = (
{
name = bottom;
position = "{508, 0}";
},
{
name = top;
position = "{508, 536}";
}
);
layerId = "6449CA81-A7C3-4005-93E5-765657812F1B";
paths = (
{
closed = 1;
nodes = (
"469 -10 OFFCURVE",
"542 64 OFFCURVE",
"542 161 CURVE SMOOTH",
"542 287 OFFCURVE",
"421 319 OFFCURVE",
"315 345 CURVE SMOOTH",
"224 367 OFFCURVE",
"153 377 OFFCURVE",
"153 430 CURVE SMOOTH",
"153 471 OFFCURVE",
"194 485 OFFCURVE",
"281 485 CURVE SMOOTH",
"367 485 OFFCURVE",
"440 471 OFFCURVE",
"522 439 CURVE",
"522 517 LINE",
"451 546 OFFCURVE",
"366 558 OFFCURVE",
"287 558 CURVE SMOOTH",
"153 558 OFFCURVE",
"68 524 OFFCURVE",
"68 430 CURVE SMOOTH",
"68 319 OFFCURVE",
"185 301 OFFCURVE",
"294 275 CURVE SMOOTH",
"393 251 OFFCURVE",
"457 230 OFFCURVE",
"457 159 CURVE SMOOTH",
"457 87 OFFCURVE",
"391 63 OFFCURVE",
"302 63 CURVE SMOOTH",
"225 63 OFFCURVE",
"153 81 OFFCURVE",
"153 152 CURVE SMOOTH",
"153 173 OFFCURVE",
"159 189 OFFCURVE",
"168 199 CURVE",
"100 232 LINE",
"86 219 OFFCURVE",
"68 194 OFFCURVE",
"68 152 CURVE SMOOTH",
"68 69 OFFCURVE",
"137 -10 OFFCURVE",
"306 -10 CURVE SMOOTH"
);
}
);
width = 615;
},
{
anchors = (
{
name = bottom;
position = "{525, 0}";
},
{
name = top;
position = "{525, 536}";
}
);
layerId = "E5D3352E-10FF-4C03-AD9F-F95B1FD01257";
paths = (
{
closed = 1;
nodes = (
"478 -10 OFFCURVE",
"555 66 OFFCURVE",
"555 180 CURVE SMOOTH",
"555 310 OFFCURVE",
"455 342 OFFCURVE",
"322 369 CURVE SMOOTH",
"229 388 OFFCURVE",
"213 392 OFFCURVE",
"213 407 CURVE SMOOTH",
"213 421 OFFCURVE",
"227 426 OFFCURVE",
"279 426 CURVE SMOOTH",
"369 426 OFFCURVE",
"451 411 OFFCURVE",
"538 372 CURVE",
"538 514 LINE",
"449 548 OFFCURVE",
"365 563 OFFCURVE",
"272 563 CURVE SMOOTH",
"125 563 OFFCURVE",
"25 525 OFFCURVE",
"25 417 CURVE SMOOTH",
"25 316 OFFCURVE",
"111 287 OFFCURVE",
"204 261 CURVE SMOOTH",
"322 228 OFFCURVE",
"367 226 OFFCURVE",
"367 177 CURVE SMOOTH",
"367 143 OFFCURVE",
"345 127 OFFCURVE",
"293 127 CURVE SMOOTH",
"247 127 OFFCURVE",
"214 140 OFFCURVE",
"214 172 CURVE SMOOTH",
"214 187 OFFCURVE",
"221 198 OFFCURVE",
"232 206 CURVE",
"78 263 LINE",
"51 243 OFFCURVE",
"25 210 OFFCURVE",
"25 158 CURVE SMOOTH",
"25 66 OFFCURVE",
"108 -10 OFFCURVE",
"293 -10 CURVE SMOOTH"
);
}
);
width = 580;
}
);
note = uni0EA3;
unicode = 0EA3;
},
{
glyphname = "loLing-lao";
lastChange = "2017-01-26 21:57:21 +0000";
layers = (
{
anchors = (
{
name = bottom;
position = "{507, 0}";
},
{
name = top;
position = "{507, 536}";
}
);
layerId = "64BC062E-13E4-450B-B24E-D8A474022433";
paths = (
{
closed = 1;
nodes = (
"211 -10 OFFCURVE",
"232 -7 OFFCURVE",
"247 -1 CURVE",
"241 19 LINE",
"231 15 OFFCURVE",
"212 12 OFFCURVE",
"194 12 CURVE SMOOTH",
"131 12 OFFCURVE",
"93 54 OFFCURVE",
"93 142 CURVE SMOOTH",
"93 232 OFFCURVE",
"132 274 OFFCURVE",
"194 274 CURVE SMOOTH",
"248 274 OFFCURVE",
"278 242 OFFCURVE",
"293 193 CURVE SMOOTH",
"331 71 LINE SMOOTH",
"348 16 OFFCURVE",
"376 -10 OFFCURVE",
"432 -10 CURVE SMOOTH",
"492 -10 OFFCURVE",
"517 19 OFFCURVE",
"517 91 CURVE SMOOTH",
"517 367 LINE SMOOTH",
"517 497 OFFCURVE",
"431 556 OFFCURVE",
"292 556 CURVE SMOOTH",
"222 556 OFFCURVE",
"145 541 OFFCURVE",
"99 523 CURVE",
"99 497 LINE",
"160 520 OFFCURVE",
"219 534 OFFCURVE",
"285 534 CURVE SMOOTH",
"427 534 OFFCURVE",
"491 480 OFFCURVE",
"491 364 CURVE SMOOTH",
"491 84 LINE SMOOTH",
"491 37 OFFCURVE",
"478 15 OFFCURVE",
"431 15 CURVE SMOOTH",
"391 15 OFFCURVE",
"371 32 OFFCURVE",
"358 73 CURVE SMOOTH",
"319 197 LINE SMOOTH",
"301 255 OFFCURVE",
"269 296 OFFCURVE",
"196 296 CURVE SMOOTH",
"101 296 OFFCURVE",
"65 225 OFFCURVE",
"65 141 CURVE SMOOTH",
"65 48 OFFCURVE",
"109 -10 OFFCURVE",
"192 -10 CURVE SMOOTH"
);
}
);
width = 602;
},
{
anchors = (
{
name = bottom;
position = "{534, 0}";
},
{
name = top;
position = "{534, 536}";
}
);
layerId = "6449CA81-A7C3-4005-93E5-765657812F1B";
paths = (
{
closed = 1;
nodes = (
"207 -10 OFFCURVE",
"228 -5 OFFCURVE",
"242 0 CURVE",
"229 60 LINE",
"220 57 OFFCURVE",
"208 55 OFFCURVE",
"196 55 CURVE SMOOTH",
"152 55 OFFCURVE",
"132 82 OFFCURVE",
"132 139 CURVE SMOOTH",
"132 206 OFFCURVE",
"160 234 OFFCURVE",
"204 234 CURVE SMOOTH",
"237 234 OFFCURVE",
"259 219 OFFCURVE",
"269 188 CURVE SMOOTH",
"306 73 LINE SMOOTH",
"324 18 OFFCURVE",
"355 -10 OFFCURVE",
"421 -10 CURVE SMOOTH",
"495 -10 OFFCURVE",
"544 26 OFFCURVE",
"544 107 CURVE SMOOTH",
"544 361 LINE SMOOTH",
"544 496 OFFCURVE",
"437 558 OFFCURVE",
"296 558 CURVE SMOOTH",
"213 558 OFFCURVE",
"122 537 OFFCURVE",
"84 517 CURVE",
"84 440 LINE",
"138 472 OFFCURVE",
"223 485 OFFCURVE",
"282 485 CURVE SMOOTH",
"390 485 OFFCURVE",
"456 442 OFFCURVE",
"456 355 CURVE SMOOTH",
"456 90 LINE SMOOTH",
"456 63 OFFCURVE",
"445 50 OFFCURVE",
"422 50 CURVE SMOOTH",
"403 50 OFFCURVE",
"390 59 OFFCURVE",
"382 84 CURVE SMOOTH",
"343 207 LINE SMOOTH",
"324 266 OFFCURVE",
"285 303 OFFCURVE",
"207 303 CURVE SMOOTH",
"98 303 OFFCURVE",
"53 232 OFFCURVE",
"53 136 CURVE SMOOTH",
"53 46 OFFCURVE",
"93 -10 OFFCURVE",
"181 -10 CURVE SMOOTH"
);
}
);
width = 626;
},
{
anchors = (
{
name = bottom;
position = "{600, 0}";
},
{
name = top;
position = "{600, 536}";
}
);
layerId = "E5D3352E-10FF-4C03-AD9F-F95B1FD01257";
paths = (
{
closed = 1;
nodes = (
"208 -10 OFFCURVE",
"242 -3 OFFCURVE",
"265 9 CURVE",
"235 131 LINE",
"224 128 OFFCURVE",
"213 127 OFFCURVE",
"207 127 CURVE SMOOTH",
"188 127 OFFCURVE",
"176 140 OFFCURVE",
"176 162 CURVE SMOOTH",
"176 184 OFFCURVE",
"189 196 OFFCURVE",
"209 196 CURVE SMOOTH",
"233 196 OFFCURVE",
"248 179 OFFCURVE",
"255 151 CURVE SMOOTH",
"266 107 LINE SMOOTH",
"285 31 OFFCURVE",
"338 -10 OFFCURVE",
"428 -10 CURVE SMOOTH",
"534 -10 OFFCURVE",
"610 48 OFFCURVE",
"610 146 CURVE SMOOTH",
"610 343 LINE SMOOTH",
"610 494 OFFCURVE",
"513 563 OFFCURVE",
"300 563 CURVE SMOOTH",
"212 563 OFFCURVE",
"121 546 OFFCURVE",
"56 516 CURVE",
"56 358 LINE",
"124 391 OFFCURVE",
"206 411 OFFCURVE",
"278 411 CURVE SMOOTH",
"372 411 OFFCURVE",
"426 377 OFFCURVE",
"426 313 CURVE SMOOTH",
"426 154 LINE SMOOTH",
"426 143 OFFCURVE",
"421 137 OFFCURVE",
"412 137 CURVE SMOOTH",
"403 137 OFFCURVE",
"397 143 OFFCURVE",
"395 153 CURVE SMOOTH",
"377 227 LINE SMOOTH",
"360 297 OFFCURVE",
"302 341 OFFCURVE",
"209 341 CURVE SMOOTH",
"94 341 OFFCURVE",
"25 275 OFFCURVE",
"25 159 CURVE SMOOTH",
"25 55 OFFCURVE",
"80 -10 OFFCURVE",
"176 -10 CURVE SMOOTH"
);
}
);
width = 655;
}
);
note = uni0EA5;
unicode = 0EA5;
},
{
glyphname = "woWi-lao";
lastChange = "2017-01-26 21:57:21 +0000";
layers = (
{
anchors = (
{
name = bottom;
position = "{448, 0}";
},
{
name = top;
position = "{448, 536}";
}
);
layerId = "64BC062E-13E4-450B-B24E-D8A474022433";
paths = (
{
closed = 1;
nodes = (
"426 -10 OFFCURVE",
"488 90 OFFCURVE",
"488 279 CURVE SMOOTH",
"488 467 OFFCURVE",
"427 556 OFFCURVE",
"260 556 CURVE SMOOTH",
"198 556 OFFCURVE",
"134 544 OFFCURVE",
"88 523 CURVE",
"88 497 LINE",
"138 518 OFFCURVE",
"194 534 OFFCURVE",
"256 534 CURVE SMOOTH",
"404 534 OFFCURVE",
"460 459 OFFCURVE",
"460 277 CURVE SMOOTH",
"460 104 OFFCURVE",
"409 15 OFFCURVE",
"264 15 CURVE SMOOTH",
"153 15 OFFCURVE",
"93 67 OFFCURVE",
"93 146 CURVE SMOOTH",
"93 160 OFFCURVE",
"95 169 OFFCURVE",
"99 178 CURVE",
"73 185 LINE",
"67 172 OFFCURVE",
"65 162 OFFCURVE",
"65 147 CURVE SMOOTH",
"65 53 OFFCURVE",
"139 -10 OFFCURVE",
"266 -10 CURVE SMOOTH"
);
}
);
width = 553;
},
{
anchors = (
{
name = bottom;
position = "{487, 0}";
},
{
name = top;
position = "{487, 536}";
}
);
layerId = "6449CA81-A7C3-4005-93E5-765657812F1B";
paths = (
{
closed = 1;
nodes = (
"407 -10 OFFCURVE",
"515 55 OFFCURVE",
"515 274 CURVE SMOOTH",
"515 500 OFFCURVE",
"400 558 OFFCURVE",
"252 558 CURVE SMOOTH",
"170 558 OFFCURVE",
"103 540 OFFCURVE",
"59 517 CURVE",
"59 439 LINE",
"115 468 OFFCURVE",
"175 485 OFFCURVE",
"245 485 CURVE SMOOTH",
"354 485 OFFCURVE",
"427 444 OFFCURVE",
"427 272 CURVE SMOOTH",
"427 113 OFFCURVE",
"365 63 OFFCURVE",
"262 63 CURVE SMOOTH",
"174 63 OFFCURVE",
"126 100 OFFCURVE",
"126 156 CURVE SMOOTH",
"126 170 OFFCURVE",
"129 181 OFFCURVE",
"133 190 CURVE",
"50 213 LINE",
"43 198 OFFCURVE",
"39 182 OFFCURVE",
"39 159 CURVE SMOOTH",
"39 49 OFFCURVE",
"135 -10 OFFCURVE",
"268 -10 CURVE SMOOTH"
);
}
);
width = 586;
},
{
anchors = (
{
name = bottom;
position = "{525, 0}";
},
{
name = top;
position = "{525, 536}";
}
);
layerId = "E5D3352E-10FF-4C03-AD9F-F95B1FD01257";
paths = (
{
closed = 1;
nodes = (
"469 -10 OFFCURVE",
"552 88 OFFCURVE",
"552 274 CURVE SMOOTH",
"552 468 OFFCURVE",
"456 563 OFFCURVE",
"275 563 CURVE SMOOTH",
"198 563 OFFCURVE",
"122 546 OFFCURVE",
"54 513 CURVE",
"54 358 LINE",
"112 393 OFFCURVE",
"181 411 OFFCURVE",
"235 411 CURVE SMOOTH",
"319 411 OFFCURVE",
"360 368 OFFCURVE",
"360 267 CURVE SMOOTH",
"360 182 OFFCURVE",
"331 129 OFFCURVE",
"268 129 CURVE SMOOTH",
"223 129 OFFCURVE",
"190 156 OFFCURVE",
"190 192 CURVE SMOOTH",
"190 208 OFFCURVE",
"195 230 OFFCURVE",
"205 243 CURVE",
"63 292 LINE",
"39 257 OFFCURVE",
"25 222 OFFCURVE",
"25 175 CURVE SMOOTH",
"25 54 OFFCURVE",
"126 -10 OFFCURVE",
"279 -10 CURVE SMOOTH"
);
}
);
width = 580;
}
);
note = uni0EA7;
unicode = 0EA7;
},
{
glyphname = "soSeua-lao";
lastChange = "2017-01-26 21:57:21 +0000";
layers = (
{
anchors = (
{
name = bottom;
position = "{517, 0}";
},
{
name = top;
position = "{517, 536}";
}
);
layerId = "64BC062E-13E4-450B-B24E-D8A474022433";
paths = (
{
closed = 1;
nodes = (
"211 -10 OFFCURVE",
"232 -7 OFFCURVE",
"247 -1 CURVE",
"241 22 LINE",
"231 18 OFFCURVE",
"212 15 OFFCURVE",
"194 15 CURVE SMOOTH",
"131 15 OFFCURVE",
"93 54 OFFCURVE",
"93 142 CURVE SMOOTH",
"93 232 OFFCURVE",
"137 271 OFFCURVE",
"199 271 CURVE SMOOTH",
"257 271 OFFCURVE",
"285 242 OFFCURVE",
"302 193 CURVE SMOOTH",
"344 71 LINE SMOOTH",
"363 16 OFFCURVE",
"389 -10 OFFCURVE",
"445 -10 CURVE SMOOTH",
"505 -10 OFFCURVE",
"530 19 OFFCURVE",
"530 91 CURVE SMOOTH",
"530 351 LINE SMOOTH",
"530 481 OFFCURVE",
"446 556 OFFCURVE",
"279 556 CURVE SMOOTH",
"149 556 OFFCURVE",
"81 508 OFFCURVE",
"81 450 CURVE SMOOTH",
"81 387 OFFCURVE",
"160 350 OFFCURVE",
"273 350 CURVE SMOOTH",
"461 350 OFFCURVE",
"533 447 OFFCURVE",
"533 542 CURVE SMOOTH",
"533 556 LINE",
"502 556 LINE",
"502 538 LINE SMOOTH",
"502 444 OFFCURVE",
"431 375 OFFCURVE",
"275 375 CURVE SMOOTH",
"181 375 OFFCURVE",
"109 401 OFFCURVE",
"109 451 CURVE SMOOTH",
"109 500 OFFCURVE",
"178 531 OFFCURVE",
"282 531 CURVE SMOOTH",
"436 531 OFFCURVE",
"504 466 OFFCURVE",
"504 348 CURVE SMOOTH",
"504 84 LINE SMOOTH",
"504 37 OFFCURVE",
"491 15 OFFCURVE",
"444 15 CURVE SMOOTH",
"404 15 OFFCURVE",
"385 32 OFFCURVE",
"371 73 CURVE SMOOTH",
"328 197 LINE SMOOTH",
"308 255 OFFCURVE",
"278 296 OFFCURVE",
"201 296 CURVE SMOOTH",
"106 296 OFFCURVE",
"65 225 OFFCURVE",
"65 141 CURVE SMOOTH",
"65 48 OFFCURVE",
"109 -10 OFFCURVE",
"192 -10 CURVE SMOOTH"
);
}
);
width = 618;
},
{
anchors = (
{
name = bottom;
position = "{543, 0}";
},
{
name = top;
position = "{553, 536}";
}
);
layerId = "6449CA81-A7C3-4005-93E5-765657812F1B";
paths = (
{
closed = 1;
nodes = (
"215 -10 OFFCURVE",
"234 -6 OFFCURVE",
"249 0 CURVE",
"235 60 LINE",
"224 57 OFFCURVE",
"215 55 OFFCURVE",
"203 55 CURVE SMOOTH",
"158 55 OFFCURVE",
"138 83 OFFCURVE",
"138 134 CURVE SMOOTH",
"138 194 OFFCURVE",
"165 218 OFFCURVE",
"210 218 CURVE SMOOTH",
"247 218 OFFCURVE",
"274 202 OFFCURVE",
"284 168 CURVE SMOOTH",
"313 73 LINE SMOOTH",
"330 18 OFFCURVE",
"364 -10 OFFCURVE",
"430 -10 CURVE SMOOTH",
"504 -10 OFFCURVE",
"553 26 OFFCURVE",
"553 107 CURVE SMOOTH",
"553 347 LINE SMOOTH",
"553 463 OFFCURVE",
"465 558 OFFCURVE",
"271 558 CURVE SMOOTH",
"131 558 OFFCURVE",
"68 508 OFFCURVE",
"68 445 CURVE SMOOTH",
"68 371 OFFCURVE",
"155 333 OFFCURVE",
"261 333 CURVE SMOOTH",
"441 333 OFFCURVE",
"562 444 OFFCURVE",
"562 558 CURVE SMOOTH",
"562 565 LINE",
"484 565 LINE",
"484 558 LINE SMOOTH",
"484 484 OFFCURVE",
"411 398 OFFCURVE",
"257 398 CURVE SMOOTH",
"199 398 OFFCURVE",
"142 410 OFFCURVE",
"142 444 CURVE SMOOTH",
"142 477 OFFCURVE",
"194 493 OFFCURVE",
"261 493 CURVE SMOOTH",
"369 493 OFFCURVE",
"465 451 OFFCURVE",
"465 347 CURVE SMOOTH",
"465 90 LINE SMOOTH",
"465 63 OFFCURVE",
"454 50 OFFCURVE",
"431 50 CURVE SMOOTH",
"412 50 OFFCURVE",
"397 59 OFFCURVE",
"389 84 CURVE SMOOTH",
"357 187 LINE SMOOTH",
"339 246 OFFCURVE",
"293 283 OFFCURVE",
"211 283 CURVE SMOOTH",
"97 283 OFFCURVE",
"60 210 OFFCURVE",
"60 133 CURVE SMOOTH",
"60 54 OFFCURVE",
"98 -10 OFFCURVE",
"192 -10 CURVE SMOOTH"
);
}
);
width = 635;
},
{
anchors = (
{
name = bottom;
position = "{600, 0}";
},
{
name = top;
position = "{610, 536}";
}
);
layerId = "E5D3352E-10FF-4C03-AD9F-F95B1FD01257";
paths = (
{
closed = 1;
nodes = (
"206 -10 OFFCURVE",
"240 -3 OFFCURVE",
"263 9 CURVE",
"233 131 LINE",
"222 128 OFFCURVE",
"211 127 OFFCURVE",
"205 127 CURVE SMOOTH",
"186 127 OFFCURVE",
"174 139 OFFCURVE",
"174 158 CURVE SMOOTH",
"174 178 OFFCURVE",
"187 190 OFFCURVE",
"208 190 CURVE SMOOTH",
"232 190 OFFCURVE",
"246 173 OFFCURVE",
"253 151 CURVE SMOOTH",
"277 76 LINE SMOOTH",
"294 22 OFFCURVE",
"356 -10 OFFCURVE",
"437 -10 CURVE SMOOTH",
"547 -10 OFFCURVE",
"610 48 OFFCURVE",
"610 146 CURVE SMOOTH",
"610 339 LINE SMOOTH",
"610 480 OFFCURVE",
"497 563 OFFCURVE",
"271 563 CURVE SMOOTH",
"111 563 OFFCURVE",
"38 521 OFFCURVE",
"38 449 CURVE SMOOTH",
"38 375 OFFCURVE",
"114 330 OFFCURVE",
"260 330 CURVE SMOOTH",
"460 330 OFFCURVE",
"617 415 OFFCURVE",
"617 558 CURVE SMOOTH",
"617 565 LINE",
"450 565 LINE",
"450 560 LINE SMOOTH",
"450 484 OFFCURVE",
"360 427 OFFCURVE",
"263 427 CURVE SMOOTH",
"231 427 OFFCURVE",
"200 436 OFFCURVE",
"200 444 CURVE SMOOTH",
"200 452 OFFCURVE",
"231 461 OFFCURVE",
"264 461 CURVE SMOOTH",
"368 461 OFFCURVE",
"426 410 OFFCURVE",
"426 324 CURVE SMOOTH",
"426 154 LINE SMOOTH",
"426 143 OFFCURVE",
"421 137 OFFCURVE",
"412 137 CURVE SMOOTH",
"404 137 OFFCURVE",
"398 143 OFFCURVE",
"395 153 CURVE SMOOTH",
"378 214 LINE SMOOTH",
"360 280 OFFCURVE",
"295 313 OFFCURVE",
"208 313 CURVE SMOOTH",
"94 313 OFFCURVE",
"25 257 OFFCURVE",
"25 150 CURVE SMOOTH",
"25 55 OFFCURVE",
"80 -10 OFFCURVE",
"175 -10 CURVE SMOOTH"
);
}
);
width = 662;
}
);
note = uni0EAA;
unicode = 0EAA;
},
{
glyphname = "hoHaan-lao";
lastChange = "2017-01-26 21:57:21 +0000";
layers = (
{
anchors = (
{
name = bottom;
position = "{589, 0}";
},
{
name = top;
position = "{579, 536}";
}
);
layerId = "64BC062E-13E4-450B-B24E-D8A474022433";
paths = (
{
closed = 1;
nodes = (
"310 -10 OFFCURVE",
"350 53 OFFCURVE",
"350 142 CURVE SMOOTH",
"350 340 LINE SMOOTH",
"350 449 OFFCURVE",
"390 531 OFFCURVE",
"477 531 CURVE SMOOTH",
"546 531 OFFCURVE",
"563 479 OFFCURVE",
"563 403 CURVE SMOOTH",
"563 0 LINE",
"589 0 LINE",
"589 404 LINE SMOOTH",
"589 490 OFFCURVE",
"567 556 OFFCURVE",
"478 556 CURVE SMOOTH",
"408 556 OFFCURVE",
"362 515 OFFCURVE",
"342 440 CURVE",
"341 440 LINE",
"333 487 OFFCURVE",
"317 521 OFFCURVE",
"295 556 CURVE",
"276 543 LINE",
"299 513 OFFCURVE",
"324 454 OFFCURVE",
"324 396 CURVE SMOOTH",
"324 143 LINE SMOOTH",
"324 57 OFFCURVE",
"290 15 OFFCURVE",
"217 15 CURVE SMOOTH",
"144 15 OFFCURVE",
"111 57 OFFCURVE",
"111 143 CURVE SMOOTH",
"111 548 LINE",
"85 548 LINE",
"85 142 LINE SMOOTH",
"85 53 OFFCURVE",
"124 -10 OFFCURVE",
"217 -10 CURVE SMOOTH"
);
}
);
width = 674;
},
{
anchors = (
{
name = bottom;
position = "{644, 0}";
},
{
name = top;
position = "{634, 536}";
}
);
layerId = "6449CA81-A7C3-4005-93E5-765657812F1B";
paths = (
{
closed = 1;
nodes = (
"361 -10 OFFCURVE",
"404 58 OFFCURVE",
"404 158 CURVE SMOOTH",
"404 402 LINE SMOOTH",
"404 453 OFFCURVE",
"428 485 OFFCURVE",
"481 485 CURVE SMOOTH",
"533 485 OFFCURVE",
"556 455 OFFCURVE",
"556 402 CURVE SMOOTH",
"556 0 LINE",
"644 0 LINE",
"644 416 LINE SMOOTH",
"644 505 OFFCURVE",
"598 558 OFFCURVE",
"515 558 CURVE SMOOTH",
"467 558 OFFCURVE",
"421 540 OFFCURVE",
"393 509 CURVE",
"389 509 LINE",
"377 533 OFFCURVE",
"357 554 OFFCURVE",
"335 565 CURVE",
"273 520 LINE",
"308 494 OFFCURVE",
"318 468 OFFCURVE",
"318 432 CURVE SMOOTH",
"318 152 LINE SMOOTH",
"318 93 OFFCURVE",
"293 63 OFFCURVE",
"242 63 CURVE SMOOTH",
"191 63 OFFCURVE",
"166 93 OFFCURVE",
"166 152 CURVE SMOOTH",
"166 548 LINE",
"78 548 LINE",
"78 158 LINE SMOOTH",
"78 58 OFFCURVE",
"123 -10 OFFCURVE",
"242 -10 CURVE SMOOTH"
);
}
);
width = 726;
},
{
anchors = (
{
name = bottom;
position = "{679, 0}";
},
{
name = top;
position = "{669, 536}";
}
);
layerId = "E5D3352E-10FF-4C03-AD9F-F95B1FD01257";
paths = (
{
closed = 1;
nodes = (
"370 -10 OFFCURVE",
"443 61 OFFCURVE",
"443 181 CURVE SMOOTH",
"443 387 LINE SMOOTH",
"443 405 OFFCURVE",
"453 416 OFFCURVE",
"470 416 CURVE SMOOTH",
"487 416 OFFCURVE",
"497 405 OFFCURVE",
"497 387 CURVE SMOOTH",
"497 0 LINE",
"679 0 LINE",
"679 419 LINE SMOOTH",
"679 510 OFFCURVE",
"637 563 OFFCURVE",
"566 563 CURVE SMOOTH",
"514 563 OFFCURVE",
"464 535 OFFCURVE",
"434 488 CURVE",
"432 488 LINE",
"421 522 OFFCURVE",
"398 551 OFFCURVE",
"372 565 CURVE",
"246 488 LINE",
"268 468 OFFCURVE",
"281 434 OFFCURVE",
"281 396 CURVE SMOOTH",
"281 166 LINE SMOOTH",
"281 148 OFFCURVE",
"271 137 OFFCURVE",
"254 137 CURVE SMOOTH",
"237 137 OFFCURVE",
"227 148 OFFCURVE",
"227 166 CURVE SMOOTH",
"227 553 LINE",
"45 553 LINE",
"45 181 LINE SMOOTH",
"45 61 OFFCURVE",
"121 -10 OFFCURVE",
"246 -10 CURVE SMOOTH"
);
}
);
width = 724;
}
);
note = uni0EAB;
unicode = 0EAB;
},
{
glyphname = "oO-lao";
lastChange = "2017-01-26 21:57:21 +0000";
layers = (
{
anchors = (
{
name = bottom;
position = "{476, 0}";
},
{
name = top;
position = "{476, 536}";
}
);
layerId = "64BC062E-13E4-450B-B24E-D8A474022433";
paths = (
{
closed = 1;
nodes = (
"444 -10 OFFCURVE",
"526 87 OFFCURVE",
"526 271 CURVE SMOOTH",
"526 457 OFFCURVE",
"442 556 OFFCURVE",
"274 556 CURVE SMOOTH",
"131 556 OFFCURVE",
"60 484 OFFCURVE",
"60 405 CURVE SMOOTH",
"60 324 OFFCURVE",
"135 260 OFFCURVE",
"271 260 CURVE SMOOTH",
"363 260 OFFCURVE",
"470 289 OFFCURVE",
"510 331 CURVE",
"496 355 LINE",
"461 312 OFFCURVE",
"356 285 OFFCURVE",
"273 285 CURVE SMOOTH",
"158 285 OFFCURVE",
"88 337 OFFCURVE",
"88 406 CURVE SMOOTH",
"88 475 OFFCURVE",
"158 531 OFFCURVE",
"279 531 CURVE SMOOTH",
"434 531 OFFCURVE",
"498 440 OFFCURVE",
"498 274 CURVE SMOOTH",
"498 105 OFFCURVE",
"432 15 OFFCURVE",
"287 15 CURVE SMOOTH",
"176 15 OFFCURVE",
"101 67 OFFCURVE",
"101 146 CURVE SMOOTH",
"101 159 OFFCURVE",
"103 169 OFFCURVE",
"107 178 CURVE",
"81 185 LINE",
"76 175 OFFCURVE",
"73 163 OFFCURVE",
"73 146 CURVE SMOOTH",
"73 46 OFFCURVE",
"171 -10 OFFCURVE",
"289 -10 CURVE SMOOTH"
);
}
);
width = 591;
},
{
anchors = (
{
name = bottom;
position = "{518, 0}";
},
{
name = top;
position = "{518, 536}";
}
);
layerId = "6449CA81-A7C3-4005-93E5-765657812F1B";
paths = (
{
closed = 1;
nodes = (
"450 -10 OFFCURVE",
"562 62 OFFCURVE",
"562 269 CURVE SMOOTH",
"562 483 OFFCURVE",
"442 558 OFFCURVE",
"291 558 CURVE SMOOTH",
"144 558 OFFCURVE",
"68 487 OFFCURVE",
"68 395 CURVE SMOOTH",
"68 301 OFFCURVE",
"148 238 OFFCURVE",
"283 238 CURVE SMOOTH",
"361 238 OFFCURVE",
"443 259 OFFCURVE",
"506 304 CURVE",
"473 362 LINE",
"416 321 OFFCURVE",
"342 307 OFFCURVE",
"285 307 CURVE SMOOTH",
"200 307 OFFCURVE",
"148 339 OFFCURVE",
"148 393 CURVE SMOOTH",
"148 452 OFFCURVE",
"210 485 OFFCURVE",
"292 485 CURVE SMOOTH",
"414 485 OFFCURVE",
"474 411 OFFCURVE",
"474 269 CURVE SMOOTH",
"474 130 OFFCURVE",
"417 63 OFFCURVE",
"306 63 CURVE SMOOTH",
"224 63 OFFCURVE",
"149 100 OFFCURVE",
"149 159 CURVE SMOOTH",
"149 169 OFFCURVE",
"151 180 OFFCURVE",
"157 192 CURVE",
"85 213 LINE",
"76 200 OFFCURVE",
"68 185 OFFCURVE",
"68 157 CURVE SMOOTH",
"68 55 OFFCURVE",
"170 -10 OFFCURVE",
"306 -10 CURVE SMOOTH"
);
}
);
width = 620;
},
{
anchors = (
{
name = bottom;
position = "{545, 0}";
},
{
name = top;
position = "{545, 536}";
}
);
layerId = "E5D3352E-10FF-4C03-AD9F-F95B1FD01257";
paths = (
{
closed = 1;
nodes = (
"472 -10 OFFCURVE",
"572 98 OFFCURVE",
"572 275 CURVE SMOOTH",
"572 459 OFFCURVE",
"464 563 OFFCURVE",
"272 563 CURVE SMOOTH",
"120 563 OFFCURVE",
"25 497 OFFCURVE",
"25 386 CURVE SMOOTH",
"25 283 OFFCURVE",
"106 223 OFFCURVE",
"242 223 CURVE SMOOTH",
"318 223 OFFCURVE",
"380 242 OFFCURVE",
"413 275 CURVE",
"373 376 LINE",
"352 358 OFFCURVE",
"316 347 OFFCURVE",
"274 347 CURVE SMOOTH",
"229 347 OFFCURVE",
"202 360 OFFCURVE",
"202 383 CURVE SMOOTH",
"202 407 OFFCURVE",
"230 421 OFFCURVE",
"272 421 CURVE SMOOTH",
"346 421 OFFCURVE",
"388 377 OFFCURVE",
"388 277 CURVE SMOOTH",
"388 190 OFFCURVE",
"354 129 OFFCURVE",
"275 129 CURVE SMOOTH",
"236 129 OFFCURVE",
"190 144 OFFCURVE",
"190 173 CURVE SMOOTH",
"190 177 OFFCURVE",
"191 185 OFFCURVE",
"194 192 CURVE",
"48 237 LINE",
"34 215 OFFCURVE",
"25 186 OFFCURVE",
"25 156 CURVE SMOOTH",
"25 54 OFFCURVE",
"128 -10 OFFCURVE",
"278 -10 CURVE SMOOTH"
);
}
);
width = 600;
}
);
note = uni0EAD;
unicode = 0EAD;
},
{
glyphname = "hoHeuan-lao";
lastChange = "2017-01-26 21:57:21 +0000";
layers = (
{
anchors = (
{
name = bottom;
position = "{420, 0}";
},
{
name = top;
position = "{420, 536}";
}
);
layerId = "64BC062E-13E4-450B-B24E-D8A474022433";
paths = (
{
closed = 1;
nodes = (
"414 -10 OFFCURVE",
"474 56 OFFCURVE",
"474 152 CURVE SMOOTH",
"474 279 OFFCURVE",
"369 303 OFFCURVE",
"253 329 CURVE SMOOTH",
"146 353 OFFCURVE",
"88 369 OFFCURVE",
"88 441 CURVE SMOOTH",
"88 509 OFFCURVE",
"140 531 OFFCURVE",
"196 531 CURVE SMOOTH",
"281 531 OFFCURVE",
"329 479 OFFCURVE",
"396 479 CURVE SMOOTH",
"439 479 OFFCURVE",
"474 501 OFFCURVE",
"474 539 CURVE SMOOTH",
"474 548 LINE",
"448 548 LINE",
"448 539 LINE SMOOTH",
"448 518 OFFCURVE",
"430 504 OFFCURVE",
"398 504 CURVE SMOOTH",
"337 504 OFFCURVE",
"285 556 OFFCURVE",
"194 556 CURVE SMOOTH",
"117 556 OFFCURVE",
"60 518 OFFCURVE",
"60 441 CURVE SMOOTH",
"60 347 OFFCURVE",
"145 327 OFFCURVE",
"242 305 CURVE SMOOTH",
"375 275 OFFCURVE",
"446 255 OFFCURVE",
"446 153 CURVE SMOOTH",
"446 44 OFFCURVE",
"365 15 OFFCURVE",
"269 15 CURVE SMOOTH",
"187 15 OFFCURVE",
"88 36 OFFCURVE",
"88 137 CURVE SMOOTH",
"88 157 OFFCURVE",
"92 172 OFFCURVE",
"97 183 CURVE",
"72 193 LINE",
"64 178 OFFCURVE",
"60 158 OFFCURVE",
"60 137 CURVE SMOOTH",
"60 58 OFFCURVE",
"117 -10 OFFCURVE",
"267 -10 CURVE SMOOTH"
);
}
);
width = 539;
},
{
anchors = (
{
name = bottom;
position = "{513, 0}";
},
{
name = top;
position = "{523, 536}";
}
);
layerId = "6449CA81-A7C3-4005-93E5-765657812F1B";
paths = (
{
closed = 1;
nodes = (
"468 -10 OFFCURVE",
"542 67 OFFCURVE",
"542 157 CURVE SMOOTH",
"542 271 OFFCURVE",
"423 304 OFFCURVE",
"306 337 CURVE SMOOTH",
"213 363 OFFCURVE",
"153 380 OFFCURVE",
"153 437 CURVE SMOOTH",
"153 468 OFFCURVE",
"172 485 OFFCURVE",
"208 485 CURVE SMOOTH",
"282 485 OFFCURVE",
"354 416 OFFCURVE",
"440 416 CURVE SMOOTH",
"492 416 OFFCURVE",
"542 442 OFFCURVE",
"542 523 CURVE SMOOTH",
"542 548 LINE",
"455 548 LINE",
"455 524 LINE SMOOTH",
"455 501 OFFCURVE",
"447 489 OFFCURVE",
"424 489 CURVE SMOOTH",
"368 489 OFFCURVE",
"309 558 OFFCURVE",
"206 558 CURVE SMOOTH",
"133 558 OFFCURVE",
"68 524 OFFCURVE",
"68 437 CURVE SMOOTH",
"68 330 OFFCURVE",
"165 300 OFFCURVE",
"283 266 CURVE SMOOTH",
"404 231 OFFCURVE",
"457 217 OFFCURVE",
"457 156 CURVE SMOOTH",
"457 94 OFFCURVE",
"403 63 OFFCURVE",
"300 63 CURVE SMOOTH",
"202 63 OFFCURVE",
"153 91 OFFCURVE",
"153 152 CURVE SMOOTH",
"153 171 OFFCURVE",
"158 185 OFFCURVE",
"170 198 CURVE",
"100 232 LINE",
"83 216 OFFCURVE",
"68 192 OFFCURVE",
"68 151 CURVE SMOOTH",
"68 58 OFFCURVE",
"146 -10 OFFCURVE",
"302 -10 CURVE SMOOTH"
);
}
);
width = 615;
},
{
anchors = (
{
name = bottom;
position = "{525, 0}";
},
{
name = top;
position = "{525, 536}";
}
);
layerId = "E5D3352E-10FF-4C03-AD9F-F95B1FD01257";
paths = (
{
closed = 1;
nodes = (
"474 -10 OFFCURVE",
"555 60 OFFCURVE",
"555 169 CURVE SMOOTH",
"555 256 OFFCURVE",
"504 302 OFFCURVE",
"341 348 CURVE SMOOTH",
"238 377 OFFCURVE",
"214 384 OFFCURVE",
"214 402 CURVE SMOOTH",
"214 412 OFFCURVE",
"220 416 OFFCURVE",
"236 416 CURVE SMOOTH",
"287 416 OFFCURVE",
"350 377 OFFCURVE",
"428 377 CURVE SMOOTH",
"511 377 OFFCURVE",
"555 421 OFFCURVE",
"555 522 CURVE SMOOTH",
"555 553 LINE",
"386 553 LINE",
"386 540 LINE SMOOTH",
"386 528 OFFCURVE",
"380 521 OFFCURVE",
"366 521 CURVE SMOOTH",
"329 521 OFFCURVE",
"269 563 OFFCURVE",
"185 563 CURVE SMOOTH",
"87 563 OFFCURVE",
"25 506 OFFCURVE",
"25 413 CURVE SMOOTH",
"25 324 OFFCURVE",
"81 286 OFFCURVE",
"207 245 CURVE SMOOTH",
"307 213 OFFCURVE",
"367 203 OFFCURVE",
"367 164 CURVE SMOOTH",
"367 140 OFFCURVE",
"342 125 OFFCURVE",
"286 125 CURVE SMOOTH",
"226 125 OFFCURVE",
"202 142 OFFCURVE",
"202 167 CURVE SMOOTH",
"202 179 OFFCURVE",
"207 190 OFFCURVE",
"215 197 CURVE",
"81 265 LINE",
"52 246 OFFCURVE",
"25 205 OFFCURVE",
"25 153 CURVE SMOOTH",
"25 61 OFFCURVE",
"109 -10 OFFCURVE",
"292 -10 CURVE SMOOTH"
);
}
);
width = 580;
}
);
note = uni0EAE;
unicode = 0EAE;
},
{
glyphname = "khmuGo-lao";
lastChange = "2017-01-26 21:57:21 +0000";
layers = (
{
anchors = (
{
name = bottom;
position = "{540, 0}";
},
{
name = top;
position = "{530, 536}";
}
);
layerId = "64BC062E-13E4-450B-B24E-D8A474022433";
paths = (
{
closed = 1;
nodes = (
"159 -10 OFFCURVE",
"187 19 OFFCURVE",
"187 89 CURVE SMOOTH",
"187 359 LINE SMOOTH",
"187 425 OFFCURVE",
"257 531 OFFCURVE",
"385 531 CURVE SMOOTH",
"494 531 OFFCURVE",
"514 455 OFFCURVE",
"514 366 CURVE SMOOTH",
"514 0 LINE",
"540 0 LINE",
"540 365 LINE SMOOTH",
"540 494 OFFCURVE",
"487 556 OFFCURVE",
"382 556 CURVE SMOOTH",
"276 556 OFFCURVE",
"215 492 OFFCURVE",
"183 427 CURVE",
"182 427 LINE",
"172 480 OFFCURVE",
"158 519 OFFCURVE",
"133 556 CURVE",
"113 543 LINE",
"139 505 OFFCURVE",
"161 449 OFFCURVE",
"161 391 CURVE SMOOTH",
"161 85 LINE SMOOTH",
"161 30 OFFCURVE",
"143 14 OFFCURVE",
"108 14 CURVE SMOOTH",
"93 14 OFFCURVE",
"83 17 OFFCURVE",
"70 21 CURVE",
"65 -2 LINE",
"78 -7 OFFCURVE",
"94 -10 OFFCURVE",
"110 -10 CURVE SMOOTH"
);
},
{
closed = 1;
nodes = (
"613 239 LINE",
"613 263 LINE",
"389 263 LINE SMOOTH",
"358 263 OFFCURVE",
"347 275 OFFCURVE",
"347 295 CURVE SMOOTH",
"347 307 OFFCURVE",
"351 321 OFFCURVE",
"355 329 CURVE",
"331 333 LINE",
"326 323 OFFCURVE",
"322 305 OFFCURVE",
"322 292 CURVE SMOOTH",
"322 262 OFFCURVE",
"341 239 OFFCURVE",
"386 239 CURVE SMOOTH"
);
}
);
width = 633;
},
{
anchors = (
{
name = bottom;
position = "{532, 0}";
},
{
name = top;
position = "{522, 536}";
}
);
layerId = "6449CA81-A7C3-4005-93E5-765657812F1B";
paths = (
{
closed = 1;
nodes = (
"157 -6 OFFCURVE",
"195 37 OFFCURVE",
"195 110 CURVE SMOOTH",
"195 357 LINE SMOOTH",
"195 459 OFFCURVE",
"265 485 OFFCURVE",
"326 485 CURVE SMOOTH",
"411 485 OFFCURVE",
"444 434 OFFCURVE",
"444 347 CURVE SMOOTH",
"444 0 LINE",
"532 0 LINE",
"532 353 LINE SMOOTH",
"532 489 OFFCURVE",
"464 558 OFFCURVE",
"343 558 CURVE SMOOTH",
"278 558 OFFCURVE",
"218 538 OFFCURVE",
"172 477 CURVE",
"169 477 LINE",
"157 508 OFFCURVE",
"134 542 OFFCURVE",
"116 558 CURVE",
"52 509 LINE",
"80 482 OFFCURVE",
"107 439 OFFCURVE",
"107 366 CURVE SMOOTH",
"107 106 LINE SMOOTH",
"107 75 OFFCURVE",
"90 64 OFFCURVE",
"67 64 CURVE SMOOTH",
"57 64 OFFCURVE",
"45 66 OFFCURVE",
"33 70 CURVE",
"20 8 LINE",
"44 -1 OFFCURVE",
"70 -6 OFFCURVE",
"92 -6 CURVE SMOOTH"
);
},
{
closed = 1;
nodes = (
"608 210 LINE",
"608 278 LINE",
"402 278 LINE SMOOTH",
"377 278 OFFCURVE",
"367 292 OFFCURVE",
"367 311 CURVE SMOOTH",
"367 320 OFFCURVE",
"369 335 OFFCURVE",
"372 341 CURVE",
"304 354 LINE",
"295 339 OFFCURVE",
"289 313 OFFCURVE",
"289 293 CURVE SMOOTH",
"289 250 OFFCURVE",
"320 210 OFFCURVE",
"396 210 CURVE SMOOTH"
);
}
);
width = 614;
},
{
anchors = (
{
name = bottom;
position = "{601, 0}";
},
{
name = top;
position = "{591, 536}";
}
);
layerId = "E5D3352E-10FF-4C03-AD9F-F95B1FD01257";
paths = (
{
closed = 1;
nodes = (
"249 -10 OFFCURVE",
"305 43 OFFCURVE",
"305 139 CURVE SMOOTH",
"305 343 LINE SMOOTH",
"305 391 OFFCURVE",
"327 411 OFFCURVE",
"360 411 CURVE SMOOTH",
"395 411 OFFCURVE",
"409 387 OFFCURVE",
"409 341 CURVE SMOOTH",
"409 0 LINE",
"601 0 LINE",
"601 371 LINE SMOOTH",
"601 479 OFFCURVE",
"547 563 OFFCURVE",
"415 563 CURVE SMOOTH",
"336 563 OFFCURVE",
"279 533 OFFCURVE",
"241 488 CURVE",
"238 488 LINE",
"228 515 OFFCURVE",
"208 540 OFFCURVE",
"183 563 CURVE",
"44 459 LINE",
"97 414 OFFCURVE",
"113 379 OFFCURVE",
"113 309 CURVE SMOOTH",
"113 160 LINE SMOOTH",
"113 142 OFFCURVE",
"106 134 OFFCURVE",
"87 134 CURVE SMOOTH",
"74 134 OFFCURVE",
"62 138 OFFCURVE",
"52 142 CURVE",
"25 20 LINE",
"63 0 OFFCURVE",
"120 -10 OFFCURVE",
"159 -10 CURVE SMOOTH"
);
},
{
closed = 1;
nodes = (
"658 160 LINE",
"658 267 LINE",
"428 267 LINE SMOOTH",
"407 267 OFFCURVE",
"394 278 OFFCURVE",
"394 302 CURVE SMOOTH",
"394 313 OFFCURVE",
"397 328 OFFCURVE",
"402 339 CURVE",
"320 339 LINE",
"307 314 OFFCURVE",
"300 295 OFFCURVE",
"300 266 CURVE SMOOTH",
"300 196 OFFCURVE",
"341 160 OFFCURVE",
"410 160 CURVE SMOOTH"
);
}
);
width = 650;
}
);
unicode = 0EDE;
},
{
glyphname = "khmuNyo-lao";
lastChange = "2017-01-26 21:57:21 +0000";
layers = (
{
anchors = (
{
name = bottom;
position = "{466, 0}";
},
{
name = top;
position = "{476, 536}";
}
);
layerId = "64BC062E-13E4-450B-B24E-D8A474022433";
paths = (
{
closed = 1;
nodes = (
"390 -10 OFFCURVE",
"476 45 OFFCURVE",
"476 175 CURVE SMOOTH",
"476 548 LINE",
"450 548 LINE",
"450 169 LINE SMOOTH",
"450 52 OFFCURVE",
"363 15 OFFCURVE",
"272 15 CURVE SMOOTH",
"179 15 OFFCURVE",
"95 53 OFFCURVE",
"95 153 CURVE SMOOTH",
"95 235 OFFCURVE",
"152 279 OFFCURVE",
"218 279 CURVE SMOOTH",
"245 279 LINE",
"245 301 LINE",
"218 301 LINE SMOOTH",
"172 301 OFFCURVE",
"92 331 OFFCURVE",
"92 423 CURVE SMOOTH",
"92 495 OFFCURVE",
"140 531 OFFCURVE",
"210 531 CURVE SMOOTH",
"235 531 OFFCURVE",
"265 526 OFFCURVE",
"279 521 CURVE",
"284 544 LINE",
"264 551 OFFCURVE",
"233 556 OFFCURVE",
"206 556 CURVE SMOOTH",
"123 556 OFFCURVE",
"65 508 OFFCURVE",
"65 422 CURVE SMOOTH",
"65 338 OFFCURVE",
"120 305 OFFCURVE",
"156 291 CURVE",
"156 287 LINE",
"122 273 OFFCURVE",
"68 243 OFFCURVE",
"68 155 CURVE SMOOTH",
"68 50 OFFCURVE",
"145 -10 OFFCURVE",
"270 -10 CURVE SMOOTH"
);
},
{
closed = 1;
nodes = (
"550 239 LINE",
"550 263 LINE",
"376 263 LINE SMOOTH",
"345 263 OFFCURVE",
"334 275 OFFCURVE",
"334 295 CURVE SMOOTH",
"334 307 OFFCURVE",
"338 321 OFFCURVE",
"342 329 CURVE",
"318 333 LINE",
"313 323 OFFCURVE",
"309 305 OFFCURVE",
"309 292 CURVE SMOOTH",
"309 262 OFFCURVE",
"328 239 OFFCURVE",
"373 239 CURVE SMOOTH"
);
}
);
width = 570;
},
{
anchors = (
{
name = bottom;
position = "{522, 0}";
},
{
name = top;
position = "{532, 536}";
}
);
layerId = "6449CA81-A7C3-4005-93E5-765657812F1B";
paths = (
{
closed = 1;
nodes = (
"452 -10 OFFCURVE",
"532 50 OFFCURVE",
"532 189 CURVE SMOOTH",
"532 548 LINE",
"444 548 LINE",
"444 179 LINE SMOOTH",
"444 97 OFFCURVE",
"401 63 OFFCURVE",
"303 63 CURVE SMOOTH",
"199 63 OFFCURVE",
"156 102 OFFCURVE",
"156 169 CURVE SMOOTH",
"156 233 OFFCURVE",
"196 263 OFFCURVE",
"245 263 CURVE SMOOTH",
"264 263 LINE",
"264 328 LINE",
"245 328 LINE SMOOTH",
"216 328 OFFCURVE",
"156 345 OFFCURVE",
"156 412 CURVE SMOOTH",
"156 458 OFFCURVE",
"185 485 OFFCURVE",
"240 485 CURVE SMOOTH",
"266 485 OFFCURVE",
"291 479 OFFCURVE",
"306 474 CURVE",
"321 542 LINE",
"301 551 OFFCURVE",
"265 558 OFFCURVE",
"228 558 CURVE SMOOTH",
"113 558 OFFCURVE",
"68 490 OFFCURVE",
"68 420 CURVE SMOOTH",
"68 344 OFFCURVE",
"121 308 OFFCURVE",
"162 296 CURVE",
"162 292 LINE",
"116 285 OFFCURVE",
"68 248 OFFCURVE",
"68 163 CURVE SMOOTH",
"68 54 OFFCURVE",
"147 -10 OFFCURVE",
"302 -10 CURVE SMOOTH"
);
},
{
closed = 1;
nodes = (
"608 240 LINE",
"608 308 LINE",
"413 308 LINE SMOOTH",
"388 308 OFFCURVE",
"378 322 OFFCURVE",
"378 341 CURVE SMOOTH",
"378 350 OFFCURVE",
"380 365 OFFCURVE",
"383 371 CURVE",
"315 384 LINE",
"306 369 OFFCURVE",
"300 343 OFFCURVE",
"300 323 CURVE SMOOTH",
"300 280 OFFCURVE",
"331 240 OFFCURVE",
"407 240 CURVE SMOOTH"
);
}
);
width = 614;
},
{
anchors = (
{
name = bottom;
position = "{545, 0}";
},
{
name = top;
position = "{555, 536}";
}
);
layerId = "E5D3352E-10FF-4C03-AD9F-F95B1FD01257";
paths = (
{
closed = 1;
nodes = (
"461 -10 OFFCURVE",
"555 57 OFFCURVE",
"555 206 CURVE SMOOTH",
"555 553 LINE",
"363 553 LINE",
"363 199 LINE SMOOTH",
"363 163 OFFCURVE",
"339 142 OFFCURVE",
"287 142 CURVE SMOOTH",
"241 142 OFFCURVE",
"215 158 OFFCURVE",
"215 189 CURVE SMOOTH",
"215 206 OFFCURVE",
"223 224 OFFCURVE",
"239 224 CURVE SMOOTH",
"254 224 LINE",
"254 335 LINE",
"243 335 LINE SMOOTH",
"225 335 OFFCURVE",
"215 351 OFFCURVE",
"215 373 CURVE SMOOTH",
"215 397 OFFCURVE",
"227 411 OFFCURVE",
"251 411 CURVE SMOOTH",
"263 411 OFFCURVE",
"279 408 OFFCURVE",
"291 404 CURVE",
"322 544 LINE",
"287 556 OFFCURVE",
"250 563 OFFCURVE",
"209 563 CURVE SMOOTH",
"76 563 OFFCURVE",
"25 490 OFFCURVE",
"25 411 CURVE SMOOTH",
"25 351 OFFCURVE",
"55 304 OFFCURVE",
"112 280 CURVE",
"112 278 LINE",
"57 258 OFFCURVE",
"25 213 OFFCURVE",
"25 153 CURVE SMOOTH",
"25 52 OFFCURVE",
"116 -10 OFFCURVE",
"285 -10 CURVE SMOOTH"
);
},
{
closed = 1;
nodes = (
"612 205 LINE",
"612 312 LINE",
"385 312 LINE SMOOTH",
"364 312 OFFCURVE",
"351 323 OFFCURVE",
"351 347 CURVE SMOOTH",
"351 358 OFFCURVE",
"354 373 OFFCURVE",
"359 384 CURVE",
"277 384 LINE",
"264 359 OFFCURVE",
"257 340 OFFCURVE",
"257 311 CURVE SMOOTH",
"257 243 OFFCURVE",
"298 205 OFFCURVE",
"367 205 CURVE SMOOTH"
);
}
);
width = 604;
}
);
unicode = 0EDF;
},
{
glyphname = "aVowel-lao";
lastChange = "2017-01-26 21:57:21 +0000";
layers = (
{
layerId = "64BC062E-13E4-450B-B24E-D8A474022433";
paths = (
{
closed = 1;
nodes = (
"273 358 LINE",
"273 380 LINE",
"130 380 LINE SMOOTH",
"101 380 OFFCURVE",
"91 389 OFFCURVE",
"91 413 CURVE SMOOTH",
"91 427 OFFCURVE",
"95 443 OFFCURVE",
"101 458 CURVE",
"76 458 LINE",
"69 445 OFFCURVE",
"65 424 OFFCURVE",
"65 410 CURVE SMOOTH",
"65 381 OFFCURVE",
"83 358 OFFCURVE",
"124 358 CURVE SMOOTH"
);
},
{
closed = 1;
nodes = (
"273 89 LINE",
"273 111 LINE",
"130 111 LINE SMOOTH",
"101 111 OFFCURVE",
"91 120 OFFCURVE",
"91 144 CURVE SMOOTH",
"91 158 OFFCURVE",
"95 174 OFFCURVE",
"101 189 CURVE",
"76 189 LINE",
"69 176 OFFCURVE",
"65 155 OFFCURVE",
"65 141 CURVE SMOOTH",
"65 112 OFFCURVE",
"83 89 OFFCURVE",
"124 89 CURVE SMOOTH"
);
}
);
width = 338;
},
{
layerId = "6449CA81-A7C3-4005-93E5-765657812F1B";
paths = (
{
closed = 1;
nodes = (
"313 359 LINE",
"313 430 LINE",
"150 430 LINE SMOOTH",
"126 430 OFFCURVE",
"118 445 OFFCURVE",
"118 463 CURVE SMOOTH",
"118 477 OFFCURVE",
"122 492 OFFCURVE",
"127 502 CURVE",
"50 502 LINE",
"40 488 OFFCURVE",
"34 465 OFFCURVE",
"34 445 CURVE SMOOTH",
"34 401 OFFCURVE",
"65 359 OFFCURVE",
"148 359 CURVE SMOOTH"
);
},
{
closed = 1;
nodes = (
"313 44 LINE",
"313 116 LINE",
"150 116 LINE SMOOTH",
"126 116 OFFCURVE",
"118 130 OFFCURVE",
"118 149 CURVE SMOOTH",
"118 163 OFFCURVE",
"122 177 OFFCURVE",
"127 188 CURVE",
"50 188 LINE",
"40 173 OFFCURVE",
"34 150 OFFCURVE",
"34 130 CURVE SMOOTH",
"34 86 OFFCURVE",
"65 44 OFFCURVE",
"148 44 CURVE SMOOTH"
);
}
);
width = 372;
},
{
layerId = "E5D3352E-10FF-4C03-AD9F-F95B1FD01257";
paths = (
{
closed = 1;
nodes = (
"315 297 LINE",
"315 439 LINE",
"199 439 LINE SMOOTH",
"175 439 OFFCURVE",
"164 448 OFFCURVE",
"164 470 CURVE SMOOTH",
"164 484 OFFCURVE",
"168 497 OFFCURVE",
"173 507 CURVE",
"41 507 LINE",
"32 482 OFFCURVE",
"25 429 OFFCURVE",
"25 405 CURVE SMOOTH",
"25 350 OFFCURVE",
"60 297 OFFCURVE",
"139 297 CURVE SMOOTH"
);
},
{
closed = 1;
nodes = (
"315 27 LINE",
"315 169 LINE",
"199 169 LINE SMOOTH",
"175 169 OFFCURVE",
"164 178 OFFCURVE",
"164 200 CURVE SMOOTH",
"164 214 OFFCURVE",
"168 227 OFFCURVE",
"173 237 CURVE",
"41 237 LINE",
"32 212 OFFCURVE",
"25 159 OFFCURVE",
"25 135 CURVE SMOOTH",
"25 80 OFFCURVE",
"60 27 OFFCURVE",
"139 27 CURVE SMOOTH"
);
}
);
width = 340;
}
);
note = uni0EB0;
unicode = 0EB0;
},
{
glyphname = "aaVowel-lao";
lastChange = "2017-01-26 21:57:21 +0000";
layers = (
{
layerId = "64BC062E-13E4-450B-B24E-D8A474022433";
paths = (
{
closed = 1;
nodes = (
"261 0 LINE",
"261 441 LINE SMOOTH",
"261 516 OFFCURVE",
"217 556 OFFCURVE",
"141 556 CURVE SMOOTH",
"95 556 OFFCURVE",
"50 541 OFFCURVE",
"25 530 CURVE",
"30 506 LINE",
"53 515 OFFCURVE",
"95 531 OFFCURVE",
"142 531 CURVE SMOOTH",
"211 531 OFFCURVE",
"235 497 OFFCURVE",
"235 439 CURVE SMOOTH",
"235 0 LINE"
);
}
);
width = 346;
},
{
layerId = "6449CA81-A7C3-4005-93E5-765657812F1B";
paths = (
{
closed = 1;
nodes = (
"242 0 LINE",
"242 438 LINE SMOOTH",
"242 522 OFFCURVE",
"187 558 OFFCURVE",
"111 558 CURVE SMOOTH",
"71 558 OFFCURVE",
"28 548 OFFCURVE",
"1 536 CURVE",
"15 471 LINE",
"33 479 OFFCURVE",
"60 488 OFFCURVE",
"92 488 CURVE SMOOTH",
"135 488 OFFCURVE",
"154 471 OFFCURVE",
"154 425 CURVE SMOOTH",
"154 0 LINE"
);
}
);
width = 324;
},
{
layerId = "E5D3352E-10FF-4C03-AD9F-F95B1FD01257";
paths = (
{
closed = 1;
nodes = (
"336 0 LINE",
"336 403 LINE SMOOTH",
"336 507 OFFCURVE",
"282 563 OFFCURVE",
"172 563 CURVE SMOOTH",
"107 563 OFFCURVE",
"50 543 OFFCURVE",
"5 523 CURVE",
"31 394 LINE",
"50 403 OFFCURVE",
"72 411 OFFCURVE",
"97 411 CURVE SMOOTH",
"128 411 OFFCURVE",
"144 398 OFFCURVE",
"144 370 CURVE SMOOTH",
"144 0 LINE"
);
}
);
width = 381;
}
);
note = uni0EB2;
unicode = 0EB2;
},
{
glyphname = "amVowel-lao";
lastChange = "2017-01-26 21:57:21 +0000";
layers = (
{
anchors = (
{
name = top;
position = "{-65, 814}";
}
);
layerId = "64BC062E-13E4-450B-B24E-D8A474022433";
paths = (
{
closed = 1;
nodes = (
"261 0 LINE",
"261 441 LINE SMOOTH",
"261 516 OFFCURVE",
"217 556 OFFCURVE",
"141 556 CURVE SMOOTH",
"95 556 OFFCURVE",
"50 541 OFFCURVE",
"25 530 CURVE",
"30 506 LINE",
"53 515 OFFCURVE",
"95 531 OFFCURVE",
"142 531 CURVE SMOOTH",
"211 531 OFFCURVE",
"235 497 OFFCURVE",
"235 439 CURVE SMOOTH",
"235 0 LINE"
);
},
{
closed = 1;
nodes = (
"-80 626 OFFCURVE",
"-43 662 OFFCURVE",
"-43 719 CURVE SMOOTH",
"-43 776 OFFCURVE",
"-81 812 OFFCURVE",
"-141 812 CURVE SMOOTH",
"-201 812 OFFCURVE",
"-239 776 OFFCURVE",
"-239 719 CURVE SMOOTH",
"-239 662 OFFCURVE",
"-202 626 OFFCURVE",
"-141 626 CURVE SMOOTH"
);
},
{
closed = 1;
nodes = (
"-190 650 OFFCURVE",
"-213 677 OFFCURVE",
"-213 718 CURVE SMOOTH",
"-213 759 OFFCURVE",
"-190 788 OFFCURVE",
"-141 788 CURVE SMOOTH",
"-92 788 OFFCURVE",
"-69 759 OFFCURVE",
"-69 718 CURVE SMOOTH",
"-69 677 OFFCURVE",
"-92 650 OFFCURVE",
"-141 650 CURVE SMOOTH"
);
}
);
width = 346;
},
{
anchors = (
{
name = top;
position = "{-42, 821}";
}
);
layerId = "6449CA81-A7C3-4005-93E5-765657812F1B";
paths = (
{
closed = 1;
nodes = (
"242 0 LINE",
"242 438 LINE SMOOTH",
"242 522 OFFCURVE",
"187 558 OFFCURVE",
"111 558 CURVE SMOOTH",
"71 558 OFFCURVE",
"28 548 OFFCURVE",
"1 536 CURVE",
"15 471 LINE",
"33 479 OFFCURVE",
"60 488 OFFCURVE",
"92 488 CURVE SMOOTH",
"135 488 OFFCURVE",
"154 471 OFFCURVE",
"154 425 CURVE SMOOTH",
"154 0 LINE"
);
},
{
closed = 1;
nodes = (
"-75 621 OFFCURVE",
"-32 661 OFFCURVE",
"-32 721 CURVE SMOOTH",
"-32 781 OFFCURVE",
"-75 821 OFFCURVE",
"-140 821 CURVE SMOOTH",
"-204 821 OFFCURVE",
"-246 781 OFFCURVE",
"-246 721 CURVE SMOOTH",
"-246 661 OFFCURVE",
"-204 621 OFFCURVE",
"-140 621 CURVE SMOOTH"
);
},
{
closed = 1;
nodes = (
"-168 675 OFFCURVE",
"-187 693 OFFCURVE",
"-187 721 CURVE SMOOTH",
"-187 749 OFFCURVE",
"-168 767 OFFCURVE",
"-139 767 CURVE SMOOTH",
"-111 767 OFFCURVE",
"-92 749 OFFCURVE",
"-92 722 CURVE SMOOTH",
"-92 694 OFFCURVE",
"-111 675 OFFCURVE",
"-140 675 CURVE SMOOTH"
);
}
);
width = 324;
},
{
anchors = (
{
name = top;
position = "{-24, 867}";
}
);
layerId = "E5D3352E-10FF-4C03-AD9F-F95B1FD01257";
paths = (
{
closed = 1;
nodes = (
"336 0 LINE",
"336 403 LINE SMOOTH",
"336 507 OFFCURVE",
"282 563 OFFCURVE",
"172 563 CURVE SMOOTH",
"107 563 OFFCURVE",
"50 543 OFFCURVE",
"5 523 CURVE",
"31 394 LINE",
"50 403 OFFCURVE",
"72 411 OFFCURVE",
"97 411 CURVE SMOOTH",
"128 411 OFFCURVE",
"144 398 OFFCURVE",
"144 370 CURVE SMOOTH",
"144 0 LINE"
);
},
{
closed = 1;
nodes = (
"-65 627 OFFCURVE",
"-12 674 OFFCURVE",
"-12 745 CURVE SMOOTH",
"-12 815 OFFCURVE",
"-64 861 OFFCURVE",
"-141 861 CURVE SMOOTH",
"-216 861 OFFCURVE",
"-268 816 OFFCURVE",
"-268 745 CURVE SMOOTH",
"-268 673 OFFCURVE",
"-215 627 OFFCURVE",
"-141 627 CURVE SMOOTH"
);
},
{
closed = 1;
nodes = (
"-163 714 OFFCURVE",
"-175 728 OFFCURVE",
"-175 744 CURVE SMOOTH",
"-175 760 OFFCURVE",
"-163 774 OFFCURVE",
"-141 774 CURVE SMOOTH",
"-119 774 OFFCURVE",
"-107 760 OFFCURVE",
"-107 744 CURVE SMOOTH",
"-107 728 OFFCURVE",
"-119 714 OFFCURVE",
"-141 714 CURVE SMOOTH"
);
}
);
width = 381;
}
);
note = uni0EB3;
unicode = 0EB3;
},
{
glyphname = "nyoVowel-lao";
lastChange = "2017-01-26 21:57:21 +0000";
layers = (
{
layerId = "64BC062E-13E4-450B-B24E-D8A474022433";
paths = (
{
closed = 1;
nodes = (
"416 -191 OFFCURVE",
"458 -96 OFFCURVE",
"458 48 CURVE SMOOTH",
"458 164 LINE SMOOTH",
"458 277 OFFCURVE",
"354 318 OFFCURVE",
"283 343 CURVE SMOOTH",
"188 377 OFFCURVE",
"93 379 OFFCURVE",
"93 455 CURVE SMOOTH",
"93 510 OFFCURVE",
"145 531 OFFCURVE",
"201 531 CURVE SMOOTH",
"286 531 OFFCURVE",
"321 479 OFFCURVE",
"383 479 CURVE SMOOTH",
"426 479 OFFCURVE",
"459 501 OFFCURVE",
"459 539 CURVE SMOOTH",
"459 548 LINE",
"433 548 LINE",
"433 539 LINE SMOOTH",
"433 518 OFFCURVE",
"416 504 OFFCURVE",
"384 504 CURVE SMOOTH",
"329 504 OFFCURVE",
"294 556 OFFCURVE",
"203 556 CURVE SMOOTH",
"128 556 OFFCURVE",
"65 524 OFFCURVE",
"65 455 CURVE SMOOTH",
"65 360 OFFCURVE",
"160 354 OFFCURVE",
"253 325 CURVE SMOOTH",
"332 300 OFFCURVE",
"432 266 OFFCURVE",
"432 165 CURVE SMOOTH",
"432 41 LINE SMOOTH",
"432 -108 OFFCURVE",
"371 -166 OFFCURVE",
"262 -166 CURVE SMOOTH",
"163 -166 OFFCURVE",
"92 -126 OFFCURVE",
"92 -71 CURVE SMOOTH",
"92 -50 OFFCURVE",
"97 -40 OFFCURVE",
"102 -29 CURVE",
"77 -19 LINE",
"69 -34 OFFCURVE",
"65 -49 OFFCURVE",
"65 -70 CURVE SMOOTH",
"65 -142 OFFCURVE",
"145 -191 OFFCURVE",
"259 -191 CURVE SMOOTH"
);
}
);
width = 530;
},
{
layerId = "6449CA81-A7C3-4005-93E5-765657812F1B";
paths = (
{
closed = 1;
nodes = (
"424 -251 OFFCURVE",
"500 -164 OFFCURVE",
"500 -70 CURVE SMOOTH",
"500 122 LINE SMOOTH",
"500 247 OFFCURVE",
"397 297 OFFCURVE",
"264 337 CURVE SMOOTH",
"180 362 OFFCURVE",
"111 377 OFFCURVE",
"111 437 CURVE SMOOTH",
"111 468 OFFCURVE",
"130 485 OFFCURVE",
"166 485 CURVE SMOOTH",
"240 485 OFFCURVE",
"312 416 OFFCURVE",
"398 416 CURVE SMOOTH",
"450 416 OFFCURVE",
"500 442 OFFCURVE",
"500 523 CURVE SMOOTH",
"500 548 LINE",
"413 548 LINE",
"413 524 LINE SMOOTH",
"413 501 OFFCURVE",
"405 489 OFFCURVE",
"382 489 CURVE SMOOTH",
"326 489 OFFCURVE",
"267 558 OFFCURVE",
"164 558 CURVE SMOOTH",
"91 558 OFFCURVE",
"26 524 OFFCURVE",
"26 436 CURVE SMOOTH",
"26 329 OFFCURVE",
"124 300 OFFCURVE",
"241 266 CURVE SMOOTH",
"362 231 OFFCURVE",
"412 190 OFFCURVE",
"412 117 CURVE SMOOTH",
"412 -70 LINE SMOOTH",
"412 -140 OFFCURVE",
"352 -178 OFFCURVE",
"262 -178 CURVE SMOOTH",
"175 -178 OFFCURVE",
"127 -142 OFFCURVE",
"127 -86 CURVE SMOOTH",
"127 -66 OFFCURVE",
"133 -54 OFFCURVE",
"142 -42 CURVE",
"66 -6 LINE",
"47 -29 OFFCURVE",
"40 -53 OFFCURVE",
"40 -82 CURVE SMOOTH",
"40 -192 OFFCURVE",
"138 -251 OFFCURVE",
"267 -251 CURVE SMOOTH"
);
}
);
width = 574;
},
{
layerId = "E5D3352E-10FF-4C03-AD9F-F95B1FD01257";
paths = (
{
closed = 1;
nodes = (
"463 -256 OFFCURVE",
"562 -165 OFFCURVE",
"562 -11 CURVE SMOOTH",
"562 74 LINE SMOOTH",
"562 212 OFFCURVE",
"494 277 OFFCURVE",
"344 340 CURVE SMOOTH",
"282 366 OFFCURVE",
"214 387 OFFCURVE",
"214 407 CURVE SMOOTH",
"214 413 OFFCURVE",
"221 416 OFFCURVE",
"236 416 CURVE SMOOTH",
"289 416 OFFCURVE",
"347 377 OFFCURVE",
"430 377 CURVE SMOOTH",
"518 377 OFFCURVE",
"555 420 OFFCURVE",
"555 522 CURVE SMOOTH",
"555 553 LINE",
"386 553 LINE",
"386 540 LINE SMOOTH",
"386 526 OFFCURVE",
"380 521 OFFCURVE",
"366 521 CURVE SMOOTH",
"328 521 OFFCURVE",
"275 563 OFFCURVE",
"185 563 CURVE SMOOTH",
"84 563 OFFCURVE",
"25 511 OFFCURVE",
"25 412 CURVE SMOOTH",
"25 306 OFFCURVE",
"93 264 OFFCURVE",
"209 215 CURVE SMOOTH",
"297 178 OFFCURVE",
"378 143 OFFCURVE",
"378 62 CURVE SMOOTH",
"378 -12 LINE SMOOTH",
"378 -85 OFFCURVE",
"346 -123 OFFCURVE",
"286 -123 CURVE SMOOTH",
"231 -123 OFFCURVE",
"203 -103 OFFCURVE",
"203 -66 CURVE SMOOTH",
"203 -50 OFFCURVE",
"209 -43 OFFCURVE",
"219 -35 CURVE",
"81 32 LINE",
"46 5 OFFCURVE",
"28 -34 OFFCURVE",
"28 -77 CURVE SMOOTH",
"28 -192 OFFCURVE",
"129 -256 OFFCURVE",
"284 -256 CURVE SMOOTH"
);
}
);
width = 592;
}
);
note = uni0EBD;
unicode = 0EBD;
},
{
glyphname = "eVowel-lao";
lastChange = "2017-01-26 21:57:21 +0000";
layers = (
{
layerId = "64BC062E-13E4-450B-B24E-D8A474022433";
paths = (
{
closed = 1;
nodes = (
"193 -10 OFFCURVE",
"211 -2 OFFCURVE",
"231 7 CURVE",
"226 31 LINE",
"203 20 OFFCURVE",
"185 15 OFFCURVE",
"164 15 CURVE SMOOTH",
"127 15 OFFCURVE",
"111 31 OFFCURVE",
"111 87 CURVE SMOOTH",
"111 553 LINE",
"85 553 LINE",
"85 85 LINE SMOOTH",
"85 13 OFFCURVE",
"115 -10 OFFCURVE",
"164 -10 CURVE SMOOTH"
);
}
);
width = 256;
},
{
layerId = "6449CA81-A7C3-4005-93E5-765657812F1B";
paths = (
{
closed = 1;
nodes = (
"210 -10 OFFCURVE",
"236 -7 OFFCURVE",
"261 4 CURVE",
"248 68 LINE",
"237 64 OFFCURVE",
"224 62 OFFCURVE",
"211 62 CURVE SMOOTH",
"178 62 OFFCURVE",
"166 75 OFFCURVE",
"166 105 CURVE SMOOTH",
"166 548 LINE",
"78 548 LINE",
"78 100 LINE SMOOTH",
"78 18 OFFCURVE",
"131 -10 OFFCURVE",
"191 -10 CURVE SMOOTH"
);
}
);
width = 281;
},
{
layerId = "E5D3352E-10FF-4C03-AD9F-F95B1FD01257";
paths = (
{
closed = 1;
nodes = (
"236 -10 OFFCURVE",
"278 0 OFFCURVE",
"322 22 CURVE",
"297 132 LINE",
"282 128 OFFCURVE",
"270 125 OFFCURVE",
"260 125 CURVE SMOOTH",
"244 125 OFFCURVE",
"237 132 OFFCURVE",
"237 149 CURVE SMOOTH",
"237 553 LINE",
"45 553 LINE",
"45 134 LINE SMOOTH",
"45 30 OFFCURVE",
"103 -10 OFFCURVE",
"192 -10 CURVE SMOOTH"
);
}
);
width = 327;
}
);
note = uni0EC0;
unicode = 0EC0;
},
{
glyphname = "aeVowel-lao";
lastChange = "2017-01-26 21:57:21 +0000";
layers = (
{
layerId = "64BC062E-13E4-450B-B24E-D8A474022433";
paths = (
{
closed = 1;
nodes = (
"421 -10 OFFCURVE",
"439 -2 OFFCURVE",
"459 7 CURVE",
"454 31 LINE",
"431 20 OFFCURVE",
"413 15 OFFCURVE",
"392 15 CURVE SMOOTH",
"355 15 OFFCURVE",
"339 31 OFFCURVE",
"339 87 CURVE SMOOTH",
"339 553 LINE",
"313 553 LINE",
"313 85 LINE SMOOTH",
"313 13 OFFCURVE",
"343 -10 OFFCURVE",
"392 -10 CURVE SMOOTH"
);
},
{
closed = 1;
nodes = (
"193 -10 OFFCURVE",
"211 -2 OFFCURVE",
"231 7 CURVE",
"226 31 LINE",
"203 20 OFFCURVE",
"185 15 OFFCURVE",
"164 15 CURVE SMOOTH",
"127 15 OFFCURVE",
"111 31 OFFCURVE",
"111 87 CURVE SMOOTH",
"111 553 LINE",
"85 553 LINE",
"85 85 LINE SMOOTH",
"85 13 OFFCURVE",
"115 -10 OFFCURVE",
"164 -10 CURVE SMOOTH"
);
}
);
width = 484;
},
{
layerId = "6449CA81-A7C3-4005-93E5-765657812F1B";
paths = (
{
closed = 1;
nodes = (
"444 -10 OFFCURVE",
"470 -7 OFFCURVE",
"495 4 CURVE",
"482 68 LINE",
"471 64 OFFCURVE",
"458 62 OFFCURVE",
"445 62 CURVE SMOOTH",
"412 62 OFFCURVE",
"400 75 OFFCURVE",
"400 105 CURVE SMOOTH",
"400 548 LINE",
"312 548 LINE",
"312 100 LINE SMOOTH",
"312 18 OFFCURVE",
"365 -10 OFFCURVE",
"425 -10 CURVE SMOOTH"
);
},
{
closed = 1;
nodes = (
"210 -10 OFFCURVE",
"236 -7 OFFCURVE",
"261 4 CURVE",
"248 68 LINE",
"237 64 OFFCURVE",
"224 62 OFFCURVE",
"211 62 CURVE SMOOTH",
"178 62 OFFCURVE",
"166 75 OFFCURVE",
"166 105 CURVE SMOOTH",
"166 548 LINE",
"78 548 LINE",
"78 100 LINE SMOOTH",
"78 18 OFFCURVE",
"131 -10 OFFCURVE",
"191 -10 CURVE SMOOTH"
);
}
);
width = 515;
},
{
layerId = "E5D3352E-10FF-4C03-AD9F-F95B1FD01257";
paths = (
{
closed = 1;
nodes = (
"529 -10 OFFCURVE",
"571 0 OFFCURVE",
"614 22 CURVE",
"590 132 LINE",
"575 128 OFFCURVE",
"563 125 OFFCURVE",
"553 125 CURVE SMOOTH",
"537 125 OFFCURVE",
"530 132 OFFCURVE",
"530 149 CURVE SMOOTH",
"530 553 LINE",
"342 553 LINE",
"342 134 LINE SMOOTH",
"342 27 OFFCURVE",
"398 -10 OFFCURVE",
"484 -10 CURVE SMOOTH"
);
},
{
closed = 1;
nodes = (
"232 -10 OFFCURVE",
"274 0 OFFCURVE",
"317 22 CURVE",
"293 132 LINE",
"278 128 OFFCURVE",
"266 125 OFFCURVE",
"256 125 CURVE SMOOTH",
"240 125 OFFCURVE",
"233 132 OFFCURVE",
"233 149 CURVE SMOOTH",
"233 553 LINE",
"45 553 LINE",
"45 134 LINE SMOOTH",
"45 27 OFFCURVE",
"101 -10 OFFCURVE",
"187 -10 CURVE SMOOTH"
);
}
);
width = 619;
}
);
note = uni0EC1;
unicode = 0EC1;
},
{
glyphname = "oVowel-lao";
lastChange = "2017-01-26 21:57:21 +0000";
layers = (
{
layerId = "64BC062E-13E4-450B-B24E-D8A474022433";
paths = (
{
closed = 1;
nodes = (
"261 -10 OFFCURVE",
"279 -2 OFFCURVE",
"299 7 CURVE",
"294 31 LINE",
"271 20 OFFCURVE",
"253 15 OFFCURVE",
"232 15 CURVE SMOOTH",
"195 15 OFFCURVE",
"179 31 OFFCURVE",
"179 87 CURVE SMOOTH",
"179 516 LINE SMOOTH",
"179 635 OFFCURVE",
"51 655 OFFCURVE",
"51 746 CURVE SMOOTH",
"51 787 OFFCURVE",
"77 815 OFFCURVE",
"148 815 CURVE SMOOTH",
"284 815 LINE",
"284 837 LINE",
"144 837 LINE SMOOTH",
"60 837 OFFCURVE",
"25 796 OFFCURVE",
"25 746 CURVE SMOOTH",
"25 649 OFFCURVE",
"153 621 OFFCURVE",
"153 523 CURVE SMOOTH",
"153 85 LINE SMOOTH",
"153 13 OFFCURVE",
"183 -10 OFFCURVE",
"232 -10 CURVE SMOOTH"
);
}
);
width = 344;
},
{
layerId = "6449CA81-A7C3-4005-93E5-765657812F1B";
paths = (
{
closed = 1;
nodes = (
"210 -10 OFFCURVE",
"236 -7 OFFCURVE",
"261 4 CURVE",
"248 68 LINE",
"237 64 OFFCURVE",
"224 62 OFFCURVE",
"211 62 CURVE SMOOTH",
"178 62 OFFCURVE",
"166 75 OFFCURVE",
"166 105 CURVE SMOOTH",
"166 521 LINE SMOOTH",
"166 642 OFFCURVE",
"50 668 OFFCURVE",
"50 720 CURVE SMOOTH",
"50 734 OFFCURVE",
"58 769 OFFCURVE",
"106 769 CURVE SMOOTH",
"260 769 LINE",
"260 837 LINE",
"104 837 LINE SMOOTH",
"11 837 OFFCURVE",
"-34 791 OFFCURVE",
"-34 728 CURVE SMOOTH",
"-34 628 OFFCURVE",
"78 625 OFFCURVE",
"78 528 CURVE SMOOTH",
"78 100 LINE SMOOTH",
"78 18 OFFCURVE",
"131 -10 OFFCURVE",
"191 -10 CURVE SMOOTH"
);
}
);
width = 280;
},
{
layerId = "E5D3352E-10FF-4C03-AD9F-F95B1FD01257";
paths = (
{
closed = 1;
nodes = (
"305 -10 OFFCURVE",
"347 0 OFFCURVE",
"391 22 CURVE",
"366 132 LINE",
"351 128 OFFCURVE",
"339 125 OFFCURVE",
"329 125 CURVE SMOOTH",
"313 125 OFFCURVE",
"306 132 OFFCURVE",
"306 149 CURVE SMOOTH",
"306 477 LINE SMOOTH",
"306 575 OFFCURVE",
"188 640 OFFCURVE",
"188 687 CURVE SMOOTH",
"188 700 OFFCURVE",
"197 709 OFFCURVE",
"212 709 CURVE SMOOTH",
"394 709 LINE",
"394 837 LINE",
"163 837 LINE SMOOTH",
"62 837 OFFCURVE",
"5 799 OFFCURVE",
"5 709 CURVE SMOOTH",
"5 584 OFFCURVE",
"114 566 OFFCURVE",
"114 464 CURVE SMOOTH",
"114 134 LINE SMOOTH",
"114 30 OFFCURVE",
"172 -10 OFFCURVE",
"261 -10 CURVE SMOOTH"
);
}
);
width = 399;
}
);
note = uni0EC2;
unicode = 0EC2;
},
{
glyphname = "ayMaiMuanVowel-lao";
lastChange = "2017-01-26 21:57:21 +0000";
layers = (
{
layerId = "64BC062E-13E4-450B-B24E-D8A474022433";
paths = (
{
closed = 1;
nodes = (
"258 -10 OFFCURVE",
"276 -2 OFFCURVE",
"296 7 CURVE",
"291 31 LINE",
"268 20 OFFCURVE",
"250 15 OFFCURVE",
"229 15 CURVE SMOOTH",
"192 15 OFFCURVE",
"176 31 OFFCURVE",
"176 87 CURVE SMOOTH",
"176 482 LINE SMOOTH",
"176 595 OFFCURVE",
"296 638 OFFCURVE",
"296 738 CURVE SMOOTH",
"296 810 OFFCURVE",
"233 853 OFFCURVE",
"162 853 CURVE SMOOTH",
"96 853 OFFCURVE",
"25 815 OFFCURVE",
"25 742 CURVE SMOOTH",
"25 728 LINE",
"51 728 LINE",
"51 742 LINE",
"53 798 OFFCURVE",
"97 828 OFFCURVE",
"161 828 CURVE SMOOTH",
"232 828 OFFCURVE",
"268 790 OFFCURVE",
"268 738 CURVE SMOOTH",
"268 644 OFFCURVE",
"150 601 OFFCURVE",
"150 484 CURVE SMOOTH",
"150 85 LINE SMOOTH",
"150 13 OFFCURVE",
"180 -10 OFFCURVE",
"229 -10 CURVE SMOOTH"
);
}
);
width = 341;
},
{
layerId = "6449CA81-A7C3-4005-93E5-765657812F1B";
paths = (
{
closed = 1;
nodes = (
"210 -10 OFFCURVE",
"236 -7 OFFCURVE",
"261 4 CURVE",
"248 68 LINE",
"237 64 OFFCURVE",
"224 62 OFFCURVE",
"211 62 CURVE SMOOTH",
"178 62 OFFCURVE",
"166 75 OFFCURVE",
"166 105 CURVE SMOOTH",
"166 528 LINE SMOOTH",
"166 617 OFFCURVE",
"271 624 OFFCURVE",
"271 723 CURVE SMOOTH",
"271 809 OFFCURVE",
"193 851 OFFCURVE",
"118 851 CURVE SMOOTH",
"43 851 OFFCURVE",
"-35 810 OFFCURVE",
"-35 721 CURVE SMOOTH",
"-35 699 LINE",
"49 699 LINE",
"49 721 LINE SMOOTH",
"49 757 OFFCURVE",
"76 778 OFFCURVE",
"118 778 CURVE SMOOTH",
"160 778 OFFCURVE",
"187 756 OFFCURVE",
"187 724 CURVE SMOOTH",
"187 660 OFFCURVE",
"78 632 OFFCURVE",
"78 521 CURVE SMOOTH",
"78 100 LINE SMOOTH",
"78 18 OFFCURVE",
"131 -10 OFFCURVE",
"191 -10 CURVE SMOOTH"
);
}
);
width = 280;
},
{
layerId = "E5D3352E-10FF-4C03-AD9F-F95B1FD01257";
paths = (
{
closed = 1;
nodes = (
"318 -10 OFFCURVE",
"360 0 OFFCURVE",
"404 22 CURVE",
"379 132 LINE",
"364 128 OFFCURVE",
"352 125 OFFCURVE",
"342 125 CURVE SMOOTH",
"326 125 OFFCURVE",
"319 132 OFFCURVE",
"319 149 CURVE SMOOTH",
"319 406 LINE SMOOTH",
"319 524 OFFCURVE",
"439 565 OFFCURVE",
"439 688 CURVE SMOOTH",
"439 791 OFFCURVE",
"356 853 OFFCURVE",
"219 853 CURVE SMOOTH",
"60 853 OFFCURVE",
"-5 770 OFFCURVE",
"-5 651 CURVE SMOOTH",
"-5 637 LINE",
"160 637 LINE",
"160 651 LINE SMOOTH",
"160 687 OFFCURVE",
"172 715 OFFCURVE",
"205 715 CURVE SMOOTH",
"233 715 OFFCURVE",
"246 692 OFFCURVE",
"246 669 CURVE SMOOTH",
"246 590 OFFCURVE",
"127 524 OFFCURVE",
"127 402 CURVE SMOOTH",
"127 134 LINE SMOOTH",
"127 30 OFFCURVE",
"185 -10 OFFCURVE",
"274 -10 CURVE SMOOTH"
);
}
);
width = 414;
}
);
note = uni0EC3;
unicode = 0EC3;
},
{
glyphname = "aiMaiMayVowel-lao";
lastChange = "2017-01-26 21:57:21 +0000";
layers = (
{
layerId = "64BC062E-13E4-450B-B24E-D8A474022433";
paths = (
{
closed = 1;
nodes = (
"240 -10 OFFCURVE",
"258 -2 OFFCURVE",
"278 7 CURVE",
"273 31 LINE",
"250 20 OFFCURVE",
"232 15 OFFCURVE",
"211 15 CURVE SMOOTH",
"174 15 OFFCURVE",
"158 31 OFFCURVE",
"158 87 CURVE SMOOTH",
"158 538 LINE SMOOTH",
"158 658 OFFCURVE",
"206 739 OFFCURVE",
"288 810 CURVE",
"288 837 LINE",
"32 837 LINE",
"25 815 LINE",
"257 815 LINE",
"257 811 LINE",
"205 764 OFFCURVE",
"132 678 OFFCURVE",
"132 529 CURVE SMOOTH",
"132 85 LINE SMOOTH",
"132 13 OFFCURVE",
"162 -10 OFFCURVE",
"211 -10 CURVE SMOOTH"
);
}
);
width = 323;
},
{
layerId = "6449CA81-A7C3-4005-93E5-765657812F1B";
paths = (
{
closed = 1;
nodes = (
"248 -10 OFFCURVE",
"274 -7 OFFCURVE",
"299 4 CURVE",
"286 68 LINE",
"275 64 OFFCURVE",
"262 62 OFFCURVE",
"249 62 CURVE SMOOTH",
"216 62 OFFCURVE",
"204 75 OFFCURVE",
"204 105 CURVE SMOOTH",
"204 553 LINE SMOOTH",
"204 673 OFFCURVE",
"245 729 OFFCURVE",
"304 752 CURVE",
"304 841 LINE",
"6 841 LINE",
"-22 770 LINE",
"214 770 LINE",
"215 765 LINE",
"167 742 OFFCURVE",
"116 676 OFFCURVE",
"116 536 CURVE SMOOTH",
"116 100 LINE SMOOTH",
"116 18 OFFCURVE",
"169 -10 OFFCURVE",
"229 -10 CURVE SMOOTH"
);
}
);
width = 324;
},
{
layerId = "E5D3352E-10FF-4C03-AD9F-F95B1FD01257";
paths = (
{
closed = 1;
nodes = (
"283 -10 OFFCURVE",
"325 0 OFFCURVE",
"369 22 CURVE",
"344 132 LINE",
"329 128 OFFCURVE",
"317 125 OFFCURVE",
"307 125 CURVE SMOOTH",
"291 125 OFFCURVE",
"284 132 OFFCURVE",
"284 149 CURVE SMOOTH",
"284 531 LINE SMOOTH",
"284 625 OFFCURVE",
"305 679 OFFCURVE",
"375 707 CURVE",
"375 837 LINE",
"28 837 LINE",
"-15 709 LINE",
"169 709 LINE",
"170 705 LINE",
"120 668 OFFCURVE",
"92 586 OFFCURVE",
"92 507 CURVE SMOOTH",
"92 134 LINE SMOOTH",
"92 30 OFFCURVE",
"150 -10 OFFCURVE",
"239 -10 CURVE SMOOTH"
);
}
);
width = 380;
}
);
note = uni0EC4;
unicode = 0EC4;
},
{
glyphname = "amVowel-lao.narrow";
lastChange = "2017-01-26 21:57:21 +0000";
layers = (
{
anchors = (
{
name = top;
position = "{-205, 814}";
}
);
layerId = "64BC062E-13E4-450B-B24E-D8A474022433";
paths = (
{
closed = 1;
nodes = (
"261 0 LINE",
"261 441 LINE SMOOTH",
"261 516 OFFCURVE",
"217 556 OFFCURVE",
"141 556 CURVE SMOOTH",
"95 556 OFFCURVE",
"50 541 OFFCURVE",
"25 530 CURVE",
"30 506 LINE",
"53 515 OFFCURVE",
"95 531 OFFCURVE",
"142 531 CURVE SMOOTH",
"211 531 OFFCURVE",
"235 497 OFFCURVE",
"235 439 CURVE SMOOTH",
"235 0 LINE"
);
},
{
closed = 1;
nodes = (
"-220 626 OFFCURVE",
"-183 662 OFFCURVE",
"-183 719 CURVE SMOOTH",
"-183 776 OFFCURVE",
"-221 812 OFFCURVE",
"-281 812 CURVE SMOOTH",
"-341 812 OFFCURVE",
"-379 776 OFFCURVE",
"-379 719 CURVE SMOOTH",
"-379 662 OFFCURVE",
"-342 626 OFFCURVE",
"-281 626 CURVE SMOOTH"
);
},
{
closed = 1;
nodes = (
"-330 650 OFFCURVE",
"-353 677 OFFCURVE",
"-353 718 CURVE SMOOTH",
"-353 759 OFFCURVE",
"-330 788 OFFCURVE",
"-281 788 CURVE SMOOTH",
"-232 788 OFFCURVE",
"-209 759 OFFCURVE",
"-209 718 CURVE SMOOTH",
"-209 677 OFFCURVE",
"-232 650 OFFCURVE",
"-281 650 CURVE SMOOTH"
);
}
);
width = 346;
},
{
anchors = (
{
name = top;
position = "{-215, 821}";
}
);
layerId = "6449CA81-A7C3-4005-93E5-765657812F1B";
paths = (
{
closed = 1;
nodes = (
"242 0 LINE",
"242 438 LINE SMOOTH",
"242 522 OFFCURVE",
"187 558 OFFCURVE",
"111 558 CURVE SMOOTH",
"71 558 OFFCURVE",
"28 548 OFFCURVE",
"1 536 CURVE",
"15 471 LINE",
"33 479 OFFCURVE",
"60 488 OFFCURVE",
"92 488 CURVE SMOOTH",
"135 488 OFFCURVE",
"154 471 OFFCURVE",
"154 425 CURVE SMOOTH",
"154 0 LINE"
);
},
{
closed = 1;
nodes = (
"-248 621 OFFCURVE",
"-205 661 OFFCURVE",
"-205 721 CURVE SMOOTH",
"-205 781 OFFCURVE",
"-248 821 OFFCURVE",
"-313 821 CURVE SMOOTH",
"-377 821 OFFCURVE",
"-419 781 OFFCURVE",
"-419 721 CURVE SMOOTH",
"-419 661 OFFCURVE",
"-377 621 OFFCURVE",
"-313 621 CURVE SMOOTH"
);
},
{
closed = 1;
nodes = (
"-341 675 OFFCURVE",
"-360 693 OFFCURVE",
"-360 721 CURVE SMOOTH",
"-360 749 OFFCURVE",
"-341 767 OFFCURVE",
"-312 767 CURVE SMOOTH",
"-284 767 OFFCURVE",
"-265 749 OFFCURVE",
"-265 722 CURVE SMOOTH",
"-265 694 OFFCURVE",
"-284 675 OFFCURVE",
"-313 675 CURVE SMOOTH"
);
}
);
width = 324;
},
{
anchors = (
{
name = top;
position = "{-282, 867}";
}
);
layerId = "E5D3352E-10FF-4C03-AD9F-F95B1FD01257";
paths = (
{
closed = 1;
nodes = (
"336 0 LINE",
"336 403 LINE SMOOTH",
"336 507 OFFCURVE",
"286 563 OFFCURVE",
"164 563 CURVE SMOOTH",
"115 563 OFFCURVE",
"51 544 OFFCURVE",
"5 523 CURVE",
"31 394 LINE",
"50 403 OFFCURVE",
"71 411 OFFCURVE",
"100 411 CURVE SMOOTH",
"128 411 OFFCURVE",
"144 397 OFFCURVE",
"144 370 CURVE SMOOTH",
"144 0 LINE"
);
},
{
closed = 1;
nodes = (
"-323 627 OFFCURVE",
"-270 674 OFFCURVE",
"-270 745 CURVE SMOOTH",
"-270 815 OFFCURVE",
"-322 861 OFFCURVE",
"-399 861 CURVE SMOOTH",
"-474 861 OFFCURVE",
"-526 816 OFFCURVE",
"-526 745 CURVE SMOOTH",
"-526 673 OFFCURVE",
"-473 627 OFFCURVE",
"-399 627 CURVE SMOOTH"
);
},
{
closed = 1;
nodes = (
"-421 714 OFFCURVE",
"-433 728 OFFCURVE",
"-433 744 CURVE SMOOTH",
"-433 760 OFFCURVE",
"-421 774 OFFCURVE",
"-399 774 CURVE SMOOTH",
"-377 774 OFFCURVE",
"-365 760 OFFCURVE",
"-365 744 CURVE SMOOTH",
"-365 728 OFFCURVE",
"-377 714 OFFCURVE",
"-399 714 CURVE SMOOTH"
);
}
);
width = 381;
}
);
note = saraamlaonorm;
},
{
glyphname = "hoNo-lao";
lastChange = "2017-01-26 21:57:21 +0000";
layers = (
{
anchors = (
{
name = bottom;
position = "{818, 0}";
},
{
name = top;
position = "{828, 536}";
}
);
layerId = "64BC062E-13E4-450B-B24E-D8A474022433";
paths = (
{
closed = 1;
nodes = (
"310 -10 OFFCURVE",
"350 53 OFFCURVE",
"350 142 CURVE SMOOTH",
"350 340 LINE SMOOTH",
"350 449 OFFCURVE",
"390 531 OFFCURVE",
"477 531 CURVE SMOOTH",
"546 531 OFFCURVE",
"563 479 OFFCURVE",
"563 403 CURVE SMOOTH",
"563 155 LINE SMOOTH",
"563 97 OFFCURVE",
"541 41 OFFCURVE",
"515 3 CURVE",
"535 -10 LINE",
"560 27 OFFCURVE",
"572 62 OFFCURVE",
"580 110 CURVE",
"581 110 LINE",
"601 30 OFFCURVE",
"643 -10 OFFCURVE",
"713 -10 CURVE SMOOTH",
"802 -10 OFFCURVE",
"828 56 OFFCURVE",
"828 142 CURVE SMOOTH",
"828 548 LINE",
"802 548 LINE",
"802 143 LINE SMOOTH",
"802 67 OFFCURVE",
"785 15 OFFCURVE",
"716 15 CURVE SMOOTH",
"629 15 OFFCURVE",
"589 97 OFFCURVE",
"589 206 CURVE SMOOTH",
"589 404 LINE SMOOTH",
"589 490 OFFCURVE",
"569 556 OFFCURVE",
"480 556 CURVE SMOOTH",
"410 556 OFFCURVE",
"362 516 OFFCURVE",
"342 436 CURVE",
"341 436 LINE",
"333 484 OFFCURVE",
"321 519 OFFCURVE",
"296 556 CURVE",
"276 543 LINE",
"302 505 OFFCURVE",
"324 449 OFFCURVE",
"324 391 CURVE SMOOTH",
"324 143 LINE SMOOTH",
"324 57 OFFCURVE",
"290 15 OFFCURVE",
"217 15 CURVE SMOOTH",
"144 15 OFFCURVE",
"111 57 OFFCURVE",
"111 143 CURVE SMOOTH",
"111 548 LINE",
"85 548 LINE",
"85 142 LINE SMOOTH",
"85 53 OFFCURVE",
"124 -10 OFFCURVE",
"217 -10 CURVE SMOOTH"
);
}
);
width = 913;
},
{
anchors = (
{
name = bottom;
position = "{885, 0}";
},
{
name = top;
position = "{885, 536}";
}
);
layerId = "6449CA81-A7C3-4005-93E5-765657812F1B";
paths = (
{
closed = 1;
nodes = (
"348 -10 OFFCURVE",
"404 48 OFFCURVE",
"404 158 CURVE SMOOTH",
"404 402 LINE SMOOTH",
"404 457 OFFCURVE",
"431 485 OFFCURVE",
"482 485 CURVE SMOOTH",
"533 485 OFFCURVE",
"559 457 OFFCURVE",
"559 402 CURVE SMOOTH",
"559 182 LINE SMOOTH",
"559 123 OFFCURVE",
"539 74 OFFCURVE",
"502 39 CURVE",
"566 -10 LINE",
"586 7 OFFCURVE",
"602 33 OFFCURVE",
"613 67 CURVE",
"616 67 LINE",
"643 16 OFFCURVE",
"688 -10 OFFCURVE",
"749 -10 CURVE SMOOTH",
"838 -10 OFFCURVE",
"885 47 OFFCURVE",
"885 157 CURVE SMOOTH",
"885 548 LINE",
"797 548 LINE",
"797 162 LINE SMOOTH",
"797 95 OFFCURVE",
"773 63 OFFCURVE",
"724 63 CURVE SMOOTH",
"675 63 OFFCURVE",
"645 94 OFFCURVE",
"645 152 CURVE SMOOTH",
"645 416 LINE SMOOTH",
"645 509 OFFCURVE",
"601 558 OFFCURVE",
"516 558 CURVE SMOOTH",
"465 558 OFFCURVE",
"423 541 OFFCURVE",
"393 509 CURVE",
"389 509 LINE",
"375 536 OFFCURVE",
"356 555 OFFCURVE",
"335 565 CURVE",
"273 520 LINE",
"303 498 OFFCURVE",
"318 468 OFFCURVE",
"318 432 CURVE SMOOTH",
"318 152 LINE SMOOTH",
"318 94 OFFCURVE",
"292 63 OFFCURVE",
"242 63 CURVE SMOOTH",
"192 63 OFFCURVE",
"166 94 OFFCURVE",
"166 152 CURVE SMOOTH",
"166 548 LINE",
"78 548 LINE",
"78 158 LINE SMOOTH",
"78 48 OFFCURVE",
"134 -10 OFFCURVE",
"241 -10 CURVE SMOOTH"
);
}
);
width = 967;
},
{
anchors = (
{
name = bottom;
position = "{909, 0}";
},
{
name = top;
position = "{919, 536}";
}
);
layerId = "E5D3352E-10FF-4C03-AD9F-F95B1FD01257";
paths = (
{
closed = 1;
nodes = (
"370 -10 OFFCURVE",
"443 61 OFFCURVE",
"443 181 CURVE SMOOTH",
"443 380 LINE SMOOTH",
"443 399 OFFCURVE",
"455 416 OFFCURVE",
"482 416 CURVE SMOOTH",
"509 416 OFFCURVE",
"521 399 OFFCURVE",
"521 380 CURVE SMOOTH",
"521 239 LINE SMOOTH",
"521 169 OFFCURVE",
"505 114 OFFCURVE",
"473 77 CURVE",
"594 -10 LINE",
"617 11 OFFCURVE",
"634 37 OFFCURVE",
"645 65 CURVE",
"648 65 LINE",
"689 16 OFFCURVE",
"739 -10 OFFCURVE",
"795 -10 CURVE SMOOTH",
"878 -10 OFFCURVE",
"919 46 OFFCURVE",
"919 154 CURVE SMOOTH",
"919 553 LINE",
"737 553 LINE",
"737 166 LINE SMOOTH",
"737 148 OFFCURVE",
"727 137 OFFCURVE",
"710 137 CURVE SMOOTH",
"693 137 OFFCURVE",
"683 148 OFFCURVE",
"683 166 CURVE SMOOTH",
"683 419 LINE SMOOTH",
"683 510 OFFCURVE",
"646 563 OFFCURVE",
"568 563 CURVE SMOOTH",
"511 563 OFFCURVE",
"461 535 OFFCURVE",
"434 488 CURVE",
"432 488 LINE",
"421 522 OFFCURVE",
"398 551 OFFCURVE",
"372 565 CURVE",
"246 488 LINE",
"268 468 OFFCURVE",
"281 434 OFFCURVE",
"281 396 CURVE SMOOTH",
"281 166 LINE SMOOTH",
"281 148 OFFCURVE",
"271 137 OFFCURVE",
"254 137 CURVE SMOOTH",
"237 137 OFFCURVE",
"227 148 OFFCURVE",
"227 166 CURVE SMOOTH",
"227 553 LINE",
"45 553 LINE",
"45 181 LINE SMOOTH",
"45 61 OFFCURVE",
"121 -10 OFFCURVE",
"246 -10 CURVE SMOOTH"
);
}
);
width = 964;
}
);
note = uni0EDC;
unicode = 0EDC;
},
{
glyphname = "hoMo-lao";
lastChange = "2017-01-26 21:57:21 +0000";
layers = (
{
anchors = (
{
name = bottom;
position = "{818, 0}";
},
{
name = top;
position = "{828, 536}";
}
);
layerId = "64BC062E-13E4-450B-B24E-D8A474022433";
paths = (
{
closed = 1;
nodes = (
"310 -10 OFFCURVE",
"350 53 OFFCURVE",
"350 142 CURVE SMOOTH",
"350 340 LINE SMOOTH",
"350 449 OFFCURVE",
"390 531 OFFCURVE",
"477 531 CURVE SMOOTH",
"546 531 OFFCURVE",
"563 479 OFFCURVE",
"563 403 CURVE SMOOTH",
"563 63 LINE SMOOTH",
"563 33 OFFCURVE",
"549 15 OFFCURVE",
"518 15 CURVE SMOOTH",
"495 15 OFFCURVE",
"478 25 OFFCURVE",
"468 59 CURVE",
"445 54 LINE",
"454 8 OFFCURVE",
"485 -10 OFFCURVE",
"519 -10 CURVE SMOOTH",
"561 -10 OFFCURVE",
"588 19 OFFCURVE",
"588 62 CURVE SMOOTH",
"588 107 LINE",
"574 86 LINE",
"589 86 LINE",
"613 16 OFFCURVE",
"654 -10 OFFCURVE",
"711 -10 CURVE SMOOTH",
"802 -10 OFFCURVE",
"828 55 OFFCURVE",
"828 142 CURVE SMOOTH",
"828 548 LINE",
"802 548 LINE",
"802 143 LINE SMOOTH",
"802 62 OFFCURVE",
"782 15 OFFCURVE",
"715 15 CURVE SMOOTH",
"627 15 OFFCURVE",
"589 96 OFFCURVE",
"589 206 CURVE SMOOTH",
"589 404 LINE SMOOTH",
"589 490 OFFCURVE",
"569 556 OFFCURVE",
"480 556 CURVE SMOOTH",
"410 556 OFFCURVE",
"362 516 OFFCURVE",
"342 436 CURVE",
"341 436 LINE",
"333 484 OFFCURVE",
"321 519 OFFCURVE",
"296 556 CURVE",
"276 543 LINE",
"302 505 OFFCURVE",
"324 449 OFFCURVE",
"324 391 CURVE SMOOTH",
"324 143 LINE SMOOTH",
"324 57 OFFCURVE",
"290 15 OFFCURVE",
"217 15 CURVE SMOOTH",
"144 15 OFFCURVE",
"111 57 OFFCURVE",
"111 143 CURVE SMOOTH",
"111 548 LINE",
"85 548 LINE",
"85 142 LINE SMOOTH",
"85 53 OFFCURVE",
"124 -10 OFFCURVE",
"217 -10 CURVE SMOOTH"
);
}
);
width = 913;
},
{
anchors = (
{
name = bottom;
position = "{885, 0}";
},
{
name = top;
position = "{885, 536}";
}
);
layerId = "6449CA81-A7C3-4005-93E5-765657812F1B";
paths = (
{
closed = 1;
nodes = (
"348 -10 OFFCURVE",
"404 48 OFFCURVE",
"404 158 CURVE SMOOTH",
"404 402 LINE SMOOTH",
"404 454 OFFCURVE",
"437 485 OFFCURVE",
"492 485 CURVE SMOOTH",
"547 485 OFFCURVE",
"580 454 OFFCURVE",
"580 402 CURVE SMOOTH",
"580 87 LINE SMOOTH",
"580 69 OFFCURVE",
"571 60 OFFCURVE",
"556 60 CURVE SMOOTH",
"539 60 OFFCURVE",
"527 71 OFFCURVE",
"520 92 CURVE",
"456 76 LINE",
"465 20 OFFCURVE",
"497 -10 OFFCURVE",
"557 -10 CURVE SMOOTH",
"611 -10 OFFCURVE",
"649 15 OFFCURVE",
"649 62 CURVE SMOOTH",
"649 80 LINE",
"625 53 LINE",
"652 53 LINE",
"674 13 OFFCURVE",
"712 -10 OFFCURVE",
"769 -10 CURVE SMOOTH",
"859 -10 OFFCURVE",
"906 50 OFFCURVE",
"906 161 CURVE SMOOTH",
"906 548 LINE",
"818 548 LINE",
"818 153 LINE SMOOTH",
"818 94 OFFCURVE",
"795 63 OFFCURVE",
"746 63 CURVE SMOOTH",
"695 63 OFFCURVE",
"666 97 OFFCURVE",
"666 161 CURVE SMOOTH",
"666 416 LINE SMOOTH",
"666 509 OFFCURVE",
"622 558 OFFCURVE",
"526 558 CURVE SMOOTH",
"441 558 OFFCURVE",
"423 541 OFFCURVE",
"393 509 CURVE",
"389 509 LINE",
"375 535 OFFCURVE",
"357 555 OFFCURVE",
"335 565 CURVE",
"273 520 LINE",
"303 498 OFFCURVE",
"318 468 OFFCURVE",
"318 432 CURVE SMOOTH",
"318 152 LINE SMOOTH",
"318 94 OFFCURVE",
"292 63 OFFCURVE",
"242 63 CURVE SMOOTH",
"192 63 OFFCURVE",
"166 94 OFFCURVE",
"166 152 CURVE SMOOTH",
"166 548 LINE",
"78 548 LINE",
"78 158 LINE SMOOTH",
"78 48 OFFCURVE",
"134 -10 OFFCURVE",
"241 -10 CURVE SMOOTH"
);
}
);
width = 988;
},
{
anchors = (
{
name = bottom;
position = "{955, 0}";
},
{
name = top;
position = "{965, 536}";
}
);
layerId = "E5D3352E-10FF-4C03-AD9F-F95B1FD01257";
paths = (
{
closed = 1;
nodes = (
"388 -10 OFFCURVE",
"443 61 OFFCURVE",
"443 181 CURVE SMOOTH",
"443 373 LINE SMOOTH",
"443 408 OFFCURVE",
"465 431 OFFCURVE",
"506 431 CURVE SMOOTH",
"546 431 OFFCURVE",
"567 408 OFFCURVE",
"567 371 CURVE SMOOTH",
"567 141 LINE SMOOTH",
"567 123 OFFCURVE",
"560 114 OFFCURVE",
"549 114 CURVE SMOOTH",
"537 114 OFFCURVE",
"527 125 OFFCURVE",
"520 146 CURVE",
"445 130 LINE",
"457 34 OFFCURVE",
"503 -10 OFFCURVE",
"590 -10 CURVE SMOOTH",
"661 -10 OFFCURVE",
"709 22 OFFCURVE",
"709 69 CURVE SMOOTH",
"709 87 LINE",
"675 54 LINE",
"711 54 LINE",
"733 14 OFFCURVE",
"771 -10 OFFCURVE",
"828 -10 CURVE SMOOTH",
"918 -10 OFFCURVE",
"965 50 OFFCURVE",
"965 161 CURVE SMOOTH",
"965 553 LINE",
"783 553 LINE",
"783 166 LINE SMOOTH",
"783 148 OFFCURVE",
"773 137 OFFCURVE",
"756 137 CURVE SMOOTH",
"739 137 OFFCURVE",
"729 148 OFFCURVE",
"729 166 CURVE SMOOTH",
"729 419 LINE SMOOTH",
"729 510 OFFCURVE",
"669 563 OFFCURVE",
"582 563 CURVE SMOOTH",
"496 563 OFFCURVE",
"450 520 OFFCURVE",
"434 488 CURVE",
"432 488 LINE",
"421 522 OFFCURVE",
"398 551 OFFCURVE",
"372 565 CURVE",
"246 488 LINE",
"268 468 OFFCURVE",
"281 434 OFFCURVE",
"281 396 CURVE SMOOTH",
"281 166 LINE SMOOTH",
"281 148 OFFCURVE",
"271 137 OFFCURVE",
"254 137 CURVE SMOOTH",
"237 137 OFFCURVE",
"227 148 OFFCURVE",
"227 166 CURVE SMOOTH",
"227 553 LINE",
"45 553 LINE",
"45 181 LINE SMOOTH",
"45 61 OFFCURVE",
"121 -10 OFFCURVE",
"246 -10 CURVE SMOOTH"
);
}
);
width = 1010;
}
);
note = uni0EDD;
unicode = 0EDD;
},
{
glyphname = "zero-lao";
lastChange = "2017-01-26 21:57:21 +0000";
layers = (
{
layerId = "64BC062E-13E4-450B-B24E-D8A474022433";
paths = (
{
closed = 1;
nodes = (
"435 -10 OFFCURVE",
"523 69 OFFCURVE",
"523 273 CURVE SMOOTH",
"523 476 OFFCURVE",
"435 556 OFFCURVE",
"294 556 CURVE SMOOTH",
"153 556 OFFCURVE",
"65 476 OFFCURVE",
"65 273 CURVE SMOOTH",
"65 69 OFFCURVE",
"153 -10 OFFCURVE",
"294 -10 CURVE SMOOTH"
);
},
{
closed = 1;
nodes = (
"160 15 OFFCURVE",
"93 98 OFFCURVE",
"93 275 CURVE SMOOTH",
"93 451 OFFCURVE",
"160 531 OFFCURVE",
"294 531 CURVE SMOOTH",
"428 531 OFFCURVE",
"495 451 OFFCURVE",
"495 275 CURVE SMOOTH",
"495 98 OFFCURVE",
"428 15 OFFCURVE",
"294 15 CURVE SMOOTH"
);
}
);
width = 588;
},
{
layerId = "6449CA81-A7C3-4005-93E5-765657812F1B";
paths = (
{
closed = 1;
nodes = (
"455 -10 OFFCURVE",
"546 71 OFFCURVE",
"546 274 CURVE SMOOTH",
"546 477 OFFCURVE",
"455 558 OFFCURVE",
"308 558 CURVE SMOOTH",
"161 558 OFFCURVE",
"70 477 OFFCURVE",
"70 274 CURVE SMOOTH",
"70 71 OFFCURVE",
"161 -10 OFFCURVE",
"308 -10 CURVE SMOOTH"
);
},
{
closed = 1;
nodes = (
"203 63 OFFCURVE",
"158 131 OFFCURVE",
"158 274 CURVE SMOOTH",
"158 417 OFFCURVE",
"203 485 OFFCURVE",
"308 485 CURVE SMOOTH",
"414 485 OFFCURVE",
"458 417 OFFCURVE",
"458 274 CURVE SMOOTH",
"458 131 OFFCURVE",
"414 63 OFFCURVE",
"308 63 CURVE SMOOTH"
);
}
);
width = 616;
},
{
layerId = "E5D3352E-10FF-4C03-AD9F-F95B1FD01257";
paths = (
{
closed = 1;
nodes = (
"457 -10 OFFCURVE",
"559 68 OFFCURVE",
"559 277 CURVE SMOOTH",
"559 486 OFFCURVE",
"457 564 OFFCURVE",
"293 564 CURVE SMOOTH",
"129 564 OFFCURVE",
"28 486 OFFCURVE",
"28 277 CURVE SMOOTH",
"28 68 OFFCURVE",
"129 -10 OFFCURVE",
"293 -10 CURVE SMOOTH"
);
},
{
closed = 1;
nodes = (
"241 140 OFFCURVE",
"216 182 OFFCURVE",
"216 277 CURVE SMOOTH",
"216 372 OFFCURVE",
"241 414 OFFCURVE",
"293 414 CURVE SMOOTH",
"346 414 OFFCURVE",
"371 372 OFFCURVE",
"371 277 CURVE SMOOTH",
"371 182 OFFCURVE",
"346 140 OFFCURVE",
"293 140 CURVE SMOOTH"
);
}
);
width = 587;
}
);
note = uni0ED0;
unicode = 0ED0;
},
{
glyphname = "one-lao";
lastChange = "2017-01-26 21:57:21 +0000";
layers = (
{
layerId = "64BC062E-13E4-450B-B24E-D8A474022433";
paths = (
{
closed = 1;
nodes = (
"413 -10 OFFCURVE",
"497 58 OFFCURVE",
"497 275 CURVE SMOOTH",
"497 468 OFFCURVE",
"431 556 OFFCURVE",
"280 556 CURVE SMOOTH",
"157 556 OFFCURVE",
"65 498 OFFCURVE",
"65 379 CURVE SMOOTH",
"65 286 OFFCURVE",
"120 226 OFFCURVE",
"219 226 CURVE SMOOTH",
"225 226 OFFCURVE",
"231 226 OFFCURVE",
"237 227 CURVE",
"244 252 LINE",
"237 251 OFFCURVE",
"226 250 OFFCURVE",
"215 250 CURVE SMOOTH",
"140 250 OFFCURVE",
"93 297 OFFCURVE",
"93 378 CURVE SMOOTH",
"93 473 OFFCURVE",
"159 531 OFFCURVE",
"278 531 CURVE SMOOTH",
"421 531 OFFCURVE",
"469 446 OFFCURVE",
"469 274 CURVE SMOOTH",
"469 79 OFFCURVE",
"407 15 OFFCURVE",
"285 15 CURVE SMOOTH",
"226 15 OFFCURVE",
"145 30 OFFCURVE",
"99 50 CURVE",
"99 23 LINE",
"142 4 OFFCURVE",
"232 -10 OFFCURVE",
"288 -10 CURVE SMOOTH"
);
}
);
width = 552;
},
{
layerId = "6449CA81-A7C3-4005-93E5-765657812F1B";
paths = (
{
closed = 1;
nodes = (
"425 -10 OFFCURVE",
"514 71 OFFCURVE",
"514 277 CURVE SMOOTH",
"514 482 OFFCURVE",
"426 558 OFFCURVE",
"281 558 CURVE SMOOTH",
"155 558 OFFCURVE",
"68 500 OFFCURVE",
"68 384 CURVE SMOOTH",
"68 277 OFFCURVE",
"143 216 OFFCURVE",
"257 216 CURVE SMOOTH",
"272 216 OFFCURVE",
"281 217 OFFCURVE",
"287 218 CURVE",
"301 290 LINE",
"294 289 OFFCURVE",
"277 288 OFFCURVE",
"263 288 CURVE SMOOTH",
"192 288 OFFCURVE",
"156 314 OFFCURVE",
"156 382 CURVE SMOOTH",
"156 452 OFFCURVE",
"194 485 OFFCURVE",
"275 485 CURVE SMOOTH",
"384 485 OFFCURVE",
"426 425 OFFCURVE",
"426 279 CURVE SMOOTH",
"426 127 OFFCURVE",
"381 63 OFFCURVE",
"264 63 CURVE SMOOTH",
"200 63 OFFCURVE",
"149 82 OFFCURVE",
"98 108 CURVE",
"98 31 LINE",
"143 7 OFFCURVE",
"203 -10 OFFCURVE",
"273 -10 CURVE SMOOTH"
);
}
);
width = 586;
},
{
layerId = "E5D3352E-10FF-4C03-AD9F-F95B1FD01257";
paths = (
{
closed = 1;
nodes = (
"433 -10 OFFCURVE",
"553 73 OFFCURVE",
"553 286 CURVE SMOOTH",
"553 489 OFFCURVE",
"443 563 OFFCURVE",
"280 563 CURVE SMOOTH",
"127 563 OFFCURVE",
"28 497 OFFCURVE",
"28 368 CURVE SMOOTH",
"28 230 OFFCURVE",
"140 191 OFFCURVE",
"248 191 CURVE SMOOTH",
"261 191 OFFCURVE",
"267 191 OFFCURVE",
"281 191 CURVE",
"315 323 LINE",
"302 320 OFFCURVE",
"280 318 OFFCURVE",
"269 318 CURVE SMOOTH",
"238 318 OFFCURVE",
"216 337 OFFCURVE",
"216 365 CURVE SMOOTH",
"216 393 OFFCURVE",
"237 413 OFFCURVE",
"277 413 CURVE SMOOTH",
"338 413 OFFCURVE",
"365 369 OFFCURVE",
"365 283 CURVE SMOOTH",
"365 178 OFFCURVE",
"326 140 OFFCURVE",
"248 140 CURVE SMOOTH",
"178 140 OFFCURVE",
"107 171 OFFCURVE",
"55 211 CURVE",
"55 47 LINE",
"112 12 OFFCURVE",
"188 -10 OFFCURVE",
"271 -10 CURVE SMOOTH"
);
}
);
width = 581;
}
);
note = uni0ED1;
unicode = 0ED1;
},
{
glyphname = "two-lao";
lastChange = "2017-01-26 21:57:21 +0000";
layers = (
{
layerId = "64BC062E-13E4-450B-B24E-D8A474022433";
paths = (
{
closed = 1;
nodes = (
"427 -10 OFFCURVE",
"513 51 OFFCURVE",
"513 170 CURVE SMOOTH",
"513 262 OFFCURVE",
"461 320 OFFCURVE",
"348 320 CURVE",
"341 296 LINE",
"347 297 OFFCURVE",
"353 297 OFFCURVE",
"359 297 CURVE SMOOTH",
"446 297 OFFCURVE",
"485 246 OFFCURVE",
"485 171 CURVE SMOOTH",
"485 71 OFFCURVE",
"417 15 OFFCURVE",
"309 15 CURVE SMOOTH",
"190 15 OFFCURVE",
"114 83 OFFCURVE",
"114 254 CURVE SMOOTH",
"114 405 OFFCURVE",
"174 470 OFFCURVE",
"259 520 CURVE SMOOTH",
"357 577 OFFCURVE",
"475 608 OFFCURVE",
"475 718 CURVE SMOOTH",
"475 729 LINE",
"449 729 LINE",
"449 718 LINE SMOOTH",
"449 620 OFFCURVE",
"333 593 OFFCURVE",
"237 536 CURVE SMOOTH",
"154 487 OFFCURVE",
"86 417 OFFCURVE",
"86 254 CURVE SMOOTH",
"86 62 OFFCURVE",
"181 -10 OFFCURVE",
"309 -10 CURVE SMOOTH"
);
}
);
width = 556;
},
{
layerId = "6449CA81-A7C3-4005-93E5-765657812F1B";
paths = (
{
closed = 1;
nodes = (
"420 -10 OFFCURVE",
"513 54 OFFCURVE",
"513 176 CURVE SMOOTH",
"513 289 OFFCURVE",
"434 343 OFFCURVE",
"306 343 CURVE",
"287 269 LINE",
"293 270 OFFCURVE",
"299 270 OFFCURVE",
"306 270 CURVE SMOOTH",
"389 270 OFFCURVE",
"425 242 OFFCURVE",
"425 175 CURVE SMOOTH",
"425 108 OFFCURVE",
"390 63 OFFCURVE",
"300 63 CURVE SMOOTH",
"204 63 OFFCURVE",
"149 115 OFFCURVE",
"149 262 CURVE SMOOTH",
"149 397 OFFCURVE",
"195 453 OFFCURVE",
"290 519 CURVE SMOOTH",
"402 597 OFFCURVE",
"483 628 OFFCURVE",
"483 708 CURVE SMOOTH",
"483 732 LINE",
"405 732 LINE",
"405 706 LINE SMOOTH",
"405 653 OFFCURVE",
"310 614 OFFCURVE",
"238 569 CURVE SMOOTH",
"148 513 OFFCURVE",
"61 435 OFFCURVE",
"61 256 CURVE SMOOTH",
"61 67 OFFCURVE",
"157 -10 OFFCURVE",
"295 -10 CURVE SMOOTH"
);
}
);
width = 583;
},
{
layerId = "E5D3352E-10FF-4C03-AD9F-F95B1FD01257";
paths = (
{
closed = 1;
nodes = (
"454 -10 OFFCURVE",
"555 61 OFFCURVE",
"555 201 CURVE SMOOTH",
"555 322 OFFCURVE",
"480 381 OFFCURVE",
"302 381 CURVE",
"272 241 LINE",
"286 243 OFFCURVE",
"299 244 OFFCURVE",
"309 244 CURVE SMOOTH",
"350 244 OFFCURVE",
"367 224 OFFCURVE",
"367 193 CURVE SMOOTH",
"367 159 OFFCURVE",
"346 138 OFFCURVE",
"308 138 CURVE SMOOTH",
"254 138 OFFCURVE",
"216 177 OFFCURVE",
"216 268 CURVE SMOOTH",
"216 362 OFFCURVE",
"257 411 OFFCURVE",
"352 464 CURVE SMOOTH",
"436 511 OFFCURVE",
"512 534 OFFCURVE",
"512 650 CURVE SMOOTH",
"512 667 LINE",
"330 667 LINE",
"330 657 LINE SMOOTH",
"330 600 OFFCURVE",
"240 583 OFFCURVE",
"165 530 CURVE SMOOTH",
"80 470 OFFCURVE",
"28 376 OFFCURVE",
"28 256 CURVE SMOOTH",
"28 71 OFFCURVE",
"150 -10 OFFCURVE",
"307 -10 CURVE SMOOTH"
);
}
);
width = 583;
}
);
note = uni0ED2;
unicode = 0ED2;
},
{
glyphname = "three-lao";
lastChange = "2017-01-26 21:57:21 +0000";
layers = (
{
layerId = "64BC062E-13E4-450B-B24E-D8A474022433";
paths = (
{
closed = 1;
nodes = (
"138 -10 OFFCURVE",
"160 22 OFFCURVE",
"160 92 CURVE SMOOTH",
"160 120 LINE",
"147 107 LINE",
"161 107 LINE",
"190 36 OFFCURVE",
"262 -10 OFFCURVE",
"345 -10 CURVE SMOOTH",
"439 -10 OFFCURVE",
"514 50 OFFCURVE",
"514 169 CURVE SMOOTH",
"514 303 LINE SMOOTH",
"514 428 OFFCURVE",
"438 469 OFFCURVE",
"295 527 CURVE SMOOTH",
"185 572 OFFCURVE",
"144 582 OFFCURVE",
"144 631 CURVE SMOOTH",
"144 671 OFFCURVE",
"170 685 OFFCURVE",
"206 685 CURVE SMOOTH",
"216 685 OFFCURVE",
"231 685 OFFCURVE",
"256 677 CURVE SMOOTH",
"493 605 LINE",
"493 631 LINE",
"259 701 LINE SMOOTH",
"234 708 OFFCURVE",
"216 710 OFFCURVE",
"202 710 CURVE SMOOTH",
"159 710 OFFCURVE",
"116 685 OFFCURVE",
"116 631 CURVE SMOOTH",
"116 566 OFFCURVE",
"168 551 OFFCURVE",
"284 505 CURVE SMOOTH",
"417 452 OFFCURVE",
"488 413 OFFCURVE",
"488 303 CURVE SMOOTH",
"488 170 LINE SMOOTH",
"488 70 OFFCURVE",
"432 15 OFFCURVE",
"344 15 CURVE SMOOTH",
"243 15 OFFCURVE",
"160 88 OFFCURVE",
"160 196 CURVE SMOOTH",
"160 408 LINE",
"134 408 LINE",
"134 85 LINE SMOOTH",
"134 30 OFFCURVE",
"116 14 OFFCURVE",
"81 14 CURVE SMOOTH",
"66 14 OFFCURVE",
"56 17 OFFCURVE",
"43 21 CURVE",
"38 -2 LINE",
"51 -7 OFFCURVE",
"67 -10 OFFCURVE",
"83 -10 CURVE SMOOTH"
);
}
);
width = 599;
},
{
layerId = "6449CA81-A7C3-4005-93E5-765657812F1B";
paths = (
{
closed = 1;
nodes = (
"135 -10 OFFCURVE",
"183 11 OFFCURVE",
"183 54 CURVE SMOOTH",
"183 71 LINE",
"149 50 LINE",
"186 50 LINE",
"234 -3 OFFCURVE",
"280 -10 OFFCURVE",
"329 -10 CURVE SMOOTH",
"444 -10 OFFCURVE",
"513 49 OFFCURVE",
"513 185 CURVE SMOOTH",
"513 361 LINE SMOOTH",
"513 453 OFFCURVE",
"446 510 OFFCURVE",
"378 550 CURVE SMOOTH",
"309 591 OFFCURVE",
"239 615 OFFCURVE",
"239 642 CURVE SMOOTH",
"239 652 OFFCURVE",
"248 659 OFFCURVE",
"262 659 CURVE SMOOTH",
"272 659 OFFCURVE",
"286 657 OFFCURVE",
"303 650 CURVE SMOOTH",
"499 570 LINE",
"499 639 LINE",
"317 713 LINE SMOOTH",
"294 722 OFFCURVE",
"271 724 OFFCURVE",
"253 724 CURVE SMOOTH",
"200 724 OFFCURVE",
"164 688 OFFCURVE",
"164 646 CURVE SMOOTH",
"164 576 OFFCURVE",
"263 542 OFFCURVE",
"339 487 CURVE SMOOTH",
"386 453 OFFCURVE",
"425 414 OFFCURVE",
"425 353 CURVE SMOOTH",
"425 191 LINE SMOOTH",
"425 107 OFFCURVE",
"390 63 OFFCURVE",
"315 63 CURVE SMOOTH",
"248 63 OFFCURVE",
"195 99 OFFCURVE",
"195 191 CURVE SMOOTH",
"195 432 LINE",
"107 432 LINE",
"107 102 LINE SMOOTH",
"107 71 OFFCURVE",
"90 60 OFFCURVE",
"67 60 CURVE SMOOTH",
"57 60 OFFCURVE",
"45 62 OFFCURVE",
"33 66 CURVE",
"20 4 LINE",
"44 -5 OFFCURVE",
"70 -10 OFFCURVE",
"90 -10 CURVE SMOOTH"
);
}
);
width = 595;
},
{
layerId = "E5D3352E-10FF-4C03-AD9F-F95B1FD01257";
paths = (
{
closed = 1;
nodes = (
"189 -10 OFFCURVE",
"237 23 OFFCURVE",
"237 69 CURVE SMOOTH",
"237 91 LINE",
"210 65 LINE",
"239 65 LINE",
"269 14 OFFCURVE",
"317 -10 OFFCURVE",
"385 -10 CURVE SMOOTH",
"499 -10 OFFCURVE",
"571 56 OFFCURVE",
"571 206 CURVE SMOOTH",
"571 259 LINE SMOOTH",
"571 341 OFFCURVE",
"559 407 OFFCURVE",
"409 497 CURVE SMOOTH",
"349 533 OFFCURVE",
"299 555 OFFCURVE",
"299 571 CURVE SMOOTH",
"299 577 OFFCURVE",
"307 579 OFFCURVE",
"312 579 CURVE SMOOTH",
"325 579 OFFCURVE",
"356 567 OFFCURVE",
"369 562 CURVE SMOOTH",
"551 491 LINE",
"551 639 LINE",
"357 708 LINE SMOOTH",
"320 721 OFFCURVE",
"284 724 OFFCURVE",
"261 724 CURVE SMOOTH",
"172 724 OFFCURVE",
"117 677 OFFCURVE",
"117 590 CURVE SMOOTH",
"117 500 OFFCURVE",
"164 482 OFFCURVE",
"273 412 CURVE SMOOTH",
"359 357 OFFCURVE",
"384 333 OFFCURVE",
"384 264 CURVE SMOOTH",
"384 211 LINE SMOOTH",
"384 164 OFFCURVE",
"365 143 OFFCURVE",
"332 143 CURVE SMOOTH",
"302 143 OFFCURVE",
"282 161 OFFCURVE",
"282 210 CURVE SMOOTH",
"282 357 LINE",
"96 357 LINE",
"96 160 LINE SMOOTH",
"96 142 OFFCURVE",
"89 134 OFFCURVE",
"70 134 CURVE SMOOTH",
"57 134 OFFCURVE",
"45 138 OFFCURVE",
"35 142 CURVE",
"8 20 LINE",
"43 0 OFFCURVE",
"81 -10 OFFCURVE",
"119 -10 CURVE SMOOTH"
);
}
);
width = 613;
}
);
note = uni0ED3;
unicode = 0ED3;
},
{
glyphname = "four-lao";
lastChange = "2017-01-26 21:57:21 +0000";
layers = (
{
layerId = "64BC062E-13E4-450B-B24E-D8A474022433";
paths = (
{
closed = 1;
nodes = (
"364 -10 OFFCURVE",
"410 41 OFFCURVE",
"434 114 CURVE",
"436 114 LINE",
"449 66 OFFCURVE",
"475 26 OFFCURVE",
"504 -10 CURVE",
"524 3 LINE",
"494 40 OFFCURVE",
"451 97 OFFCURVE",
"451 155 CURVE SMOOTH",
"451 275 LINE SMOOTH",
"451 324 OFFCURVE",
"467 337 OFFCURVE",
"502 337 CURVE SMOOTH",
"516 337 OFFCURVE",
"533 335 OFFCURVE",
"546 329 CURVE",
"551 354 LINE",
"537 360 OFFCURVE",
"517 362 OFFCURVE",
"502 362 CURVE SMOOTH",
"451 362 OFFCURVE",
"425 337 OFFCURVE",
"425 274 CURVE SMOOTH",
"425 206 LINE SMOOTH",
"425 101 OFFCURVE",
"382 15 OFFCURVE",
"263 15 CURVE SMOOTH",
"170 15 OFFCURVE",
"112 67 OFFCURVE",
"112 195 CURVE SMOOTH",
"112 310 LINE SMOOTH",
"112 518 OFFCURVE",
"215 528 OFFCURVE",
"331 535 CURVE SMOOTH",
"419 540 OFFCURVE",
"528 547 OFFCURVE",
"528 718 CURVE SMOOTH",
"528 729 LINE",
"502 729 LINE",
"502 718 LINE SMOOTH",
"502 568 OFFCURVE",
"425 563 OFFCURVE",
"331 558 CURVE SMOOTH",
"219 552 OFFCURVE",
"86 543 OFFCURVE",
"86 310 CURVE SMOOTH",
"86 191 LINE SMOOTH",
"86 56 OFFCURVE",
"148 -10 OFFCURVE",
"263 -10 CURVE SMOOTH"
);
}
);
width = 638;
},
{
layerId = "6449CA81-A7C3-4005-93E5-765657812F1B";
paths = (
{
closed = 1;
nodes = (
"313 -10 OFFCURVE",
"362 6 OFFCURVE",
"409 69 CURVE",
"412 69 LINE",
"424 38 OFFCURVE",
"447 5 OFFCURVE",
"465 -10 CURVE",
"529 37 LINE",
"501 63 OFFCURVE",
"474 97 OFFCURVE",
"474 170 CURVE SMOOTH",
"474 273 LINE SMOOTH",
"474 305 OFFCURVE",
"491 316 OFFCURVE",
"513 316 CURVE SMOOTH",
"524 316 OFFCURVE",
"536 313 OFFCURVE",
"548 310 CURVE",
"562 372 LINE",
"537 381 OFFCURVE",
"512 386 OFFCURVE",
"488 386 CURVE SMOOTH",
"435 386 OFFCURVE",
"386 360 OFFCURVE",
"386 281 CURVE SMOOTH",
"386 179 LINE SMOOTH",
"386 86 OFFCURVE",
"331 63 OFFCURVE",
"269 63 CURVE SMOOTH",
"191 63 OFFCURVE",
"156 100 OFFCURVE",
"156 189 CURVE SMOOTH",
"156 311 LINE SMOOTH",
"156 473 OFFCURVE",
"232 477 OFFCURVE",
"347 483 CURVE SMOOTH",
"424 487 OFFCURVE",
"540 500 OFFCURVE",
"540 694 CURVE SMOOTH",
"540 714 LINE",
"461 714 LINE",
"461 693 LINE SMOOTH",
"461 573 OFFCURVE",
"415 560 OFFCURVE",
"337 556 CURVE SMOOTH",
"231 550 OFFCURVE",
"68 540 OFFCURVE",
"68 311 CURVE SMOOTH",
"68 187 LINE SMOOTH",
"68 51 OFFCURVE",
"136 -10 OFFCURVE",
"253 -10 CURVE SMOOTH"
);
}
);
width = 610;
},
{
layerId = "E5D3352E-10FF-4C03-AD9F-F95B1FD01257";
paths = (
{
closed = 1;
nodes = (
"337 -10 OFFCURVE",
"384 20 OFFCURVE",
"422 65 CURVE",
"425 65 LINE",
"435 38 OFFCURVE",
"455 13 OFFCURVE",
"480 -10 CURVE",
"619 94 LINE",
"566 139 OFFCURVE",
"550 169 OFFCURVE",
"550 225 CURVE SMOOTH",
"550 241 LINE SMOOTH",
"550 261 OFFCURVE",
"559 269 OFFCURVE",
"576 269 CURVE SMOOTH",
"588 269 OFFCURVE",
"599 265 OFFCURVE",
"609 261 CURVE",
"636 381 LINE",
"598 401 OFFCURVE",
"537 411 OFFCURVE",
"497 411 CURVE SMOOTH",
"400 411 OFFCURVE",
"360 354 OFFCURVE",
"360 268 CURVE SMOOTH",
"360 210 LINE SMOOTH",
"360 162 OFFCURVE",
"325 135 OFFCURVE",
"286 135 CURVE SMOOTH",
"235 135 OFFCURVE",
"218 180 OFFCURVE",
"218 222 CURVE SMOOTH",
"218 292 LINE SMOOTH",
"218 422 OFFCURVE",
"281 428 OFFCURVE",
"359 433 CURVE SMOOTH",
"521 444 OFFCURVE",
"577 512 OFFCURVE",
"577 613 CURVE SMOOTH",
"577 714 LINE",
"397 714 LINE",
"397 643 LINE SMOOTH",
"397 576 OFFCURVE",
"364 580 OFFCURVE",
"298 575 CURVE SMOOTH",
"184 567 OFFCURVE",
"28 545 OFFCURVE",
"28 287 CURVE SMOOTH",
"28 221 LINE SMOOTH",
"28 76 OFFCURVE",
"118 -10 OFFCURVE",
"256 -10 CURVE SMOOTH"
);
}
);
width = 648;
}
);
note = uni0ED4;
unicode = 0ED4;
},
{
glyphname = "five-lao";
lastChange = "2017-01-26 21:57:21 +0000";
layers = (
{
layerId = "64BC062E-13E4-450B-B24E-D8A474022433";
paths = (
{
closed = 1;
nodes = (
"364 -10 OFFCURVE",
"410 41 OFFCURVE",
"434 114 CURVE",
"436 114 LINE",
"449 66 OFFCURVE",
"475 26 OFFCURVE",
"504 -10 CURVE",
"524 3 LINE",
"494 40 OFFCURVE",
"451 97 OFFCURVE",
"451 155 CURVE SMOOTH",
"451 275 LINE SMOOTH",
"451 324 OFFCURVE",
"467 337 OFFCURVE",
"502 337 CURVE SMOOTH",
"516 337 OFFCURVE",
"533 335 OFFCURVE",
"546 329 CURVE",
"551 354 LINE",
"537 360 OFFCURVE",
"517 362 OFFCURVE",
"502 362 CURVE SMOOTH",
"451 362 OFFCURVE",
"425 337 OFFCURVE",
"425 274 CURVE SMOOTH",
"425 206 LINE SMOOTH",
"425 101 OFFCURVE",
"382 15 OFFCURVE",
"263 15 CURVE SMOOTH",
"170 15 OFFCURVE",
"112 67 OFFCURVE",
"112 195 CURVE SMOOTH",
"112 318 LINE SMOOTH",
"112 518 OFFCURVE",
"215 528 OFFCURVE",
"331 535 CURVE SMOOTH",
"419 540 OFFCURVE",
"528 547 OFFCURVE",
"528 718 CURVE SMOOTH",
"528 729 LINE",
"502 729 LINE",
"502 718 LINE SMOOTH",
"502 568 OFFCURVE",
"416 558 OFFCURVE",
"322 558 CURVE SMOOTH",
"296 558 OFFCURVE",
"276 543 OFFCURVE",
"265 543 CURVE SMOOTH",
"243 543 LINE SMOOTH",
"159 543 OFFCURVE",
"86 470 OFFCURVE",
"86 330 CURVE SMOOTH",
"86 191 LINE SMOOTH",
"86 56 OFFCURVE",
"148 -10 OFFCURVE",
"263 -10 CURVE SMOOTH"
);
},
{
closed = 1;
nodes = (
"318 531 OFFCURVE",
"355 568 OFFCURVE",
"355 618 CURVE SMOOTH",
"355 668 OFFCURVE",
"318 705 OFFCURVE",
"267 705 CURVE SMOOTH",
"214 705 OFFCURVE",
"177 673 OFFCURVE",
"177 618 CURVE SMOOTH",
"177 563 OFFCURVE",
"214 531 OFFCURVE",
"267 531 CURVE SMOOTH"
);
},
{
closed = 1;
nodes = (
"229 556 OFFCURVE",
"203 579 OFFCURVE",
"203 618 CURVE SMOOTH",
"203 657 OFFCURVE",
"229 680 OFFCURVE",
"267 680 CURVE SMOOTH",
"303 680 OFFCURVE",
"329 654 OFFCURVE",
"329 618 CURVE SMOOTH",
"329 582 OFFCURVE",
"303 556 OFFCURVE",
"267 556 CURVE SMOOTH"
);
}
);
width = 638;
},
{
layerId = "6449CA81-A7C3-4005-93E5-765657812F1B";
paths = (
{
closed = 1;
nodes = (
"313 -10 OFFCURVE",
"362 6 OFFCURVE",
"409 69 CURVE",
"412 69 LINE",
"424 38 OFFCURVE",
"447 5 OFFCURVE",
"465 -10 CURVE",
"529 37 LINE",
"501 63 OFFCURVE",
"474 97 OFFCURVE",
"474 170 CURVE SMOOTH",
"474 273 LINE SMOOTH",
"474 305 OFFCURVE",
"491 316 OFFCURVE",
"513 316 CURVE SMOOTH",
"524 316 OFFCURVE",
"536 313 OFFCURVE",
"548 310 CURVE",
"562 372 LINE",
"537 381 OFFCURVE",
"512 386 OFFCURVE",
"488 386 CURVE SMOOTH",
"435 386 OFFCURVE",
"386 360 OFFCURVE",
"386 281 CURVE SMOOTH",
"386 179 LINE SMOOTH",
"386 86 OFFCURVE",
"331 63 OFFCURVE",
"269 63 CURVE SMOOTH",
"191 63 OFFCURVE",
"156 100 OFFCURVE",
"156 189 CURVE SMOOTH",
"156 311 LINE SMOOTH",
"156 473 OFFCURVE",
"232 477 OFFCURVE",
"347 483 CURVE SMOOTH",
"424 487 OFFCURVE",
"540 500 OFFCURVE",
"540 694 CURVE SMOOTH",
"540 714 LINE",
"461 714 LINE",
"461 693 LINE SMOOTH",
"461 588 OFFCURVE",
"434 556 OFFCURVE",
"337 556 CURVE SMOOTH",
"318 556 OFFCURVE",
"312 536 OFFCURVE",
"281 536 CURVE SMOOTH",
"234 536 LINE SMOOTH",
"157 536 OFFCURVE",
"68 473 OFFCURVE",
"68 311 CURVE SMOOTH",
"68 187 LINE SMOOTH",
"68 51 OFFCURVE",
"136 -10 OFFCURVE",
"253 -10 CURVE SMOOTH"
);
},
{
closed = 1;
nodes = (
"345 492 OFFCURVE",
"390 538 OFFCURVE",
"390 600 CURVE SMOOTH",
"390 662 OFFCURVE",
"345 708 OFFCURVE",
"281 708 CURVE SMOOTH",
"215 708 OFFCURVE",
"170 668 OFFCURVE",
"170 600 CURVE SMOOTH",
"170 532 OFFCURVE",
"215 492 OFFCURVE",
"281 492 CURVE SMOOTH"
);
},
{
closed = 1;
nodes = (
"250 552 OFFCURVE",
"231 571 OFFCURVE",
"231 599 CURVE SMOOTH",
"231 628 OFFCURVE",
"251 646 OFFCURVE",
"279 646 CURVE SMOOTH",
"307 646 OFFCURVE",
"327 627 OFFCURVE",
"327 599 CURVE SMOOTH",
"327 571 OFFCURVE",
"307 552 OFFCURVE",
"279 552 CURVE SMOOTH"
);
}
);
width = 610;
},
{
layerId = "E5D3352E-10FF-4C03-AD9F-F95B1FD01257";
paths = (
{
closed = 1;
nodes = (
"337 -10 OFFCURVE",
"384 20 OFFCURVE",
"422 65 CURVE",
"425 65 LINE",
"435 38 OFFCURVE",
"455 13 OFFCURVE",
"480 -10 CURVE",
"619 94 LINE",
"566 139 OFFCURVE",
"550 169 OFFCURVE",
"550 225 CURVE SMOOTH",
"550 241 LINE SMOOTH",
"550 259 OFFCURVE",
"559 269 OFFCURVE",
"576 269 CURVE SMOOTH",
"588 269 OFFCURVE",
"599 265 OFFCURVE",
"609 261 CURVE",
"636 381 LINE",
"598 401 OFFCURVE",
"537 411 OFFCURVE",
"497 411 CURVE SMOOTH",
"400 411 OFFCURVE",
"360 354 OFFCURVE",
"360 268 CURVE SMOOTH",
"360 210 LINE SMOOTH",
"360 162 OFFCURVE",
"325 135 OFFCURVE",
"286 135 CURVE SMOOTH",
"235 135 OFFCURVE",
"218 180 OFFCURVE",
"218 222 CURVE SMOOTH",
"218 292 LINE SMOOTH",
"218 422 OFFCURVE",
"281 428 OFFCURVE",
"359 433 CURVE SMOOTH",
"521 443 OFFCURVE",
"577 512 OFFCURVE",
"577 613 CURVE SMOOTH",
"577 714 LINE",
"397 714 LINE",
"397 643 LINE SMOOTH",
"397 576 OFFCURVE",
"364 575 OFFCURVE",
"298 575 CURVE SMOOTH",
"271 575 OFFCURVE",
"263 509 OFFCURVE",
"231 509 CURVE SMOOTH",
"180 509 LINE SMOOTH",
"107 509 OFFCURVE",
"28 437 OFFCURVE",
"28 287 CURVE SMOOTH",
"28 221 LINE SMOOTH",
"28 76 OFFCURVE",
"118 -10 OFFCURVE",
"256 -10 CURVE SMOOTH"
);
},
{
closed = 1;
nodes = (
"306 440 OFFCURVE",
"363 494 OFFCURVE",
"363 574 CURVE SMOOTH",
"363 654 OFFCURVE",
"306 708 OFFCURVE",
"222 708 CURVE SMOOTH",
"136 708 OFFCURVE",
"79 662 OFFCURVE",
"79 574 CURVE SMOOTH",
"79 486 OFFCURVE",
"136 440 OFFCURVE",
"222 440 CURVE SMOOTH"
);
},
{
closed = 1;
nodes = (
"198 538 OFFCURVE",
"183 550 OFFCURVE",
"183 574 CURVE SMOOTH",
"183 598 OFFCURVE",
"198 610 OFFCURVE",
"221 610 CURVE SMOOTH",
"244 610 OFFCURVE",
"259 595 OFFCURVE",
"259 574 CURVE SMOOTH",
"259 553 OFFCURVE",
"244 538 OFFCURVE",
"221 538 CURVE SMOOTH"
);
}
);
width = 648;
}
);
note = uni0ED5;
unicode = 0ED5;
},
{
glyphname = "six-lao";
lastChange = "2017-01-26 21:57:21 +0000";
layers = (
{
layerId = "64BC062E-13E4-450B-B24E-D8A474022433";
paths = (
{
closed = 1;
nodes = (
"232 -10 OFFCURVE",
"269 13 OFFCURVE",
"291 70 CURVE",
"293 70 LINE",
"315 13 OFFCURVE",
"352 -10 OFFCURVE",
"402 -10 CURVE SMOOTH",
"486 -10 OFFCURVE",
"519 55 OFFCURVE",
"519 156 CURVE SMOOTH",
"519 303 LINE SMOOTH",
"519 428 OFFCURVE",
"443 469 OFFCURVE",
"300 527 CURVE SMOOTH",
"190 572 OFFCURVE",
"149 582 OFFCURVE",
"149 631 CURVE SMOOTH",
"149 671 OFFCURVE",
"175 685 OFFCURVE",
"211 685 CURVE SMOOTH",
"221 685 OFFCURVE",
"236 685 OFFCURVE",
"261 677 CURVE SMOOTH",
"498 605 LINE",
"498 631 LINE",
"264 701 LINE SMOOTH",
"239 708 OFFCURVE",
"221 710 OFFCURVE",
"207 710 CURVE SMOOTH",
"164 710 OFFCURVE",
"121 685 OFFCURVE",
"121 631 CURVE SMOOTH",
"121 566 OFFCURVE",
"173 551 OFFCURVE",
"289 505 CURVE SMOOTH",
"422 452 OFFCURVE",
"493 413 OFFCURVE",
"493 303 CURVE SMOOTH",
"493 152 LINE SMOOTH",
"493 65 OFFCURVE",
"469 15 OFFCURVE",
"400 15 CURVE SMOOTH",
"330 15 OFFCURVE",
"304 65 OFFCURVE",
"304 137 CURVE SMOOTH",
"304 277 LINE",
"280 277 LINE",
"280 137 LINE SMOOTH",
"280 65 OFFCURVE",
"254 15 OFFCURVE",
"185 15 CURVE SMOOTH",
"115 15 OFFCURVE",
"91 65 OFFCURVE",
"91 152 CURVE SMOOTH",
"91 318 LINE SMOOTH",
"91 370 OFFCURVE",
"109 393 OFFCURVE",
"148 393 CURVE SMOOTH",
"174 393 OFFCURVE",
"200 383 OFFCURVE",
"217 373 CURVE",
"227 397 LINE",
"208 407 OFFCURVE",
"174 418 OFFCURVE",
"146 418 CURVE SMOOTH",
"97 418 OFFCURVE",
"65 385 OFFCURVE",
"65 317 CURVE SMOOTH",
"65 156 LINE SMOOTH",
"65 55 OFFCURVE",
"98 -10 OFFCURVE",
"182 -10 CURVE SMOOTH"
);
}
);
width = 584;
},
{
layerId = "6449CA81-A7C3-4005-93E5-765657812F1B";
paths = (
{
closed = 1;
nodes = (
"266 -10 OFFCURVE",
"299 20 OFFCURVE",
"312 57 CURVE",
"316 57 LINE",
"330 20 OFFCURVE",
"363 -10 OFFCURVE",
"418 -10 CURVE SMOOTH",
"503 -10 OFFCURVE",
"551 60 OFFCURVE",
"551 158 CURVE SMOOTH",
"551 361 LINE SMOOTH",
"551 453 OFFCURVE",
"484 510 OFFCURVE",
"416 550 CURVE SMOOTH",
"347 591 OFFCURVE",
"277 615 OFFCURVE",
"277 642 CURVE SMOOTH",
"277 652 OFFCURVE",
"286 659 OFFCURVE",
"300 659 CURVE SMOOTH",
"310 659 OFFCURVE",
"324 657 OFFCURVE",
"341 650 CURVE SMOOTH",
"537 570 LINE",
"537 639 LINE",
"355 713 LINE SMOOTH",
"332 722 OFFCURVE",
"309 724 OFFCURVE",
"291 724 CURVE SMOOTH",
"238 724 OFFCURVE",
"202 688 OFFCURVE",
"202 646 CURVE SMOOTH",
"202 576 OFFCURVE",
"300 541 OFFCURVE",
"377 487 CURVE SMOOTH",
"425 453 OFFCURVE",
"463 414 OFFCURVE",
"463 353 CURVE SMOOTH",
"463 165 LINE SMOOTH",
"463 105 OFFCURVE",
"442 63 OFFCURVE",
"404 63 CURVE SMOOTH",
"376 63 OFFCURVE",
"352 85 OFFCURVE",
"352 131 CURVE SMOOTH",
"352 325 LINE",
"276 325 LINE",
"276 131 LINE SMOOTH",
"276 85 OFFCURVE",
"253 63 OFFCURVE",
"225 63 CURVE SMOOTH",
"187 63 OFFCURVE",
"166 105 OFFCURVE",
"166 165 CURVE SMOOTH",
"166 372 LINE SMOOTH",
"166 404 OFFCURVE",
"183 415 OFFCURVE",
"205 415 CURVE SMOOTH",
"216 415 OFFCURVE",
"229 412 OFFCURVE",
"241 408 CURVE",
"254 470 LINE",
"231 479 OFFCURVE",
"205 485 OFFCURVE",
"180 485 CURVE SMOOTH",
"127 485 OFFCURVE",
"78 458 OFFCURVE",
"78 380 CURVE SMOOTH",
"78 158 LINE SMOOTH",
"78 60 OFFCURVE",
"126 -10 OFFCURVE",
"211 -10 CURVE SMOOTH"
);
}
);
width = 633;
},
{
layerId = "E5D3352E-10FF-4C03-AD9F-F95B1FD01257";
paths = (
{
closed = 1;
nodes = (
"251 -10 OFFCURVE",
"295 18 OFFCURVE",
"319 50 CURVE",
"321 50 LINE",
"348 16 OFFCURVE",
"392 -10 OFFCURVE",
"457 -10 CURVE SMOOTH",
"567 -10 OFFCURVE",
"613 65 OFFCURVE",
"613 171 CURVE SMOOTH",
"613 259 LINE SMOOTH",
"613 341 OFFCURVE",
"601 407 OFFCURVE",
"451 497 CURVE SMOOTH",
"391 533 OFFCURVE",
"341 555 OFFCURVE",
"341 571 CURVE SMOOTH",
"341 577 OFFCURVE",
"347 579 OFFCURVE",
"352 579 CURVE SMOOTH",
"365 579 OFFCURVE",
"398 567 OFFCURVE",
"411 562 CURVE SMOOTH",
"593 491 LINE",
"593 639 LINE",
"399 708 LINE SMOOTH",
"362 721 OFFCURVE",
"326 724 OFFCURVE",
"303 724 CURVE SMOOTH",
"214 724 OFFCURVE",
"159 677 OFFCURVE",
"159 590 CURVE SMOOTH",
"159 513 OFFCURVE",
"203 478 OFFCURVE",
"278 434 CURVE SMOOTH",
"396 365 OFFCURVE",
"439 338 OFFCURVE",
"439 254 CURVE SMOOTH",
"439 159 LINE SMOOTH",
"439 139 OFFCURVE",
"424 132 OFFCURVE",
"411 132 CURVE SMOOTH",
"399 132 OFFCURVE",
"385 139 OFFCURVE",
"385 159 CURVE SMOOTH",
"385 258 LINE",
"257 258 LINE",
"257 159 LINE SMOOTH",
"257 139 OFFCURVE",
"243 132 OFFCURVE",
"230 132 CURVE SMOOTH",
"218 132 OFFCURVE",
"203 139 OFFCURVE",
"203 159 CURVE SMOOTH",
"203 259 LINE SMOOTH",
"203 283 OFFCURVE",
"220 296 OFFCURVE",
"242 296 CURVE SMOOTH",
"254 296 OFFCURVE",
"267 292 OFFCURVE",
"277 288 CURVE",
"304 391 LINE",
"266 408 OFFCURVE",
"219 421 OFFCURVE",
"172 421 CURVE SMOOTH",
"74 421 OFFCURVE",
"28 363 OFFCURVE",
"28 264 CURVE SMOOTH",
"28 177 LINE SMOOTH",
"28 63 OFFCURVE",
"81 -10 OFFCURVE",
"186 -10 CURVE SMOOTH"
);
}
);
width = 651;
}
);
note = uni0ED6;
unicode = 0ED6;
},
{
glyphname = "seven-lao";
lastChange = "2017-01-26 21:57:21 +0000";
layers = (
{
layerId = "64BC062E-13E4-450B-B24E-D8A474022433";
paths = (
{
closed = 1;
nodes = (
"502 -191 LINE",
"502 365 LINE SMOOTH",
"502 498 OFFCURVE",
"440 556 OFFCURVE",
"339 556 CURVE SMOOTH",
"233 556 OFFCURVE",
"167 492 OFFCURVE",
"135 427 CURVE",
"134 427 LINE",
"124 480 OFFCURVE",
"110 519 OFFCURVE",
"85 556 CURVE",
"65 543 LINE",
"91 505 OFFCURVE",
"113 449 OFFCURVE",
"113 391 CURVE SMOOTH",
"113 85 LINE SMOOTH",
"113 30 OFFCURVE",
"95 14 OFFCURVE",
"60 14 CURVE SMOOTH",
"45 14 OFFCURVE",
"35 17 OFFCURVE",
"22 21 CURVE",
"17 -2 LINE",
"30 -7 OFFCURVE",
"46 -10 OFFCURVE",
"62 -10 CURVE SMOOTH",
"111 -10 OFFCURVE",
"139 19 OFFCURVE",
"139 89 CURVE SMOOTH",
"139 359 LINE SMOOTH",
"139 425 OFFCURVE",
"213 531 OFFCURVE",
"342 531 CURVE SMOOTH",
"450 531 OFFCURVE",
"476 456 OFFCURVE",
"476 366 CURVE SMOOTH",
"476 -191 LINE"
);
}
);
width = 587;
},
{
layerId = "6449CA81-A7C3-4005-93E5-765657812F1B";
paths = (
{
closed = 1;
nodes = (
"532 -191 LINE",
"532 353 LINE SMOOTH",
"532 489 OFFCURVE",
"464 558 OFFCURVE",
"343 558 CURVE SMOOTH",
"278 558 OFFCURVE",
"218 538 OFFCURVE",
"172 477 CURVE",
"169 477 LINE",
"157 508 OFFCURVE",
"134 542 OFFCURVE",
"116 558 CURVE",
"52 509 LINE",
"80 482 OFFCURVE",
"107 439 OFFCURVE",
"107 366 CURVE SMOOTH",
"107 102 LINE SMOOTH",
"107 71 OFFCURVE",
"90 60 OFFCURVE",
"67 60 CURVE SMOOTH",
"57 60 OFFCURVE",
"45 62 OFFCURVE",
"33 66 CURVE",
"20 4 LINE",
"44 -5 OFFCURVE",
"70 -10 OFFCURVE",
"92 -10 CURVE SMOOTH",
"157 -10 OFFCURVE",
"195 33 OFFCURVE",
"195 106 CURVE SMOOTH",
"195 357 LINE SMOOTH",
"195 459 OFFCURVE",
"265 485 OFFCURVE",
"326 485 CURVE SMOOTH",
"411 485 OFFCURVE",
"444 434 OFFCURVE",
"444 347 CURVE SMOOTH",
"444 -191 LINE"
);
}
);
width = 614;
},
{
layerId = "E5D3352E-10FF-4C03-AD9F-F95B1FD01257";
paths = (
{
closed = 1;
nodes = (
"604 -191 LINE",
"604 371 LINE SMOOTH",
"604 479 OFFCURVE",
"550 563 OFFCURVE",
"418 563 CURVE SMOOTH",
"339 563 OFFCURVE",
"282 533 OFFCURVE",
"244 488 CURVE",
"241 488 LINE",
"231 515 OFFCURVE",
"211 540 OFFCURVE",
"186 563 CURVE",
"47 459 LINE",
"100 414 OFFCURVE",
"116 379 OFFCURVE",
"116 309 CURVE SMOOTH",
"116 158 LINE SMOOTH",
"116 140 OFFCURVE",
"109 132 OFFCURVE",
"90 132 CURVE SMOOTH",
"77 132 OFFCURVE",
"65 136 OFFCURVE",
"55 140 CURVE",
"28 20 LINE",
"66 0 OFFCURVE",
"123 -10 OFFCURVE",
"162 -10 CURVE SMOOTH",
"252 -10 OFFCURVE",
"306 43 OFFCURVE",
"306 139 CURVE SMOOTH",
"306 345 LINE SMOOTH",
"306 393 OFFCURVE",
"330 413 OFFCURVE",
"363 413 CURVE SMOOTH",
"398 413 OFFCURVE",
"414 389 OFFCURVE",
"414 343 CURVE SMOOTH",
"414 -191 LINE"
);
}
);
width = 652;
}
);
note = uni0ED7;
unicode = 0ED7;
},
{
glyphname = "eight-lao";
lastChange = "2017-01-26 21:57:21 +0000";
layers = (
{
layerId = "64BC062E-13E4-450B-B24E-D8A474022433";
paths = (
{
closed = 1;
nodes = (
"272 -152 OFFCURVE",
"336 -126 OFFCURVE",
"390 -87 CURVE",
"391 -124 OFFCURVE",
"417 -151 OFFCURVE",
"452 -151 CURVE SMOOTH",
"488 -151 OFFCURVE",
"517 -123 OFFCURVE",
"517 -86 CURVE SMOOTH",
"517 -54 OFFCURVE",
"495 -30 OFFCURVE",
"463 -25 CURVE",
"498 13 OFFCURVE",
"521 49 OFFCURVE",
"521 94 CURVE SMOOTH",
"521 427 LINE SMOOTH",
"521 511 OFFCURVE",
"483 556 OFFCURVE",
"409 556 CURVE SMOOTH",
"348 556 OFFCURVE",
"318 526 OFFCURVE",
"305 492 CURVE",
"303 492 LINE",
"292 527 OFFCURVE",
"264 556 OFFCURVE",
"204 556 CURVE SMOOTH",
"128 556 OFFCURVE",
"65 510 OFFCURVE",
"65 323 CURVE SMOOTH",
"65 163 OFFCURVE",
"111 70 OFFCURVE",
"230 70 CURVE SMOOTH",
"257 70 OFFCURVE",
"283 75 OFFCURVE",
"296 81 CURVE",
"292 103 LINE",
"277 99 OFFCURVE",
"258 95 OFFCURVE",
"234 95 CURVE SMOOTH",
"130 95 OFFCURVE",
"91 173 OFFCURVE",
"91 325 CURVE SMOOTH",
"91 479 OFFCURVE",
"131 531 OFFCURVE",
"204 531 CURVE SMOOTH",
"252 531 OFFCURVE",
"285 508 OFFCURVE",
"293 460 CURVE",
"315 460 LINE",
"326 504 OFFCURVE",
"347 531 OFFCURVE",
"404 531 CURVE SMOOTH",
"464 531 OFFCURVE",
"495 501 OFFCURVE",
"495 429 CURVE SMOOTH",
"495 94 LINE",
"207 -36 LINE SMOOTH",
"181 -48 OFFCURVE",
"157 -67 OFFCURVE",
"157 -100 CURVE SMOOTH",
"157 -131 OFFCURVE",
"178 -152 OFFCURVE",
"222 -152 CURVE SMOOTH"
);
},
{
closed = 1;
nodes = (
"194 -127 OFFCURVE",
"183 -118 OFFCURVE",
"183 -99 CURVE SMOOTH",
"183 -81 OFFCURVE",
"192 -69 OFFCURVE",
"225 -54 CURVE SMOOTH",
"496 68 LINE",
"470 -21 OFFCURVE",
"313 -127 OFFCURVE",
"221 -127 CURVE SMOOTH"
);
},
{
closed = 1;
nodes = (
"431 -130 OFFCURVE",
"413 -111 OFFCURVE",
"413 -88 CURVE SMOOTH",
"413 -65 OFFCURVE",
"430 -47 OFFCURVE",
"454 -47 CURVE SMOOTH",
"477 -47 OFFCURVE",
"496 -65 OFFCURVE",
"496 -88 CURVE SMOOTH",
"496 -110 OFFCURVE",
"477 -130 OFFCURVE",
"454 -130 CURVE SMOOTH"
);
}
);
width = 606;
},
{
guideLines = (
{
position = "{324, -254}";
}
);
layerId = "6449CA81-A7C3-4005-93E5-765657812F1B";
paths = (
{
closed = 1;
nodes = (
"249 -191 OFFCURVE",
"310 -161 OFFCURVE",
"360 -122 CURVE",
"367 -161 OFFCURVE",
"400 -191 OFFCURVE",
"442 -191 CURVE SMOOTH",
"490 -191 OFFCURVE",
"528 -152 OFFCURVE",
"528 -105 CURVE SMOOTH",
"528 -74 OFFCURVE",
"511 -46 OFFCURVE",
"485 -32 CURVE",
"518 2 OFFCURVE",
"544 43 OFFCURVE",
"544 96 CURVE SMOOTH",
"544 390 LINE SMOOTH",
"544 494 OFFCURVE",
"500 558 OFFCURVE",
"415 558 CURVE SMOOTH",
"358 558 OFFCURVE",
"323 530 OFFCURVE",
"308 491 CURVE",
"304 491 LINE",
"287 535 OFFCURVE",
"258 558 OFFCURVE",
"205 558 CURVE SMOOTH",
"113 558 OFFCURVE",
"49 489 OFFCURVE",
"49 308 CURVE SMOOTH",
"49 85 OFFCURVE",
"146 63 OFFCURVE",
"198 63 CURVE SMOOTH",
"225 63 OFFCURVE",
"250 69 OFFCURVE",
"273 78 CURVE",
"260 140 LINE",
"248 136 OFFCURVE",
"237 133 OFFCURVE",
"221 133 CURVE SMOOTH",
"199 133 OFFCURVE",
"137 139 OFFCURVE",
"137 314 CURVE SMOOTH",
"137 437 OFFCURVE",
"168 485 OFFCURVE",
"217 485 CURVE SMOOTH",
"257 485 OFFCURVE",
"271 454 OFFCURVE",
"277 407 CURVE",
"335 407 LINE",
"340 450 OFFCURVE",
"359 485 OFFCURVE",
"398 485 CURVE SMOOTH",
"439 485 OFFCURVE",
"456 446 OFFCURVE",
"456 383 CURVE SMOOTH",
"456 104 LINE",
"258 11 LINE SMOOTH",
"172 -30 OFFCURVE",
"125 -61 OFFCURVE",
"125 -115 CURVE SMOOTH",
"125 -159 OFFCURVE",
"157 -191 OFFCURVE",
"204 -191 CURVE SMOOTH"
);
},
{
closed = 1;
nodes = (
"198 -128 OFFCURVE",
"191 -122 OFFCURVE",
"191 -112 CURVE SMOOTH",
"191 -96 OFFCURVE",
"208 -79 OFFCURVE",
"249 -59 CURVE SMOOTH",
"441 36 LINE",
"408 -34 OFFCURVE",
"262 -128 OFFCURVE",
"211 -128 CURVE SMOOTH"
);
},
{
closed = 1;
nodes = (
"422 -143 OFFCURVE",
"406 -126 OFFCURVE",
"406 -105 CURVE SMOOTH",
"406 -85 OFFCURVE",
"422 -69 OFFCURVE",
"442 -69 CURVE SMOOTH",
"463 -69 OFFCURVE",
"480 -85 OFFCURVE",
"480 -105 CURVE SMOOTH",
"480 -126 OFFCURVE",
"463 -143 OFFCURVE",
"442 -143 CURVE SMOOTH"
);
}
);
width = 626;
},
{
layerId = "E5D3352E-10FF-4C03-AD9F-F95B1FD01257";
paths = (
{
closed = 1;
nodes = (
"259 -191 OFFCURVE",
"337 -160 OFFCURVE",
"397 -112 CURVE",
"404 -159 OFFCURVE",
"442 -191 OFFCURVE",
"497 -191 CURVE SMOOTH",
"561 -191 OFFCURVE",
"603 -149 OFFCURVE",
"603 -89 CURVE SMOOTH",
"603 -41 OFFCURVE",
"576 -8 OFFCURVE",
"542 3 CURVE",
"570 25 OFFCURVE",
"588 69 OFFCURVE",
"588 113 CURVE SMOOTH",
"588 382 LINE SMOOTH",
"588 495 OFFCURVE",
"549 563 OFFCURVE",
"442 563 CURVE SMOOTH",
"386 563 OFFCURVE",
"340 543 OFFCURVE",
"319 510 CURVE",
"317 510 LINE",
"298 543 OFFCURVE",
"258 563 OFFCURVE",
"210 563 CURVE SMOOTH",
"111 563 OFFCURVE",
"28 491 OFFCURVE",
"28 317 CURVE SMOOTH",
"28 167 OFFCURVE",
"89 90 OFFCURVE",
"221 90 CURVE SMOOTH",
"266 90 OFFCURVE",
"295 99 OFFCURVE",
"326 111 CURVE",
"303 238 LINE",
"289 233 OFFCURVE",
"276 229 OFFCURVE",
"263 229 CURVE SMOOTH",
"228 229 OFFCURVE",
"217 256 OFFCURVE",
"217 322 CURVE SMOOTH",
"217 388 OFFCURVE",
"229 413 OFFCURVE",
"253 413 CURVE SMOOTH",
"270 413 OFFCURVE",
"278 402 OFFCURVE",
"280 375 CURVE",
"348 375 LINE",
"351 402 OFFCURVE",
"359 413 OFFCURVE",
"375 413 CURVE SMOOTH",
"391 413 OFFCURVE",
"399 402 OFFCURVE",
"399 374 CURVE SMOOTH",
"399 114 LINE",
"155 0 LINE SMOOTH",
"110 -21 OFFCURVE",
"84 -59 OFFCURVE",
"84 -106 CURVE SMOOTH",
"84 -162 OFFCURVE",
"122 -191 OFFCURVE",
"191 -191 CURVE SMOOTH"
);
},
{
closed = 1;
nodes = (
"249 -80 OFFCURVE",
"244 -76 OFFCURVE",
"244 -69 CURVE SMOOTH",
"244 -63 OFFCURVE",
"248 -58 OFFCURVE",
"259 -53 CURVE SMOOTH",
"398 13 LINE",
"375 -32 OFFCURVE",
"289 -80 OFFCURVE",
"256 -80 CURVE SMOOTH"
);
},
{
closed = 1;
nodes = (
"479 -110 OFFCURVE",
"467 -97 OFFCURVE",
"467 -81 CURVE SMOOTH",
"467 -66 OFFCURVE",
"479 -54 OFFCURVE",
"494 -54 CURVE SMOOTH",
"510 -54 OFFCURVE",
"523 -66 OFFCURVE",
"523 -81 CURVE SMOOTH",
"523 -97 OFFCURVE",
"510 -110 OFFCURVE",
"494 -110 CURVE SMOOTH"
);
}
);
width = 637;
}
);
note = uni0ED8;
unicode = 0ED8;
},
{
glyphname = "nine-lao";
lastChange = "2017-01-26 21:57:21 +0000";
layers = (
{
layerId = "64BC062E-13E4-450B-B24E-D8A474022433";
paths = (
{
closed = 1;
nodes = (
"240 -10 OFFCURVE",
"261 -7 OFFCURVE",
"276 -1 CURVE",
"270 22 LINE",
"260 18 OFFCURVE",
"241 15 OFFCURVE",
"223 15 CURVE SMOOTH",
"116 15 OFFCURVE",
"93 124 OFFCURVE",
"93 267 CURVE SMOOTH",
"93 478 OFFCURVE",
"143 531 OFFCURVE",
"239 531 CURVE SMOOTH",
"333 531 OFFCURVE",
"359 481 OFFCURVE",
"359 399 CURVE SMOOTH",
"359 154 LINE SMOOTH",
"359 58 OFFCURVE",
"402 -10 OFFCURVE",
"517 -10 CURVE SMOOTH",
"624 -10 OFFCURVE",
"669 49 OFFCURVE",
"669 154 CURVE SMOOTH",
"669 548 LINE",
"643 548 LINE",
"643 157 LINE SMOOTH",
"643 66 OFFCURVE",
"602 15 OFFCURVE",
"514 15 CURVE SMOOTH",
"426 15 OFFCURVE",
"385 66 OFFCURVE",
"385 157 CURVE SMOOTH",
"385 402 LINE SMOOTH",
"385 508 OFFCURVE",
"336 556 OFFCURVE",
"237 556 CURVE SMOOTH",
"137 556 OFFCURVE",
"65 507 OFFCURVE",
"65 269 CURVE SMOOTH",
"65 90 OFFCURVE",
"106 -10 OFFCURVE",
"220 -10 CURVE SMOOTH"
);
}
);
width = 754;
},
{
layerId = "6449CA81-A7C3-4005-93E5-765657812F1B";
paths = (
{
closed = 1;
nodes = (
"242 -10 OFFCURVE",
"270 -4 OFFCURVE",
"288 4 CURVE",
"274 66 LINE",
"262 62 OFFCURVE",
"250 60 OFFCURVE",
"238 60 CURVE SMOOTH",
"170 60 OFFCURVE",
"152 123 OFFCURVE",
"152 255 CURVE SMOOTH",
"152 411 OFFCURVE",
"177 485 OFFCURVE",
"261 485 CURVE SMOOTH",
"319 485 OFFCURVE",
"341 449 OFFCURVE",
"341 374 CURVE SMOOTH",
"341 169 LINE SMOOTH",
"341 59 OFFCURVE",
"395 -10 OFFCURVE",
"504 -10 CURVE SMOOTH",
"614 -10 OFFCURVE",
"667 59 OFFCURVE",
"667 169 CURVE SMOOTH",
"667 548 LINE",
"581 548 LINE",
"581 165 LINE SMOOTH",
"581 102 OFFCURVE",
"561 63 OFFCURVE",
"503 63 CURVE SMOOTH",
"446 63 OFFCURVE",
"427 102 OFFCURVE",
"427 165 CURVE SMOOTH",
"427 380 LINE SMOOTH",
"427 485 OFFCURVE",
"372 558 OFFCURVE",
"258 558 CURVE SMOOTH",
"122 558 OFFCURVE",
"64 452 OFFCURVE",
"64 257 CURVE SMOOTH",
"64 72 OFFCURVE",
"116 -10 OFFCURVE",
"215 -10 CURVE SMOOTH"
);
}
);
width = 749;
},
{
layerId = "E5D3352E-10FF-4C03-AD9F-F95B1FD01257";
paths = (
{
closed = 1;
nodes = (
"242 -10 OFFCURVE",
"273 -4 OFFCURVE",
"306 9 CURVE",
"280 142 LINE",
"269 138 OFFCURVE",
"257 137 OFFCURVE",
"251 137 CURVE SMOOTH",
"227 137 OFFCURVE",
"215 158 OFFCURVE",
"215 264 CURVE SMOOTH",
"215 396 OFFCURVE",
"231 413 OFFCURVE",
"259 413 CURVE SMOOTH",
"284 413 OFFCURVE",
"296 399 OFFCURVE",
"296 361 CURVE SMOOTH",
"296 233 LINE SMOOTH",
"296 84 OFFCURVE",
"348 -10 OFFCURVE",
"519 -10 CURVE SMOOTH",
"691 -10 OFFCURVE",
"743 86 OFFCURVE",
"743 233 CURVE SMOOTH",
"743 553 LINE",
"554 553 LINE",
"554 198 LINE SMOOTH",
"554 158 OFFCURVE",
"546 140 OFFCURVE",
"518 140 CURVE SMOOTH",
"490 140 OFFCURVE",
"479 158 OFFCURVE",
"479 198 CURVE SMOOTH",
"479 335 LINE SMOOTH",
"479 483 OFFCURVE",
"430 563 OFFCURVE",
"261 563 CURVE SMOOTH",
"99 563 OFFCURVE",
"28 489 OFFCURVE",
"28 256 CURVE SMOOTH",
"28 97 OFFCURVE",
"61 -10 OFFCURVE",
"207 -10 CURVE SMOOTH"
);
}
);
width = 791;
}
);
note = uni0ED9;
unicode = 0ED9;
},
{
glyphname = "koLa-lao";
lastChange = "2017-01-26 21:57:21 +0000";
layers = (
{
layerId = "64BC062E-13E4-450B-B24E-D8A474022433";
paths = (
{
closed = 1;
nodes = (
"487 -147 LINE",
"487 456 LINE SMOOTH",
"487 521 OFFCURVE",
"453 556 OFFCURVE",
"397 556 CURVE SMOOTH",
"350 556 OFFCURVE",
"318 531 OFFCURVE",
"295 486 CURVE",
"294 486 LINE",
"271 531 OFFCURVE",
"238 556 OFFCURVE",
"195 556 CURVE SMOOTH",
"136 556 OFFCURVE",
"100 509 OFFCURVE",
"100 434 CURVE SMOOTH",
"100 358 OFFCURVE",
"137 313 OFFCURVE",
"213 313 CURVE SMOOTH",
"232 313 OFFCURVE",
"253 316 OFFCURVE",
"268 322 CURVE",
"262 345 LINE",
"252 341 OFFCURVE",
"233 338 OFFCURVE",
"215 338 CURVE SMOOTH",
"157 338 OFFCURVE",
"128 369 OFFCURVE",
"128 436 CURVE SMOOTH",
"128 496 OFFCURVE",
"152 531 OFFCURVE",
"197 531 CURVE SMOOTH",
"239 531 OFFCURVE",
"264 501 OFFCURVE",
"281 465 CURVE",
"308 465 LINE",
"328 506 OFFCURVE",
"350 531 OFFCURVE",
"396 531 CURVE SMOOTH",
"447 531 OFFCURVE",
"461 501 OFFCURVE",
"461 452 CURVE SMOOTH",
"461 -147 LINE"
);
}
);
width = 595;
},
{
layerId = "6449CA81-A7C3-4005-93E5-765657812F1B";
paths = (
{
closed = 1;
nodes = (
"527 -191 LINE",
"527 438 LINE SMOOTH",
"527 517 OFFCURVE",
"478 558 OFFCURVE",
"410 558 CURVE SMOOTH",
"359 558 OFFCURVE",
"317 535 OFFCURVE",
"292 496 CURVE",
"289 496 LINE",
"266 532 OFFCURVE",
"226 558 OFFCURVE",
"170 558 CURVE SMOOTH",
"94 558 OFFCURVE",
"44 509 OFFCURVE",
"44 420 CURVE SMOOTH",
"44 326 OFFCURVE",
"101 279 OFFCURVE",
"171 279 CURVE SMOOTH",
"196 279 OFFCURVE",
"222 285 OFFCURVE",
"241 294 CURVE",
"228 356 LINE",
"216 352 OFFCURVE",
"204 350 OFFCURVE",
"192 350 CURVE SMOOTH",
"157 350 OFFCURVE",
"132 367 OFFCURVE",
"132 418 CURVE SMOOTH",
"132 464 OFFCURVE",
"153 485 OFFCURVE",
"190 485 CURVE SMOOTH",
"231 485 OFFCURVE",
"255 459 OFFCURVE",
"275 425 CURVE",
"306 425 LINE",
"326 457 OFFCURVE",
"352 485 OFFCURVE",
"391 485 CURVE SMOOTH",
"426 485 OFFCURVE",
"439 463 OFFCURVE",
"439 428 CURVE SMOOTH",
"439 -191 LINE"
);
}
);
width = 627;
},
{
layerId = "E5D3352E-10FF-4C03-AD9F-F95B1FD01257";
paths = (
{
closed = 1;
nodes = (
"561 -191 LINE",
"561 407 LINE SMOOTH",
"561 505 OFFCURVE",
"510 563 OFFCURVE",
"416 563 CURVE SMOOTH",
"355 563 OFFCURVE",
"309 539 OFFCURVE",
"286 500 CURVE",
"284 500 LINE",
"263 539 OFFCURVE",
"229 563 OFFCURVE",
"176 563 CURVE SMOOTH",
"81 563 OFFCURVE",
"25 487 OFFCURVE",
"25 369 CURVE SMOOTH",
"25 230 OFFCURVE",
"103 168 OFFCURVE",
"202 168 CURVE SMOOTH",
"244 168 OFFCURVE",
"292 179 OFFCURVE",
"320 198 CURVE",
"285 320 LINE",
"272 317 OFFCURVE",
"256 313 OFFCURVE",
"239 313 CURVE SMOOTH",
"211 313 OFFCURVE",
"193 324 OFFCURVE",
"193 369 CURVE SMOOTH",
"193 400 OFFCURVE",
"202 411 OFFCURVE",
"216 411 CURVE SMOOTH",
"237 411 OFFCURVE",
"241 386 OFFCURVE",
"241 359 CURVE",
"322 359 LINE",
"322 388 OFFCURVE",
"329 411 OFFCURVE",
"350 411 CURVE SMOOTH",
"365 411 OFFCURVE",
"370 398 OFFCURVE",
"370 379 CURVE SMOOTH",
"370 -191 LINE"
);
}
);
width = 631;
}
);
note = uni0EC6;
unicode = 0EC6;
},
{
glyphname = "ellipsis-lao";
lastChange = "2017-01-26 21:57:21 +0000";
layers = (
{
layerId = "64BC062E-13E4-450B-B24E-D8A474022433";
paths = (
{
closed = 1;
nodes = (
"415 -94 LINE",
"415 548 LINE",
"389 548 LINE",
"389 545 LINE SMOOTH",
"389 457 OFFCURVE",
"337 405 OFFCURVE",
"229 405 CURVE SMOOTH",
"148 405 OFFCURVE",
"106 453 OFFCURVE",
"106 538 CURVE SMOOTH",
"106 548 LINE",
"80 548 LINE",
"80 539 LINE SMOOTH",
"80 437 OFFCURVE",
"132 380 OFFCURVE",
"233 380 CURVE SMOOTH",
"295 380 OFFCURVE",
"357 404 OFFCURVE",
"387 453 CURVE",
"389 453 LINE",
"389 -94 LINE"
);
}
);
width = 500;
},
{
layerId = "6449CA81-A7C3-4005-93E5-765657812F1B";
paths = (
{
closed = 1;
nodes = (
"496 -118 LINE",
"496 548 LINE",
"417 548 LINE",
"417 539 LINE SMOOTH",
"417 463 OFFCURVE",
"351 426 OFFCURVE",
"270 426 CURVE SMOOTH",
"196 426 OFFCURVE",
"157 455 OFFCURVE",
"157 530 CURVE SMOOTH",
"157 548 LINE",
"69 548 LINE",
"69 531 LINE SMOOTH",
"69 408 OFFCURVE",
"137 353 OFFCURVE",
"253 353 CURVE SMOOTH",
"330 353 OFFCURVE",
"379 377 OFFCURVE",
"403 402 CURVE",
"408 402 LINE",
"408 -118 LINE"
);
}
);
width = 578;
},
{
layerId = "E5D3352E-10FF-4C03-AD9F-F95B1FD01257";
paths = (
{
closed = 1;
nodes = (
"534 -118 LINE",
"534 553 LINE",
"361 553 LINE",
"361 528 LINE SMOOTH",
"361 470 OFFCURVE",
"336 446 OFFCURVE",
"292 446 CURVE SMOOTH",
"248 446 OFFCURVE",
"226 470 OFFCURVE",
"226 528 CURVE SMOOTH",
"226 553 LINE",
"35 553 LINE",
"35 515 LINE SMOOTH",
"35 358 OFFCURVE",
"111 294 OFFCURVE",
"218 294 CURVE SMOOTH",
"271 294 OFFCURVE",
"312 305 OFFCURVE",
"339 327 CURVE",
"342 327 LINE",
"342 -118 LINE"
);
}
);
width = 579;
}
);
note = uni0EAF;
unicode = 0EAF;
},
{
glyphname = kip;
lastChange = "2017-01-26 21:57:21 +0000";
layers = (
{
layerId = "64BC062E-13E4-450B-B24E-D8A474022433";
paths = (
{
closed = 1;
nodes = (
"129 0 LINE",
"129 323 LINE",
"174 368 LINE",
"484 0 LINE",
"518 0 LINE",
"211 369 LINE",
"495 369 LINE",
"495 394 LINE",
"200 394 LINE",
"512 714 LINE",
"474 714 LINE",
"162 394 LINE",
"129 394 LINE",
"129 714 LINE",
"103 714 LINE",
"103 394 LINE",
"22 394 LINE",
"22 369 LINE",
"103 369 LINE",
"103 0 LINE"
);
}
);
width = 572;
},
{
layerId = "6449CA81-A7C3-4005-93E5-765657812F1B";
paths = (
{
closed = 1;
nodes = (
"188 0 LINE",
"188 272 LINE",
"244 334 LINE",
"472 0 LINE",
"579 0 LINE",
"342 334 LINE",
"520 334 LINE",
"520 400 LINE",
"314 400 LINE",
"568 714 LINE",
"464 714 LINE",
"214 400 LINE",
"188 400 LINE",
"188 714 LINE",
"97 714 LINE",
"97 400 LINE",
"10 400 LINE",
"10 334 LINE",
"97 334 LINE",
"97 0 LINE"
);
}
);
width = 572;
},
{
layerId = "E5D3352E-10FF-4C03-AD9F-F95B1FD01257";
paths = (
{
closed = 1;
nodes = (
"243 0 LINE",
"243 254 LINE",
"264 283 LINE",
"370 0 LINE",
"572 0 LINE",
"442 283 LINE",
"536 283 LINE",
"536 400 LINE",
"416 400 LINE",
"577 714 LINE",
"384 714 LINE",
"249 400 LINE",
"243 400 LINE",
"243 714 LINE",
"52 714 LINE",
"52 400 LINE",
"3 400 LINE",
"3 283 LINE",
"52 283 LINE",
"52 0 LINE"
);
}
);
width = 572;
}
);
note = uni20AD;
unicode = 20AD;
},
{
glyphname = "maiKanVowel-lao";
lastChange = "2017-01-26 21:57:21 +0000";
layers = (
{
anchors = (
{
name = _top;
position = "{-85, 536}";
},
{
name = top;
position = "{-176, 761}";
}
);
layerId = "64BC062E-13E4-450B-B24E-D8A474022433";
paths = (
{
closed = 1;
nodes = (
"-85 647 LINE",
"-85 671 LINE",
"-359 671 LINE SMOOTH",
"-391 671 OFFCURVE",
"-401 683 OFFCURVE",
"-401 704 CURVE SMOOTH",
"-401 718 OFFCURVE",
"-397 734 OFFCURVE",
"-392 741 CURVE",
"-417 741 LINE",
"-422 731 OFFCURVE",
"-426 715 OFFCURVE",
"-426 701 CURVE SMOOTH",
"-426 670 OFFCURVE",
"-407 647 OFFCURVE",
"-362 647 CURVE SMOOTH"
);
}
);
width = 0;
},
{
anchors = (
{
name = _top;
position = "{-82, 536}";
},
{
name = top;
position = "{-164, 789}";
}
);
layerId = "6449CA81-A7C3-4005-93E5-765657812F1B";
paths = (
{
closed = 1;
nodes = (
"-82 637 LINE",
"-82 706 LINE",
"-352 706 LINE SMOOTH",
"-384 706 OFFCURVE",
"-398 722 OFFCURVE",
"-398 744 CURVE SMOOTH",
"-398 756 OFFCURVE",
"-394 769 OFFCURVE",
"-388 782 CURVE",
"-464 782 LINE",
"-474 767 OFFCURVE",
"-480 744 OFFCURVE",
"-480 719 CURVE SMOOTH",
"-480 663 OFFCURVE",
"-447 637 OFFCURVE",
"-375 637 CURVE SMOOTH"
);
}
);
width = 0;
},
{
anchors = (
{
name = _top;
position = "{-45, 536}";
},
{
name = top;
position = "{-141, 858}";
}
);
layerId = "E5D3352E-10FF-4C03-AD9F-F95B1FD01257";
paths = (
{
closed = 1;
nodes = (
"-45 637 LINE",
"-45 764 LINE",
"-316 764 LINE SMOOTH",
"-340 764 OFFCURVE",
"-350 774 OFFCURVE",
"-350 797 CURVE SMOOTH",
"-350 809 OFFCURVE",
"-347 823 OFFCURVE",
"-342 834 CURVE",
"-474 834 LINE",
"-486 810 OFFCURVE",
"-494 766 OFFCURVE",
"-494 739 CURVE SMOOTH",
"-494 683 OFFCURVE",
"-460 637 OFFCURVE",
"-384 637 CURVE SMOOTH"
);
}
);
width = 0;
}
);
note = uni0EB1;
unicode = 0EB1;
},
{
glyphname = "iVowel-lao";
lastChange = "2017-01-26 21:57:21 +0000";
layers = (
{
anchors = (
{
name = _top;
position = "{-85, 536}";
},
{
name = top;
position = "{-92, 838}";
}
);
layerId = "64BC062E-13E4-450B-B24E-D8A474022433";
paths = (
{
closed = 1;
nodes = (
"-343 650 LINE",
"-386 650 OFFCURVE",
"-447 670 OFFCURVE",
"-447 727 CURVE SMOOTH",
"-447 787 OFFCURVE",
"-378 814 OFFCURVE",
"-283 814 CURVE SMOOTH",
"-188 814 OFFCURVE",
"-119 787 OFFCURVE",
"-119 727 CURVE SMOOTH",
"-119 670 OFFCURVE",
"-180 650 OFFCURVE",
"-223 650 CURVE",
"-217 627 LINE",
"-157 627 OFFCURVE",
"-92 660 OFFCURVE",
"-92 727 CURVE SMOOTH",
"-92 801 OFFCURVE",
"-172 838 OFFCURVE",
"-283 838 CURVE SMOOTH",
"-394 838 OFFCURVE",
"-474 801 OFFCURVE",
"-474 727 CURVE SMOOTH",
"-474 660 OFFCURVE",
"-409 627 OFFCURVE",
"-349 627 CURVE"
);
}
);
width = 0;
},
{
anchors = (
{
name = _top;
position = "{-82, 536}";
},
{
name = top;
position = "{-82, 859}";
}
);
layerId = "6449CA81-A7C3-4005-93E5-765657812F1B";
paths = (
{
closed = 1;
nodes = (
"-370 678 LINE",
"-374 679 OFFCURVE",
"-440 686 OFFCURVE",
"-440 733 CURVE SMOOTH",
"-440 772 OFFCURVE",
"-393 797 OFFCURVE",
"-305 797 CURVE SMOOTH",
"-217 797 OFFCURVE",
"-171 772 OFFCURVE",
"-171 733 CURVE SMOOTH",
"-171 686 OFFCURVE",
"-236 679 OFFCURVE",
"-241 678 CURVE",
"-227 627 LINE",
"-159 627 OFFCURVE",
"-88 662 OFFCURVE",
"-88 731 CURVE SMOOTH",
"-88 814 OFFCURVE",
"-191 859 OFFCURVE",
"-305 859 CURVE SMOOTH",
"-419 859 OFFCURVE",
"-522 814 OFFCURVE",
"-522 731 CURVE SMOOTH",
"-522 663 OFFCURVE",
"-454 627 OFFCURVE",
"-383 627 CURVE"
);
}
);
width = 0;
},
{
anchors = (
{
name = _top;
position = "{-45, 536}";
},
{
name = top;
position = "{-45, 887}";
}
);
layerId = "E5D3352E-10FF-4C03-AD9F-F95B1FD01257";
paths = (
{
closed = 1;
nodes = (
"-334 698 LINE",
"-375 700 OFFCURVE",
"-398 717 OFFCURVE",
"-398 740 CURVE SMOOTH",
"-398 770 OFFCURVE",
"-359 787 OFFCURVE",
"-291 787 CURVE SMOOTH",
"-223 787 OFFCURVE",
"-184 770 OFFCURVE",
"-184 740 CURVE SMOOTH",
"-184 717 OFFCURVE",
"-207 700 OFFCURVE",
"-248 698 CURVE",
"-229 627 LINE",
"-127 627 OFFCURVE",
"-45 664 OFFCURVE",
"-45 749 CURVE SMOOTH",
"-45 840 OFFCURVE",
"-138 895 OFFCURVE",
"-291 895 CURVE SMOOTH",
"-444 895 OFFCURVE",
"-537 840 OFFCURVE",
"-537 749 CURVE SMOOTH",
"-537 664 OFFCURVE",
"-455 627 OFFCURVE",
"-353 627 CURVE"
);
}
);
width = 0;
}
);
note = uni0EB4;
unicode = 0EB4;
},
{
glyphname = "iiVowel-lao";
lastChange = "2017-01-26 21:57:21 +0000";
layers = (
{
anchors = (
{
name = _top;
position = "{-85, 536}";
},
{
name = top;
position = "{-102, 838}";
}
);
layerId = "64BC062E-13E4-450B-B24E-D8A474022433";
paths = (
{
closed = 1;
nodes = (
"-343 650 LINE",
"-386 650 OFFCURVE",
"-447 670 OFFCURVE",
"-447 727 CURVE SMOOTH",
"-447 787 OFFCURVE",
"-378 814 OFFCURVE",
"-288 814 CURVE SMOOTH",
"-197 814 OFFCURVE",
"-129 787 OFFCURVE",
"-129 731 CURVE SMOOTH",
"-129 672 OFFCURVE",
"-205 649 OFFCURVE",
"-247 649 CURVE",
"-241 627 LINE",
"-76 627 LINE",
"-76 649 LINE",
"-124 649 LINE SMOOTH",
"-138 649 OFFCURVE",
"-163 647 OFFCURVE",
"-183 643 CURVE",
"-183 645 LINE",
"-141 658 OFFCURVE",
"-102 680 OFFCURVE",
"-102 730 CURVE SMOOTH",
"-102 802 OFFCURVE",
"-183 838 OFFCURVE",
"-288 838 CURVE SMOOTH",
"-392 838 OFFCURVE",
"-474 802 OFFCURVE",
"-474 727 CURVE SMOOTH",
"-474 660 OFFCURVE",
"-409 627 OFFCURVE",
"-349 627 CURVE"
);
}
);
width = 0;
},
{
anchors = (
{
name = _top;
position = "{-82, 536}";
},
{
name = top;
position = "{-82, 859}";
}
);
layerId = "6449CA81-A7C3-4005-93E5-765657812F1B";
paths = (
{
closed = 1;
nodes = (
"-370 678 LINE",
"-374 679 OFFCURVE",
"-440 686 OFFCURVE",
"-440 733 CURVE SMOOTH",
"-440 772 OFFCURVE",
"-393 797 OFFCURVE",
"-305 797 CURVE SMOOTH",
"-217 797 OFFCURVE",
"-171 772 OFFCURVE",
"-171 733 CURVE SMOOTH",
"-171 686 OFFCURVE",
"-236 679 OFFCURVE",
"-241 678 CURVE",
"-227 627 LINE",
"-36 627 LINE",
"-36 688 LINE",
"-70 688 LINE SMOOTH",
"-82 688 OFFCURVE",
"-105 687 OFFCURVE",
"-117 683 CURVE",
"-117 685 LINE",
"-96 699 OFFCURVE",
"-88 714 OFFCURVE",
"-88 735 CURVE SMOOTH",
"-88 811 OFFCURVE",
"-189 859 OFFCURVE",
"-306 859 CURVE SMOOTH",
"-419 859 OFFCURVE",
"-522 814 OFFCURVE",
"-522 731 CURVE SMOOTH",
"-522 663 OFFCURVE",
"-454 627 OFFCURVE",
"-383 627 CURVE"
);
}
);
width = 0;
},
{
anchors = (
{
name = _top;
position = "{-45, 536}";
},
{
name = top;
position = "{-45, 887}";
}
);
layerId = "E5D3352E-10FF-4C03-AD9F-F95B1FD01257";
paths = (
{
closed = 1;
nodes = (
"-334 698 LINE",
"-375 700 OFFCURVE",
"-398 717 OFFCURVE",
"-398 740 CURVE SMOOTH",
"-398 770 OFFCURVE",
"-357 787 OFFCURVE",
"-290 787 CURVE SMOOTH",
"-220 787 OFFCURVE",
"-182 770 OFFCURVE",
"-182 740 CURVE SMOOTH",
"-182 717 OFFCURVE",
"-205 700 OFFCURVE",
"-246 698 CURVE",
"-227 627 LINE",
"-3 627 LINE",
"-3 728 LINE",
"-8 728 LINE SMOOTH",
"-29 728 OFFCURVE",
"-65 722 OFFCURVE",
"-83 716 CURVE",
"-83 718 LINE",
"-63 730 OFFCURVE",
"-46 746 OFFCURVE",
"-46 773 CURVE SMOOTH",
"-46 834 OFFCURVE",
"-132 895 OFFCURVE",
"-293 895 CURVE SMOOTH",
"-443 895 OFFCURVE",
"-537 839 OFFCURVE",
"-537 749 CURVE SMOOTH",
"-537 664 OFFCURVE",
"-455 627 OFFCURVE",
"-353 627 CURVE"
);
}
);
width = 0;
}
);
note = uni0EB5;
unicode = 0EB5;
},
{
glyphname = "euVowel-lao";
lastChange = "2017-01-26 21:57:21 +0000";
layers = (
{
anchors = (
{
name = _top;
position = "{-85, 536}";
},
{
name = top;
position = "{-92, 838}";
}
);
layerId = "64BC062E-13E4-450B-B24E-D8A474022433";
paths = (
{
closed = 1;
nodes = (
"-343 650 LINE",
"-386 650 OFFCURVE",
"-447 670 OFFCURVE",
"-447 727 CURVE SMOOTH",
"-447 787 OFFCURVE",
"-378 814 OFFCURVE",
"-283 814 CURVE SMOOTH",
"-188 814 OFFCURVE",
"-119 787 OFFCURVE",
"-119 727 CURVE SMOOTH",
"-119 670 OFFCURVE",
"-180 650 OFFCURVE",
"-223 650 CURVE",
"-217 627 LINE",
"-157 627 OFFCURVE",
"-92 660 OFFCURVE",
"-92 727 CURVE SMOOTH",
"-92 801 OFFCURVE",
"-172 838 OFFCURVE",
"-283 838 CURVE SMOOTH",
"-394 838 OFFCURVE",
"-474 801 OFFCURVE",
"-474 727 CURVE SMOOTH",
"-474 660 OFFCURVE",
"-409 627 OFFCURVE",
"-349 627 CURVE"
);
},
{
closed = 1;
nodes = (
"-267 698 OFFCURVE",
"-255 708 OFFCURVE",
"-255 724 CURVE SMOOTH",
"-255 740 OFFCURVE",
"-267 750 OFFCURVE",
"-283 750 CURVE SMOOTH",
"-299 750 OFFCURVE",
"-312 740 OFFCURVE",
"-312 724 CURVE SMOOTH",
"-312 708 OFFCURVE",
"-299 698 OFFCURVE",
"-283 698 CURVE SMOOTH"
);
}
);
width = 0;
},
{
anchors = (
{
name = _top;
position = "{-82, 536}";
},
{
name = top;
position = "{-82, 859}";
}
);
layerId = "6449CA81-A7C3-4005-93E5-765657812F1B";
paths = (
{
closed = 1;
nodes = (
"-370 678 LINE",
"-374 679 OFFCURVE",
"-440 686 OFFCURVE",
"-440 733 CURVE SMOOTH",
"-440 772 OFFCURVE",
"-393 797 OFFCURVE",
"-305 797 CURVE SMOOTH",
"-217 797 OFFCURVE",
"-171 772 OFFCURVE",
"-171 733 CURVE SMOOTH",
"-171 686 OFFCURVE",
"-236 679 OFFCURVE",
"-241 678 CURVE",
"-227 627 LINE",
"-159 627 OFFCURVE",
"-88 662 OFFCURVE",
"-88 731 CURVE SMOOTH",
"-88 814 OFFCURVE",
"-191 859 OFFCURVE",
"-305 859 CURVE SMOOTH",
"-419 859 OFFCURVE",
"-522 814 OFFCURVE",
"-522 731 CURVE SMOOTH",
"-522 663 OFFCURVE",
"-454 627 OFFCURVE",
"-383 627 CURVE"
);
},
{
closed = 1;
nodes = (
"-280 686 OFFCURVE",
"-263 702 OFFCURVE",
"-263 728 CURVE SMOOTH",
"-263 754 OFFCURVE",
"-280 771 OFFCURVE",
"-305 771 CURVE SMOOTH",
"-331 771 OFFCURVE",
"-348 754 OFFCURVE",
"-348 728 CURVE SMOOTH",
"-348 702 OFFCURVE",
"-331 686 OFFCURVE",
"-305 686 CURVE SMOOTH"
);
}
);
width = 0;
},
{
anchors = (
{
name = _top;
position = "{-45, 536}";
},
{
name = top;
position = "{-45, 887}";
}
);
layerId = "E5D3352E-10FF-4C03-AD9F-F95B1FD01257";
paths = (
{
closed = 1;
nodes = (
"-334 698 LINE",
"-375 700 OFFCURVE",
"-398 717 OFFCURVE",
"-398 740 CURVE SMOOTH",
"-398 770 OFFCURVE",
"-359 787 OFFCURVE",
"-291 787 CURVE SMOOTH",
"-223 787 OFFCURVE",
"-184 770 OFFCURVE",
"-184 740 CURVE SMOOTH",
"-184 717 OFFCURVE",
"-207 700 OFFCURVE",
"-248 698 CURVE",
"-229 627 LINE",
"-127 627 OFFCURVE",
"-45 664 OFFCURVE",
"-45 749 CURVE SMOOTH",
"-45 840 OFFCURVE",
"-138 895 OFFCURVE",
"-291 895 CURVE SMOOTH",
"-444 895 OFFCURVE",
"-537 840 OFFCURVE",
"-537 749 CURVE SMOOTH",
"-537 664 OFFCURVE",
"-455 627 OFFCURVE",
"-353 627 CURVE"
);
},
{
closed = 1;
nodes = (
"-264 697 OFFCURVE",
"-249 712 OFFCURVE",
"-249 737 CURVE SMOOTH",
"-249 762 OFFCURVE",
"-264 777 OFFCURVE",
"-291 777 CURVE SMOOTH",
"-318 777 OFFCURVE",
"-334 762 OFFCURVE",
"-334 737 CURVE SMOOTH",
"-334 712 OFFCURVE",
"-318 697 OFFCURVE",
"-291 697 CURVE SMOOTH"
);
}
);
width = 0;
}
);
note = uni0EB6;
unicode = 0EB6;
},
{
glyphname = "euuVowel-lao";
lastChange = "2017-01-26 21:57:21 +0000";
layers = (
{
anchors = (
{
name = _top;
position = "{-85, 536}";
},
{
name = top;
position = "{-112, 838}";
}
);
layerId = "64BC062E-13E4-450B-B24E-D8A474022433";
paths = (
{
closed = 1;
nodes = (
"-343 650 LINE",
"-387 650 OFFCURVE",
"-447 670 OFFCURVE",
"-447 727 CURVE SMOOTH",
"-447 786 OFFCURVE",
"-384 814 OFFCURVE",
"-293 814 CURVE SMOOTH",
"-203 814 OFFCURVE",
"-139 787 OFFCURVE",
"-139 732 CURVE SMOOTH",
"-139 671 OFFCURVE",
"-216 649 OFFCURVE",
"-257 649 CURVE",
"-251 627 LINE",
"-86 627 LINE",
"-86 649 LINE",
"-134 649 LINE SMOOTH",
"-148 649 OFFCURVE",
"-173 647 OFFCURVE",
"-193 643 CURVE",
"-193 645 LINE",
"-155 657 OFFCURVE",
"-112 677 OFFCURVE",
"-112 731 CURVE SMOOTH",
"-112 802 OFFCURVE",
"-188 838 OFFCURVE",
"-292 838 CURVE SMOOTH",
"-398 838 OFFCURVE",
"-474 801 OFFCURVE",
"-474 728 CURVE SMOOTH",
"-474 660 OFFCURVE",
"-409 627 OFFCURVE",
"-349 627 CURVE"
);
},
{
closed = 1;
nodes = (
"-277 698 OFFCURVE",
"-265 708 OFFCURVE",
"-265 724 CURVE SMOOTH",
"-265 740 OFFCURVE",
"-277 750 OFFCURVE",
"-293 750 CURVE SMOOTH",
"-309 750 OFFCURVE",
"-322 740 OFFCURVE",
"-322 724 CURVE SMOOTH",
"-322 708 OFFCURVE",
"-309 698 OFFCURVE",
"-293 698 CURVE SMOOTH"
);
}
);
width = 0;
},
{
anchors = (
{
name = _top;
position = "{-82, 536}";
},
{
name = top;
position = "{-82, 859}";
}
);
layerId = "6449CA81-A7C3-4005-93E5-765657812F1B";
paths = (
{
closed = 1;
nodes = (
"-370 678 LINE",
"-374 679 OFFCURVE",
"-440 686 OFFCURVE",
"-440 733 CURVE SMOOTH",
"-440 772 OFFCURVE",
"-393 797 OFFCURVE",
"-305 797 CURVE SMOOTH",
"-217 797 OFFCURVE",
"-171 772 OFFCURVE",
"-171 733 CURVE SMOOTH",
"-171 686 OFFCURVE",
"-236 679 OFFCURVE",
"-241 678 CURVE",
"-227 627 LINE",
"-36 627 LINE",
"-36 688 LINE",
"-70 688 LINE SMOOTH",
"-82 688 OFFCURVE",
"-105 687 OFFCURVE",
"-117 683 CURVE",
"-117 685 LINE",
"-96 699 OFFCURVE",
"-88 714 OFFCURVE",
"-88 735 CURVE SMOOTH",
"-88 811 OFFCURVE",
"-189 859 OFFCURVE",
"-306 859 CURVE SMOOTH",
"-419 859 OFFCURVE",
"-522 814 OFFCURVE",
"-522 731 CURVE SMOOTH",
"-522 663 OFFCURVE",
"-454 627 OFFCURVE",
"-383 627 CURVE"
);
},
{
closed = 1;
nodes = (
"-280 686 OFFCURVE",
"-263 702 OFFCURVE",
"-263 728 CURVE SMOOTH",
"-263 754 OFFCURVE",
"-280 771 OFFCURVE",
"-305 771 CURVE SMOOTH",
"-331 771 OFFCURVE",
"-348 754 OFFCURVE",
"-348 728 CURVE SMOOTH",
"-348 702 OFFCURVE",
"-331 686 OFFCURVE",
"-305 686 CURVE SMOOTH"
);
}
);
width = 0;
},
{
anchors = (
{
name = _top;
position = "{-45, 536}";
},
{
name = top;
position = "{-45, 887}";
}
);
layerId = "E5D3352E-10FF-4C03-AD9F-F95B1FD01257";
paths = (
{
closed = 1;
nodes = (
"-334 698 LINE",
"-375 700 OFFCURVE",
"-398 717 OFFCURVE",
"-398 740 CURVE SMOOTH",
"-398 770 OFFCURVE",
"-357 787 OFFCURVE",
"-290 787 CURVE SMOOTH",
"-220 787 OFFCURVE",
"-182 770 OFFCURVE",
"-182 740 CURVE SMOOTH",
"-182 717 OFFCURVE",
"-205 700 OFFCURVE",
"-246 698 CURVE",
"-227 627 LINE",
"-3 627 LINE",
"-3 728 LINE",
"-8 728 LINE SMOOTH",
"-29 728 OFFCURVE",
"-65 722 OFFCURVE",
"-83 716 CURVE",
"-83 718 LINE",
"-63 730 OFFCURVE",
"-46 746 OFFCURVE",
"-46 773 CURVE SMOOTH",
"-46 834 OFFCURVE",
"-132 895 OFFCURVE",
"-293 895 CURVE SMOOTH",
"-443 895 OFFCURVE",
"-537 839 OFFCURVE",
"-537 749 CURVE SMOOTH",
"-537 664 OFFCURVE",
"-455 627 OFFCURVE",
"-353 627 CURVE"
);
},
{
closed = 1;
nodes = (
"-263 697 OFFCURVE",
"-248 712 OFFCURVE",
"-248 737 CURVE SMOOTH",
"-248 762 OFFCURVE",
"-263 777 OFFCURVE",
"-290 777 CURVE SMOOTH",
"-317 777 OFFCURVE",
"-333 762 OFFCURVE",
"-333 737 CURVE SMOOTH",
"-333 712 OFFCURVE",
"-317 697 OFFCURVE",
"-290 697 CURVE SMOOTH"
);
}
);
width = 0;
}
);
note = uni0EB7;
unicode = 0EB7;
},
{
glyphname = "maiKonVowel-lao";
lastChange = "2017-01-26 21:57:21 +0000";
layers = (
{
anchors = (
{
name = _top;
position = "{-85, 536}";
},
{
name = top;
position = "{-176, 791}";
}
);
layerId = "64BC062E-13E4-450B-B24E-D8A474022433";
paths = (
{
closed = 1;
nodes = (
"-392 637 LINE",
"-397 644 OFFCURVE",
"-401 660 OFFCURVE",
"-401 674 CURVE SMOOTH",
"-401 695 OFFCURVE",
"-391 707 OFFCURVE",
"-359 707 CURVE SMOOTH",
"-85 707 LINE",
"-85 731 LINE",
"-362 731 LINE SMOOTH",
"-407 731 OFFCURVE",
"-426 708 OFFCURVE",
"-426 677 CURVE SMOOTH",
"-426 663 OFFCURVE",
"-422 647 OFFCURVE",
"-417 637 CURVE"
);
}
);
width = 0;
},
{
anchors = (
{
name = _top;
position = "{-82, 536}";
},
{
name = top;
position = "{-178, 821}";
}
);
layerId = "6449CA81-A7C3-4005-93E5-765657812F1B";
paths = (
{
closed = 1;
nodes = (
"-393 637 LINE",
"-398 647 OFFCURVE",
"-401 667 OFFCURVE",
"-401 677 CURVE SMOOTH",
"-401 701 OFFCURVE",
"-385 710 OFFCURVE",
"-357 710 CURVE SMOOTH",
"-82 710 LINE",
"-82 779 LINE",
"-380 779 LINE SMOOTH",
"-462 779 OFFCURVE",
"-485 739 OFFCURVE",
"-485 697 CURVE SMOOTH",
"-485 674 OFFCURVE",
"-478 651 OFFCURVE",
"-469 637 CURVE"
);
}
);
width = 0;
},
{
anchors = (
{
name = _top;
position = "{-45, 536}";
},
{
name = top;
position = "{-141, 877}";
}
);
layerId = "E5D3352E-10FF-4C03-AD9F-F95B1FD01257";
paths = (
{
closed = 1;
nodes = (
"-342 637 LINE",
"-347 648 OFFCURVE",
"-350 662 OFFCURVE",
"-350 674 CURVE SMOOTH",
"-350 697 OFFCURVE",
"-340 707 OFFCURVE",
"-316 707 CURVE SMOOTH",
"-45 707 LINE",
"-45 834 LINE",
"-384 834 LINE SMOOTH",
"-460 834 OFFCURVE",
"-494 788 OFFCURVE",
"-494 732 CURVE SMOOTH",
"-494 705 OFFCURVE",
"-486 661 OFFCURVE",
"-474 637 CURVE"
);
}
);
width = 0;
}
);
note = uni0EBB;
unicode = 0EBB;
},
{
glyphname = "uVowel-lao";
lastChange = "2017-01-26 21:57:21 +0000";
layers = (
{
anchors = (
{
name = _bottom;
position = "{-85, 0}";
}
);
layerId = "64BC062E-13E4-450B-B24E-D8A474022433";
paths = (
{
closed = 1;
nodes = (
"-85 -267 LINE",
"-85 -118 LINE SMOOTH",
"-85 -96 OFFCURVE",
"-100 -80 OFFCURVE",
"-134 -80 CURVE SMOOTH",
"-146 -80 OFFCURVE",
"-160 -82 OFFCURVE",
"-169 -86 CURVE",
"-166 -108 LINE",
"-158 -105 OFFCURVE",
"-147 -104 OFFCURVE",
"-140 -104 CURVE SMOOTH",
"-120 -104 OFFCURVE",
"-111 -111 OFFCURVE",
"-111 -128 CURVE SMOOTH",
"-111 -267 LINE"
);
}
);
width = 0;
},
{
anchors = (
{
name = _bottom;
position = "{-82, 0}";
}
);
layerId = "6449CA81-A7C3-4005-93E5-765657812F1B";
paths = (
{
closed = 1;
nodes = (
"-82 -277 LINE",
"-82 -171 LINE SMOOTH",
"-82 -99 OFFCURVE",
"-115 -80 OFFCURVE",
"-158 -80 CURVE SMOOTH",
"-182 -80 OFFCURVE",
"-211 -86 OFFCURVE",
"-226 -93 CURVE",
"-212 -149 LINE",
"-204 -146 OFFCURVE",
"-193 -143 OFFCURVE",
"-182 -143 CURVE SMOOTH",
"-165 -143 OFFCURVE",
"-155 -151 OFFCURVE",
"-155 -175 CURVE SMOOTH",
"-155 -277 LINE"
);
}
);
width = 0;
},
{
anchors = (
{
name = _bottom;
position = "{-45, 0}";
}
);
layerId = "E5D3352E-10FF-4C03-AD9F-F95B1FD01257";
paths = (
{
closed = 1;
nodes = (
"-45 -297 LINE",
"-45 -150 LINE SMOOTH",
"-45 -101 OFFCURVE",
"-82 -60 OFFCURVE",
"-149 -60 CURVE SMOOTH",
"-186 -60 OFFCURVE",
"-246 -72 OFFCURVE",
"-276 -91 CURVE",
"-254 -186 LINE",
"-248 -183 OFFCURVE",
"-235 -180 OFFCURVE",
"-225 -180 CURVE SMOOTH",
"-208 -180 OFFCURVE",
"-202 -189 OFFCURVE",
"-202 -197 CURVE SMOOTH",
"-202 -297 LINE"
);
}
);
width = 0;
}
);
note = uni0EB8;
unicode = 0EB8;
},
{
glyphname = "uuVowel-lao";
lastChange = "2017-01-26 21:57:21 +0000";
layers = (
{
anchors = (
{
name = _bottom;
position = "{-85, 0}";
}
);
layerId = "64BC062E-13E4-450B-B24E-D8A474022433";
paths = (
{
closed = 1;
nodes = (
"-117 -267 OFFCURVE",
"-85 -235 OFFCURVE",
"-85 -175 CURVE SMOOTH",
"-85 -83 LINE",
"-111 -83 LINE",
"-111 -179 LINE SMOOTH",
"-111 -222 OFFCURVE",
"-134 -244 OFFCURVE",
"-179 -244 CURVE SMOOTH",
"-224 -244 OFFCURVE",
"-247 -222 OFFCURVE",
"-247 -179 CURVE SMOOTH",
"-247 -118 LINE SMOOTH",
"-247 -93 OFFCURVE",
"-260 -80 OFFCURVE",
"-289 -80 CURVE SMOOTH",
"-300 -80 OFFCURVE",
"-312 -82 OFFCURVE",
"-320 -85 CURVE",
"-316 -108 LINE",
"-307 -105 OFFCURVE",
"-300 -104 OFFCURVE",
"-295 -104 CURVE SMOOTH",
"-281 -104 OFFCURVE",
"-273 -110 OFFCURVE",
"-273 -122 CURVE SMOOTH",
"-273 -177 LINE SMOOTH",
"-273 -236 OFFCURVE",
"-241 -267 OFFCURVE",
"-179 -267 CURVE SMOOTH"
);
}
);
width = 0;
},
{
anchors = (
{
name = _bottom;
position = "{-82, 0}";
}
);
layerId = "6449CA81-A7C3-4005-93E5-765657812F1B";
paths = (
{
closed = 1;
nodes = (
"-125 -281 OFFCURVE",
"-82 -243 OFFCURVE",
"-82 -177 CURVE SMOOTH",
"-82 -83 LINE",
"-160 -83 LINE",
"-160 -175 LINE SMOOTH",
"-160 -201 OFFCURVE",
"-173 -220 OFFCURVE",
"-212 -220 CURVE SMOOTH",
"-255 -220 OFFCURVE",
"-266 -201 OFFCURVE",
"-266 -175 CURVE SMOOTH",
"-266 -141 LINE SMOOTH",
"-266 -103 OFFCURVE",
"-286 -80 OFFCURVE",
"-332 -80 CURVE SMOOTH",
"-345 -80 OFFCURVE",
"-364 -82 OFFCURVE",
"-381 -86 CURVE",
"-375 -146 LINE",
"-370 -145 OFFCURVE",
"-365 -144 OFFCURVE",
"-360 -144 CURVE SMOOTH",
"-347 -144 OFFCURVE",
"-343 -150 OFFCURVE",
"-343 -166 CURVE SMOOTH",
"-343 -183 LINE SMOOTH",
"-343 -246 OFFCURVE",
"-301 -281 OFFCURVE",
"-213 -281 CURVE SMOOTH"
);
}
);
width = 0;
},
{
anchors = (
{
name = _bottom;
position = "{-45, 0}";
}
);
layerId = "E5D3352E-10FF-4C03-AD9F-F95B1FD01257";
paths = (
{
closed = 1;
nodes = (
"-105 -314 OFFCURVE",
"-45 -263 OFFCURVE",
"-45 -200 CURVE SMOOTH",
"-45 -68 LINE",
"-187 -68 LINE",
"-187 -185 LINE SMOOTH",
"-187 -204 OFFCURVE",
"-198 -214 OFFCURVE",
"-219 -214 CURVE SMOOTH",
"-238 -214 OFFCURVE",
"-247 -205 OFFCURVE",
"-247 -187 CURVE SMOOTH",
"-247 -150 LINE SMOOTH",
"-247 -101 OFFCURVE",
"-269 -60 OFFCURVE",
"-336 -60 CURVE SMOOTH",
"-373 -60 OFFCURVE",
"-428 -72 OFFCURVE",
"-458 -91 CURVE",
"-444 -186 LINE",
"-438 -183 OFFCURVE",
"-417 -180 OFFCURVE",
"-407 -180 CURVE SMOOTH",
"-390 -180 OFFCURVE",
"-384 -189 OFFCURVE",
"-384 -197 CURVE SMOOTH",
"-384 -209 LINE SMOOTH",
"-384 -263 OFFCURVE",
"-336 -314 OFFCURVE",
"-221 -314 CURVE SMOOTH"
);
}
);
width = 0;
}
);
note = uni0EB9;
unicode = 0EB9;
},
{
glyphname = "loVowel-lao";
lastChange = "2017-01-26 21:57:21 +0000";
layers = (
{
anchors = (
{
name = _bottom;
position = "{-85, 0}";
},
{
name = bottom;
position = "{-85, -143}";
}
);
layerId = "64BC062E-13E4-450B-B24E-D8A474022433";
paths = (
{
closed = 1;
nodes = (
"-356 -165 LINE",
"-363 -154 OFFCURVE",
"-366 -140 OFFCURVE",
"-366 -129 CURVE SMOOTH",
"-366 -108 OFFCURVE",
"-354 -98 OFFCURVE",
"-325 -98 CURVE SMOOTH",
"-272 -98 OFFCURVE",
"-229 -131 OFFCURVE",
"-166 -131 CURVE SMOOTH",
"-136 -131 OFFCURVE",
"-107 -124 OFFCURVE",
"-83 -110 CURVE",
"-83 -83 LINE",
"-109 -98 OFFCURVE",
"-137 -106 OFFCURVE",
"-167 -106 CURVE SMOOTH",
"-228 -106 OFFCURVE",
"-273 -73 OFFCURVE",
"-330 -73 CURVE SMOOTH",
"-372 -73 OFFCURVE",
"-394 -91 OFFCURVE",
"-394 -125 CURVE SMOOTH",
"-394 -138 OFFCURVE",
"-391 -152 OFFCURVE",
"-385 -165 CURVE"
);
}
);
width = 0;
},
{
anchors = (
{
name = _bottom;
position = "{-82, 0}";
},
{
name = bottom;
position = "{-82, -175}";
}
);
layerId = "6449CA81-A7C3-4005-93E5-765657812F1B";
paths = (
{
closed = 1;
nodes = (
"-347 -210 LINE",
"-354 -199 OFFCURVE",
"-357 -185 OFFCURVE",
"-357 -174 CURVE SMOOTH",
"-357 -156 OFFCURVE",
"-349 -148 OFFCURVE",
"-327 -148 CURVE SMOOTH",
"-279 -148 OFFCURVE",
"-230 -184 OFFCURVE",
"-168 -184 CURVE SMOOTH",
"-139 -184 OFFCURVE",
"-109 -176 OFFCURVE",
"-83 -160 CURVE",
"-83 -92 LINE",
"-109 -108 OFFCURVE",
"-138 -116 OFFCURVE",
"-166 -116 CURVE SMOOTH",
"-224 -116 OFFCURVE",
"-268 -80 OFFCURVE",
"-342 -80 CURVE SMOOTH",
"-406 -80 OFFCURVE",
"-442 -107 OFFCURVE",
"-442 -159 CURVE SMOOTH",
"-442 -178 OFFCURVE",
"-437 -196 OFFCURVE",
"-427 -210 CURVE"
);
}
);
width = 0;
},
{
anchors = (
{
name = _bottom;
position = "{-45, 0}";
},
{
name = bottom;
position = "{-45, -222}";
}
);
layerId = "E5D3352E-10FF-4C03-AD9F-F95B1FD01257";
paths = (
{
closed = 1;
nodes = (
"-299 -245 LINE",
"-306 -234 OFFCURVE",
"-309 -222 OFFCURVE",
"-309 -211 CURVE SMOOTH",
"-309 -192 OFFCURVE",
"-299 -183 OFFCURVE",
"-278 -183 CURVE SMOOTH",
"-237 -183 OFFCURVE",
"-188 -216 OFFCURVE",
"-126 -216 CURVE SMOOTH",
"-97 -216 OFFCURVE",
"-69 -209 OFFCURVE",
"-45 -195 CURVE",
"-45 -72 LINE",
"-71 -88 OFFCURVE",
"-102 -96 OFFCURVE",
"-131 -96 CURVE SMOOTH",
"-193 -96 OFFCURVE",
"-250 -60 OFFCURVE",
"-323 -60 CURVE SMOOTH",
"-396 -60 OFFCURVE",
"-434 -96 OFFCURVE",
"-434 -172 CURVE SMOOTH",
"-434 -199 OFFCURVE",
"-429 -226 OFFCURVE",
"-419 -245 CURVE"
);
}
);
width = 0;
}
);
note = uni0EBC;
unicode = 0EBC;
},
{
glyphname = "maiEk-lao";
lastChange = "2017-01-26 21:57:21 +0000";
layers = (
{
anchors = (
{
name = _top;
position = "{-85, 536}";
}
);
layerId = "64BC062E-13E4-450B-B24E-D8A474022433";
paths = (
{
closed = 1;
nodes = (
"-85 627 LINE",
"-85 810 LINE",
"-111 810 LINE",
"-111 627 LINE"
);
}
);
width = 0;
},
{
anchors = (
{
name = _top;
position = "{-82, 536}";
}
);
layerId = "6449CA81-A7C3-4005-93E5-765657812F1B";
paths = (
{
closed = 1;
nodes = (
"-82 627 LINE",
"-82 801 LINE",
"-170 801 LINE",
"-170 627 LINE"
);
}
);
width = 0;
},
{
anchors = (
{
name = _top;
position = "{-45, 536}";
}
);
layerId = "E5D3352E-10FF-4C03-AD9F-F95B1FD01257";
paths = (
{
closed = 1;
nodes = (
"-57 637 LINE",
"-57 846 LINE",
"-225 846 LINE",
"-225 637 LINE"
);
}
);
width = 0;
}
);
note = uni0EC8;
unicode = 0EC8;
},
